<?xml version="1.0" encoding="UTF-8"?>
<svg id="Layer_1" data-name="Layer 1" xmlns="http://www.w3.org/2000/svg" version="1.1" viewBox="0 0 4000 2443.1">
  <defs>
    <style>
      .cls-1 {
        fill: #012c00;
      }

      .cls-1, .cls-2, .cls-3, .cls-4, .cls-5, .cls-6, .cls-7, .cls-8, .cls-9, .cls-10, .cls-11, .cls-12, .cls-13, .cls-14, .cls-15, .cls-16, .cls-17, .cls-18, .cls-19, .cls-20, .cls-21, .cls-22, .cls-23, .cls-24, .cls-25, .cls-26, .cls-27, .cls-28, .cls-29, .cls-30 {
        stroke-width: 0px;
      }

      .cls-2 {
        fill: #2f5b25;
      }

      .cls-3 {
        fill: #dbdbd8;
      }

      .cls-4 {
        fill: #f8a68d;
      }

      .cls-5 {
        fill: #274049;
      }

      .cls-6 {
        fill: #a6b8ba;
      }

      .cls-7 {
        fill: #5e9942;
      }

      .cls-8 {
        fill: #cae3b3;
      }

      .cls-9 {
        fill: #8b3a3a;
      }

      .cls-10 {
        fill: #8f9192;
      }

      .cls-11 {
        fill: #17282f;
      }

      .cls-12 {
        fill: #f0f7e7;
      }

      .cls-13 {
        fill: #d9866f;
      }

      .cls-14 {
        fill: #7ac151;
        opacity: .6;
      }

      .cls-15 {
        fill: #355460;
      }

      .cls-16 {
        fill: #fcfcfb;
      }

      .cls-17 {
        fill: #fafbfa;
      }

      .cls-18 {
        fill: #c4595a;
      }

      .cls-19 {
        fill: #80c345;
      }

      .cls-20 {
        fill: #111a1e;
      }

      .cls-21 {
        fill: #ba7663;
      }

      .cls-22 {
        fill: #c3c5c2;
      }

      .cls-23 {
        fill: #f05654;
      }

      .cls-24 {
        fill: #20363e;
      }

      .cls-25 {
        fill: #3b6a2e;
      }

      .cls-26 {
        fill: #fff;
      }

      .cls-27 {
        fill: #231f20;
      }

      .cls-28 {
        fill: #121d23;
      }

      .cls-29 {
        fill: #50853d;
      }

      .cls-30 {
        fill: #f58260;
      }
    </style>
  </defs>
  <path class="cls-12" d="M2401.6,2258.4c-227.8-15.1-456.3-16.7-684.3-5l-10.4,4.4c95.9,58.1,217,42.7,328.1,57.5,67,8.9,132.2,29.5,199.6,34.9,67.4,5.4,140.6-6.8,189.1-53.8,5.1-5,10.2-11.1,10.1-18.2-.4-13.9-18.3-18.8-32.2-19.8h0ZM3628.1,2323.3c-21.4-12.4-47.1-14.4-71.8-16.1-45.1-3.1-90.3-6.2-135.4-9.3-36.9-2.5-74.8-5-110.4,5.3-35.6,10.3-69,36.1-77.7,72.1l-.2,1.2c64.2,13.2,128.6,26.4,194,29.8,65.4,3.4,132.4-3.3,192.7-28.7,12.7-5.3,26.8-14.1,27.4-27.8.5-11.3-8.8-20.7-18.6-26.4M1018.9,2250.7c-21.4-12.4-47.1-14.4-71.8-16.1l-135.4-9.3c-37-2.5-74.8-5-110.4,5.3s-69,36.1-77.8,72.1l-.2,1.2c64.2,13.2,128.6,26.4,194,29.8,65.4,3.4,132.3-3.3,192.7-28.7,12.7-5.3,26.8-14.1,27.4-27.8.5-11.3-8.8-20.7-18.6-26.4"/>
  <path class="cls-8" d="M3926.7,548l-43.2,26.7s22.4,36.2-14.9,60.2c-19.4,12.4-37.4,5.9-47.6-1.4-11.8-8.4-18.4-22.3-18.5-36.9-.1-16.6,9.1-37.5,41.4-50.3l-60.2-97.3-42.7,26.4,35.3,57s-50.3,52.5-9.6,118.5c39,63.1,104.7,42.8,128.9,27.8,18.5-11.5,78.9-55,31-130.6M3703.1,415.1l43.3-26.8,25,40.5-43.3,26.8-25-40.5"/>
  <path class="cls-11" d="M3902.5,2188.2c0,.8-858.4,1.5-1916.9,1.5s-1917.1-.7-1917.1-1.5,858.2-1.5,1917.1-1.5,1916.9.7,1916.9,1.5Z"/>
  <path class="cls-23" d="M1446.2,1338.3v161.4h-366v688.7h-177.3V597.3h632v161.4h-454.7v579.6h366ZM1730.9,1715.6h354.7l-179.6-918.2-175.1,918.2h0ZM1708.2,1867.9l-61.4,320.5h-163.7l304.6-1591h256.9l304.6,1591h-177.3l-61.4-320.5h-402.4ZM2600.9,972.4v841c0,145.5,61.4,229.6,188.7,229.6s188.7-84.1,188.7-229.6v-841c0-143.2-59.1-229.6-188.7-229.6s-188.7,86.4-188.7,229.6h0ZM3155.6,981.5v822.8c0,97.7-20.5,184.1-61.4,247.7,18.2,38.6,47.7,50,97.8,50h22.7v156.8h-29.6c-100,0-166-36.4-202.3-102.3-50,29.6-115.9,47.7-193.2,47.7-243.3,0-363.8-159.1-363.8-400v-822.8c0-243.2,120.5-400,363.8-400s366,156.8,366,400h0Z"/>
  <path class="cls-7" d="M1008.4,2188.3h71.8v-687.8h-71.8v687.8ZM1446.2,1499.7h-71.8v-160.4h-366v-415.4c21.4-22.8,37.4-40.3,37.4-40.3l-5.3-4.8c21-28.9,37.6-55.2,37.6-55.2l-56-15.9-13.7,9.1v-57.1h71.8v578.6h366v161.4h0ZM1534.9,758.7h-71.8v-160.4h-553.3c0-.3-.1-.6-.2-.9h625.3v161.4M2296.3,2024.7c-.9-.8-1.8-1.6-2.8-2.4-12.2-9.7-27.1-16.3-42.9-20.5-7.9-2.2-16.2-3.1-24.5-3.5-7.6,0-15.4.4-23,1.9l-268.6-1402.8h-146.7,256.9l272.7,1424.3-21.1,3.1M1556.1,2188.4h-19.5l4.1-21.6c4.8,7.4,9.9,14.6,15.3,21.6ZM1677.1,2030.5c-22.7-6.6-43.4-9.5-61.8-9.5s-34.3,2.8-48,7.4l30.8-160.5h110.2l-31.1,162.6M1975.4,1715.6h-354.7l175.1-918.2,55.8,285.2-120.7,633h244.5M3214.7,2258.8h-29.6c-81.9,0-140.9-24.4-179.6-69.4-.7-.8-1.4-1.7-2.1-2.5-7.8-9.5-14.7-19.6-20.6-30.4-50,29.6-115.9,47.7-193.2,47.7s-82.7-5-118.2-14.7c-3.2-.9-6.5-1.8-9.7-2.8-157.6-47.5-235.9-188.5-235.9-382.6v-822.8c0-243.2,120.5-400,363.8-400s283,77.2,333.8,207.3c-38.1,86.2-108.7,284.9-102.5,314.7,5.8,27.9,67.1,77.2,103,102.4h0c0,1.2.3,68.3,15.4,102,4.1,9.1,9.7,17.8,16.4,26v470.3c0,97.7-20.5,184.1-61.4,247.7,18.2,38.6,47.7,50,97.8,50h22.7v156.8h0ZM2600.9,1813.3c0,145.5,61.4,229.6,188.7,229.6s188.7-84.1,188.7-229.6v-841c0-143.2-59.1-229.6-188.7-229.6s-188.7,86.4-188.7,229.6v841h0Z"/>
  <path class="cls-19" d="M1620.8,1715.6h354.7l-179.6-918.2-175.1,918.2h0ZM1598,1867.9l-61.4,320.5h-163.7l304.6-1591h256.9l304.6,1591h-177.3l-61.4-320.5h-402.4,0ZM1374.4,1339.2v161.4h-366v688.7h-177.3V598.3h632v161.4h-454.7v579.6h366ZM2490.7,970.9v841c0,145.5,61.4,229.6,188.7,229.6s188.7-84.1,188.7-229.6v-841c0-143.2-59.1-229.6-188.7-229.6s-188.7,86.4-188.7,229.6h0ZM3045.4,980v822.8c0,97.7-20.5,184.1-61.4,247.8,18.2,38.6,47.7,50,97.8,50h22.7v156.8h-29.6c-100,0-166-36.4-202.3-102.3-50,29.5-115.9,47.7-193.2,47.7-243.3,0-363.7-159.1-363.7-400v-822.8c0-243.2,120.5-400,363.7-400s366,156.8,366,400"/>
  <path class="cls-12" d="M2455.1,422.6h-882.3c-50,0-90.5-40.5-90.5-90.4s40.5-90.4,90.5-90.4h882.3c50,0,90.5,40.5,90.5,90.4s-40.5,90.4-90.5,90.4"/>
  <path class="cls-19" d="M1572.7,241.7c-50,0-90.5,40.5-90.5,90.4s40.5,90.4,90.5,90.4h155.7v-180.9h-155.7Z"/>
  <path class="cls-26" d="M1593.3,292.2c-19.7,0-35.7,16-35.7,35.7s16,35.7,35.7,35.7,35.7-16,35.7-35.7-16-35.7-35.7-35.7ZM1593.3,367.8c-22,0-39.9-17.9-39.9-39.9s17.9-39.9,39.9-39.9,39.9,17.9,39.9,39.9-17.9,39.9-39.9,39.9Z"/>
  <path class="cls-26" d="M1653.9,375l-30.7-24.2,2.7-3.4,30.7,24.2-2.7,3.4"/>
  <path class="cls-11" d="M2455.1,422.6s2-.2,6-.5c2,0,4.4-.3,7.3-.9l4.7-.8c1.6-.4,3.4-.9,5.3-1.4,7.4-2,16.6-5.4,26-11.7,10.9-7.2,20.1-16.6,26.9-27.8,4.1-6.1,7-13.4,9.6-21,2.2-7.8,3.8-16.3,3.8-25.2,0-8.9-1.1-18.2-3.9-27.5-3-9.6-7.6-18.6-13.5-26.7-12.2-16.7-31.6-30.4-54.8-34.9-11.5-2.5-23.8-1.5-36.4-1.7h-38.6c0,0-824.7.5-824.7.5-19.8.2-39.5,6.6-54.8,18.9-15.4,12-26.7,29.1-31.3,47.8-5,18.7-3.2,38.7,3.9,56.3,7.4,17.4,20.2,32.6,36.3,42,8,4.8,16.6,8.5,25.7,10.5,9.1,2.1,18.2,2.6,27.6,2.4,18.6,0,37.1,0,55.4,0,36.5,0,72.3,0,107.2,0l370.8.3,250,.5,68,.3h17.7c4,.2,6,.3,6,.3,0,0-2,.1-6,.2h-17.7c-15.6.2-38.5.3-68,.4-59.1.1-144.5.3-250,.5l-370.8.3h-107.2s-55.4,0-55.4,0c-9.2.2-18.9-.3-28.2-2.5-9.4-2-18.3-5.9-26.6-10.8-16.7-9.8-29.8-25.4-37.5-43.4-7.4-18.1-9.2-38.9-4-58.1,4.8-19.4,16.5-37,32.4-49.4,15.8-12.7,36.2-19.3,56.6-19.6,322,.2,613.6.3,824.7.4,13.2,0,26.1,0,38.6,0,12.5.2,24.9-.7,36.7,1.8,23.7,4.7,43.4,18.7,55.8,35.8,6,8.3,10.6,17.5,13.7,27.2,2.8,9.4,3.9,18.9,3.9,27.9-.1,9.1-1.8,17.6-4,25.5-2.7,7.8-5.7,15.1-9.9,21.3-7,11.2-16.3,20.8-27.4,27.9-9.6,6.3-18.8,9.6-26.3,11.6-1.9.5-3.7.9-5.3,1.3-1.7.2-3.3.5-4.7.7-2.9.5-5.4.7-7.4.7-4,.1-6,.1-6,.1"/>
  <path class="cls-26" d="M572.7,129.6H243.9v318.6h112.8l56.9,63.3,46.9-63.3h112.2V129.6"/>
  <path class="cls-11" d="M572.7,129.6s0,1.9.1,5.7c0,3.9,0,9.5.1,16.8,0,14.9.2,36.6.3,64.3.1,55.8.3,135.5.6,231.7v1.1h-113.3c0,.1,1-.4,1-.4l-46.9,63.3-.9,1.2-1-1.2c-18.1-20.2-37.3-41.5-56.9-63.3l1,.4c-26.5,0-54.4,0-82.7,0h-31.4v-1.3l.2-318.6v-1.1h1.1c98.9.2,181.2.4,238.9.6,28.6.1,51.1.2,66.6.3,7.6,0,13.4.1,17.5.1,3.9,0,5.9.1,5.9.1,0,0-2.1,0-6.2.1h-17.7c0,.1-66.9.4-66.9.4l-238.2.6,1.1-1.1.2,318.6-1.3-1.3h30.1c28.3,0,56.3,0,82.7,0h.6l.4.4,56.8,63.3h-2c0,0,47-63.2,47-63.2l.4-.5h112.9c0,.1-1.1,1.2-1.1,1.2l.6-231,.3-64.6v-17.1c.2-3.9.3-5.9.3-5.9"/>
  <path class="cls-19" d="M354.2,249h29.2s0-24.5,25.5-25c13.2-.2,20.1,8.4,22.9,15.1,3.2,7.7,2.3,16.5-2.1,23.7-5,8.2-15.8,15.6-35.5,12.1v65.9h28.9v-38.6s40.5-10.5,40.5-55.1-38.3-52.6-54.7-52.6-55.3,3-54.7,54.6M423.5,381.8h-29.3v-27.4h29.3v27.4Z"/>
  <path class="cls-15" d="M3498.6,1187.9c52.3,27.1,92.4,73.7,121.2,125.1,28.8,51.3,47.4,107.7,65.8,163.6l16.1,288.4c-60.8-103.5-109.7-225.2-122.9-344.5l40.5-3.6c-27.1-4.1-49.9-23.8-64.4-47.1-14.5-23.3-22-50.2-29.2-76.7,16.5,2.4,32.9,4.9,49.4,7.3-38.7-25.8-66.7-67.1-76.5-112.6"/>
  <path class="cls-1" d="M3701.8,1765c-60.8-103.5-109.7-225.2-122.9-344.5l40.5-3.6c-16.4-2.5-31.2-10.7-43.6-21.9-.7-21.1-2.2-41.8-4-60.6.8-1,1.6-2,2.3-2.9,11.9-16,16.3-38.8,15.1-65.2,11.3,14.8,21.5,30.4,30.6,46.6,28.8,51.3,47.4,107.7,65.8,163.6l16.1,288.5"/>
  <path class="cls-29" d="M3710.8,1832.6s132.1-158.1,130.6-308.9h-53.4s57.9-38.1,53.4-59.4c-4.6-21.3-6.1-102.1-6.1-102.1l-48.8,12.2s36.6-18.3,41.1-47.2c4.6-29-10.7-163.1-10.7-163.1,0,0-59.5,62.5-77.7,126.5s-66.3,138.7-52.2,333.8,23.8,208.3,23.8,208.3M3643.9,1847.5s-143.1-95.3-174.9-216.9l42.9-11.7s-54.9-17.9-55.9-36.1-17.4-83.4-17.4-83.4l41.9-.9s-33.4-6.7-43.4-29c-10-22.3-27.1-133.4-27.1-133.4,0,0,61.5,37.2,90.2,84.7,28.7,47.5,83.7,97,115,256.9,31.4,159.9,28.8,169.8,28.8,169.8"/>
  <path class="cls-11" d="M3780.9,1301.8s0,.6-.2,1.7c-.2,1.3-.5,2.9-.9,4.9-.9,4.5-2.1,10.8-3.7,18.8-1.7,8.2-3.7,18.2-5.8,29.8-2.2,11.6-4.9,24.9-7.4,39.6-5.4,29.3-11.2,64.4-17.2,103.3-5.8,39-11.7,81.9-16.9,127.1-5.2,45.2-9.3,88.4-12.5,127.7-3.1,39.3-5.4,74.8-6.9,104.5-.9,14.9-1.3,28.4-1.9,40.2-.6,11.8-.9,22-1.1,30.4-.3,8.2-.5,14.6-.7,19.2-.1,2.1-.2,3.7-.3,5,0,1.1-.1,1.7-.2,1.7s-.1-.6-.1-1.7,0-2.9,0-5c0-4.6,0-11,.1-19.2,0-8.3.3-18.6.6-30.4.4-11.8.7-25.3,1.4-40.2,1.1-29.8,3.3-65.3,6.2-104.7,3.3-42.7,7.4-85.3,12.3-127.8,5-42.5,10.7-84.9,17.2-127.2,6.1-39,12.1-74,17.8-103.3,2.7-14.7,5.4-27.9,7.8-39.5,2.3-11.6,4.5-21.6,6.3-29.8,1.8-8,3.2-14.3,4.3-18.8.5-2,.9-3.6,1.1-4.9.3-1.1.4-1.6.5-1.6"/>
  <path class="cls-2" d="M3729.1,1929.4s120.9-137.1,158.4-220l-28.3-12.1c20.5,3.4,41.6-5.4,57.5-18.8,15.9-13.4,27.6-31,39.1-48.4l-37.3-6.3c33.9-9.5,63.9-32.7,81.6-63.2-44,7.2-83.9,31.4-116.7,61.7-26.6,24.5-49.1,52.9-70.8,81.9-10.6,14.2-19.8,29.3-27.5,45.2-20.3,42-56,129.7-55.9,180"/>
  <path class="cls-29" d="M3467.1,1415.9c0,0,.3.4.8,1.3.6,1,1.2,2.3,2.1,3.9,1.9,3.6,4.5,8.6,7.8,15,6.8,13,16.2,32.1,27.6,55.7,22.7,47.3,52.3,113.6,81.2,188.3,28.9,74.8,51.6,143.7,66.6,194,7.5,25.2,13.4,45.6,17.1,59.8l4.3,16.3c.4,1.7.8,3.1,1,4.3.2,1,.3,1.5.3,1.5,0,0-.2-.5-.5-1.4l-1.3-4.2c-1.6-5.4-3.2-10.8-4.8-16.2-4.1-14.1-10.2-34.4-18-59.5-15.6-50.1-38.5-118.8-67.4-193.5-28.9-74.6-58.2-140.9-80.4-188.5-11.1-23.8-20.2-42.9-26.7-56.1-3.1-6.5-5.5-11.6-7.3-15.2l-1.8-4c-.4-.9-.6-1.4-.5-1.4M3718.9,1988.1c-.2,0,0-3.6.7-9.9.6-6.4,1.9-15.6,3.9-26.9,3.9-22.6,11.4-53.5,23.8-86.3,12.4-32.8,27.3-61,39.3-80.5,6-9.8,11.1-17.5,14.9-22.7,3.7-5.2,5.9-8,6-7.9.1.1-1.7,3.2-5.1,8.6-3.5,5.4-8.3,13.3-14,23.2-11.5,19.7-25.9,47.9-38.3,80.5-12.3,32.6-20.1,63.3-24.5,85.7-2.2,11.2-3.8,20.3-4.8,26.7-1,6.3-1.7,9.8-1.9,9.8h0Z"/>
  <path class="cls-19" d="M3559.4,2009.8h264.5v-53.9h-264.5v53.9h0ZM3798.7,2009.8l-28.6,181.5h-159.8l-26.7-181.4h215.1,0Z"/>
  <path class="cls-11" d="M3575.6,2009.8c0-.8,50.1-1.5,111.8-1.5s111.8.7,111.8,1.5-50,1.5-111.8,1.5-111.8-.7-111.8-1.5Z"/>
  <path class="cls-25" d="M309.8,1721.1c60.1-61.5,154.2-87.3,237.3-65.1-72.1,48.4-153.2,74.3-240.1,75M390.2,1436.2c-9.9-69.9,17.3-148.6,69.6-199.4,1.7,69.3-27.5,147.2-69.6,199.4h0ZM348.4,1568.2c37.3-71.3,98.5-129.8,171.5-163.8-21.9,80.5-90.7,146.3-172.1,164.6M339.7,1593.7c42.2,1.2,85-.3,125.8-11.1,40.8-10.8,80-31.6,107.1-63.9-82.2,0-164.1,25.1-232.3,70.9M361.2,1509.8c-21.4-80.3-56.8-135.9-120-180.9-4.8,39.1,4.8,79.8,26.6,112.6,21.8,32.8,55.5,57.5,93.4,68.3h0ZM201.7,1648.3c-1.1-46.7,29-92.5,72.2-110.1-3.5,41.5-36.1,89.5-72.2,110.1h0ZM181.6,1580.6c-4.8-67.1-52.5-129.2-116.1-151.1,14.6,67.1,53.4,123,116.1,151.1ZM212,1700.8c-14.9-21.3-39.2-34.6-64.4-41.1-25.2-6.6-51.4-7.2-77.4-7.7,35.1,38.6,87.7,60.5,139.8,58.2M242.1,1872c-46.9-14.5-99.1-10.7-143.4,10.3C54.5,1903.2,18.5,1941.2,0,1986.6c88-16.7,174.8-55.7,242.2-114.7h0ZM338.7,1812.5c-14.6,43.2-11.8,95.4,20.7,132.6,13.2-44.3,5.4-94.4-20.7-132.6h0ZM395.8,1788.5c4.1,55.5,39.6,107.7,89.8,131.8,2.5,1.2,5.4,2.3,7.9,1.3,4-1.6,4.3-7,3.8-11.2-6.4-55.3-47.4-108.8-101.5-121.9h0ZM433,1782.9c24.7,26.7,60.7,42.6,97.1,42.7,36.4.2,72.6-15.3,97.5-41.7-61.9-6.8-133.3-11.3-194.7-1"/>
  <path class="cls-11" d="M442.3,1288.3s-.1.6-.6,1.8l-1.9,5.2-7.5,20c-3.3,8.7-7.2,19.4-11.6,31.8l-7.2,19.9c-2.4,7.1-5,14.5-7.7,22.4-11,31.3-23.1,68.9-36.3,110.8-14,45.5-27.2,91.2-39.8,137.1-12.4,46-24,92.1-34.7,138.5-9.6,42.8-17.9,81.4-23.9,114.1l-4.4,23.2-3.5,20.8c-2.2,13-4.2,24.2-5.5,33.4l-3.2,21.1-.9,5.5c-.2,1.2-.4,1.9-.4,1.9,0,0,0-.6.1-1.9l.7-5.5c.7-5,1.6-12.1,2.8-21.2,1.1-9.2,2.9-20.4,5-33.4l3.4-20.8,4.2-23.3c5.8-32.7,13.9-71.4,23.5-114.3,10.7-46.4,22.2-92.6,34.6-138.6,12.5-45.9,25.9-91.6,40-137.1,13.3-41.8,25.6-79.4,36.8-110.7l7.9-22.3,7.4-19.8c4.6-12.4,8.5-23,12-31.6,3.4-8.5,6-15.2,7.9-19.9l2.1-5.2c.5-1.2.8-1.7.8-1.7"/>
  <path class="cls-11" d="M102.4,1465.3s.4.3,1.1,1l3,3.1c2.6,2.8,6.3,6.9,11,12.3,9.3,10.9,22.5,27,36.4,48.6,13.9,21.5,28.2,48.9,38.1,81.5,10.2,32.4,16.5,69.3,22.9,107.8,12.6,77.1,28,146.2,39.2,196.2l13.4,59.2,3.6,16.1.9,4.2c.2.9.3,1.4.2,1.4s-.2-.5-.5-1.4c-.3-1.1-.6-2.4-1.1-4.2l-4-16c-3.4-14.1-8.2-34.2-14.1-59-11.6-49.9-27.3-119-39.9-196.2-6.3-38.5-12.6-75.3-22.6-107.6-9.8-32.4-23.8-59.7-37.4-81.2-13.7-21.6-26.6-37.8-35.7-48.9-3.5-4.2-7.1-8.4-10.7-12.6l-2.8-3.3c-.6-.8-.9-1.1-.9-1.2M451.5,1780.2c0,0-.8.2-2.2.4-1.7.2-3.9.4-6.4.7-1.4.1-3,.3-4.6.5-1.7.3-3.5.5-5.5.8-3.9.6-8.4,1.2-13.3,2.2-2.5.5-5,1-7.7,1.5-2.6.7-5.4,1.4-8.2,2.1-5.7,1.3-11.6,3.4-18,5.3-12.4,4.4-25.8,10-39.2,17.2-13.3,7.4-25.1,15.9-35.1,24.4-4.9,4.4-9.6,8.6-13.5,12.9-4.2,4.1-7.5,8.4-10.7,12.3-3.3,3.8-5.6,7.7-7.9,10.9-2.4,3.2-4,6.2-5.4,8.6l-3.3,5.5c-.8,1.2-1.2,1.9-1.3,1.9s.2-.8.9-2.1l2.9-5.8c1.2-2.5,2.8-5.6,5.1-8.9,2.2-3.3,4.4-7.3,7.7-11.2,3.1-4,6.4-8.4,10.6-12.6,3.9-4.5,8.6-8.7,13.5-13.2,10.1-8.7,22-17.3,35.4-24.8,13.5-7.4,27-13,39.6-17.2,6.4-1.9,12.4-3.9,18.2-5.1l8.3-2,7.8-1.4c4.9-1,9.5-1.4,13.4-1.9,2-.2,3.8-.4,5.5-.6,1.7,0,3.2-.2,4.7-.2,2.6,0,4.7-.2,6.5-.3,1.5,0,2.3,0,2.3,0M469.1,1466.8c.1.1-1.5,1.6-4.5,4.3l-12.7,11.1c-14.1,12-28.3,23.9-42.6,35.8-14.3,11.8-28.6,23.6-43,35.2-5.3,4.2-9.7,7.7-13.2,10.5-3.2,2.4-5,3.7-5,3.6-.1-.1,1.5-1.7,4.5-4.3l12.7-11.1c10.8-9.2,25.9-21.9,42.6-35.8,16.7-13.9,31.9-26.3,43-35.2l13.2-10.5c3.1-2.4,5-3.7,5.1-3.6M484.3,1548.6c.2.6-32.3,10.8-72.6,22.7-40.3,11.9-73.1,21-73.2,20.4-.2-.6,32.3-10.8,72.6-22.7,40.3-11.9,73.1-21,73.2-20.4h0ZM364.4,1516c-.1,0-1.3-1.6-3.4-4.7-2.3-3.5-5.1-7.9-8.6-13.1-9.5-14.3-19.4-28.3-29.8-41.9-10.5-13.6-21.3-26.9-32.6-39.8-3.4-3.9-6.9-7.8-10.3-11.7-2.4-2.8-3.7-4.4-3.6-4.5.1-.1,1.6,1.3,4.3,3.8,2.6,2.6,6.4,6.4,10.9,11.2,11.7,12.6,22.8,25.8,33.3,39.5,12.2,16,22.4,31.2,29.3,42.5,3.5,5.6,6.2,10.2,7.9,13.5,1.8,3.2,2.7,5.1,2.6,5.1M251.5,1561.4c.3.2-2.8,4.9-7.6,12.5-6.3,9.9-12.4,20-18.3,30.2-5.8,10.2-11.4,20.6-16.6,31.1-4.1,8.1-6.6,13.1-6.9,12.9-.3-.1,1.7-5.4,5.4-13.7s9.2-19.5,16.1-31.6c6.9-12,13.7-22.6,18.9-30,5.2-7.4,8.8-11.8,9-11.6"/>
  <path class="cls-11" d="M212.9,1703c-.2.3-6.4-2.7-16.5-7.3-13.2-5.9-26.6-11.3-40.3-16.1-13.7-4.8-27.6-8.9-41.6-12.5-10.8-2.8-17.5-4.3-17.4-4.6,0-.2,1.8,0,4.8.5,3.1.5,7.5,1.3,13,2.5,10.9,2.3,25.9,6.3,42,11.9,16.1,5.6,30.2,11.9,40.2,16.9,5,2.5,9,4.6,11.7,6.2,2.7,1.6,4.2,2.5,4.1,2.6h0ZM243.3,1872.2c0,0-.7.3-2,.7-1.6.4-3.5.9-5.9,1.5-5.5,1.3-12.8,2.9-21.6,5-18.2,4.2-43.6,9.5-70.6,18.6-27,9.2-50.2,20.9-65.8,30.9-6.2,3.9-12.3,8.2-18.1,12.6-4.2,3.2-6.4,5-6.5,4.8,0,0,.4-.6,1.5-1.5,1-.9,2.5-2.3,4.5-4,4-3.4,10-8.1,17.8-13.3,15.6-10.5,38.8-22.5,66-31.8,27.2-9.2,52.7-14.2,71-18,8.9-1.7,16.2-3.2,21.8-4.2,5.1-1,8-1.4,8-1.3M353.2,1913.9c-.6,0-4.5-22.7-8.6-50.9-4.1-28.2-7-51.1-6.3-51.2.6,0,4.5,22.7,8.6,50.9,4.1,28.2,7,51.1,6.3,51.2M467.6,1872.4c-.3.2-4.1-4.6-10.3-12.2-8-10-16.2-20-24.4-29.8-8.3-9.8-16.7-19.6-25.2-29.2-6.5-7.4-10.5-12-10.3-12.3.1-.1,1.3.9,3.3,2.8,2.8,2.7,5.5,5.5,8.2,8.3,8.9,9.3,17.5,18.9,25.8,28.8,8.3,9.8,16.3,20,24,30.3,2.3,3.1,4.6,6.3,6.8,9.6,1.5,2.3,2.3,3.6,2.2,3.7"/>
  <path class="cls-19" d="M164.9,1978.5v56.5h14.1l50.3,158.6h111.4l48.7-157,18.9-1.6v-56.5h-243.4Z"/>
  <path class="cls-11" d="M398.8,2036.6c0,.7-49.2,1.2-109.9,1.2s-109.9-.5-109.9-1.2,49.2-1.2,109.9-1.2,109.9.5,109.9,1.2ZM479,1673c0,.2-2.5.8-7.1,1.9-5,1.2-11.6,2.8-19.6,4.7-21.5,5.3-42.7,11.5-63.7,18.5-21,7.1-41.6,15-62,23.7-7.5,3.3-13.7,6-18.4,8.1-4.3,1.9-6.8,2.9-6.9,2.8,0-.1,2.2-1.4,6.5-3.6,4.2-2.2,10.4-5.2,18.1-8.8,15.5-7.1,37.2-16.1,61.9-24.4,24.6-8.3,47.4-14.2,64-17.9,8.3-1.8,15.1-3.2,19.8-4,4.7-.8,7.3-1.2,7.3-1"/>
  <path class="cls-17" d="M361.8,2124.6c0,.6-34.5,1.2-77.1,1.2s-77.1-.5-77.1-1.2,34.5-1.2,77.1-1.2,77.1.5,77.1,1.2h0ZM366.1,2111.5c0,.7-36.6,1.2-81.7,1.2s-81.7-.5-81.7-1.2,36.6-1.2,81.7-1.2,81.7.5,81.7,1.2Z"/>
  <path class="cls-18" d="M3367.2,2246.4l2.5-63,109.9-4.1-1.7,77.1-39.9,24.1-70.7-34.1"/>
  <path class="cls-2" d="M3480.2,2242.1v7.2s121.9,50.3,123,73.6l-243.1-3.6,4.5-80.8c35.9,17.3,73.7,19.7,115.6,3.6h0Z"/>
  <path class="cls-6" d="M3391,2283.2c-4.2,0-8.3-3.1-9.2-7.3-1-4.5,1.9-9.3,6.1-10.9h0c.9-.5,1.9-.7,2.9-.7,3.9,0,8.2,3.1,9.4,6.8,1.6,4.6-2.6,10.8-7.4,11.9-.6.1-1.2.2-1.9.2h0Z"/>
  <path class="cls-16" d="M3603.3,2322.9l-243.1-3.6,243.1,3.6c-.1-3.2-2.6-6.9-6.7-10.9,3.1,2,7.6,5.9,6.7,10.9h0ZM3360.1,2319.3l1.1-19.4-1.1,19.4Z"/>
  <path class="cls-6" d="M3603.3,2322.9l-243.1-3.6,1.1-19.4,232.6,10.5s1.2.5,2.7,1.5c4.1,4,6.5,7.7,6.7,10.9"/>
  <path class="cls-11" d="M3481,2250c0,1.2-6,1.6-11.9,5.4-6,3.6-9.1,8.7-10.2,8.2-1.1-.2.8-7.3,8-11.7,7.2-4.4,14.3-2.9,14.1-1.8h0ZM3506.4,2260.9c.3,1.1-4.9,3.1-9,8.1-4.3,4.8-5.4,10.2-6.5,10.2-1.1.2-1.8-6.8,3.4-12.9,5.2-6.1,12.1-6.5,12.2-5.4h0ZM3520.4,2291.6c-1.1.2-2.6-5.7.5-12.2,3.1-6.5,8.7-9,9.2-8,.6,1-3,4.4-5.5,9.8-2.6,5.3-3,10.3-4.2,10.4"/>
  <path class="cls-18" d="M3220.2,2105.8l1.7,188.6,87-6.2,19.1-183.8-107.8,1.4h0Z"/>
  <path class="cls-2" d="M3311.9,2251.1s-61.1,42.4-90.9,5.9l-7.7,17.8-34.6,126.5c-2.2,8.2,1.7,17.2,9.8,20.3,6.2,2.4,13.1,1,17.8-3.4,25.1-23.4,117.2-109.9,116.2-121.5l-.4-31.1c0-6.4-4.2-12.2-10.4-14.5"/>
  <path class="cls-26" d="M3195.3,2422.8c-1.2,0-2.4-.1-3.6-.4,1.1.2,2.1.3,3.2.3,4.3,0,8.4-1.6,11.6-4.5,13.7-12.8,27.4-25.7,40.9-38.7h.2c-13.4,13-27,25.9-40.6,38.7-3.2,2.9-7.3,4.6-11.7,4.6h0Z"/>
  <path class="cls-16" d="M3247.6,2379.5h-.2c25.9-25,55.3-54.3,68.4-71-8.7,11.1-28.3,32.4-68.2,71h0Z"/>
  <path class="cls-16" d="M3317.4,2306.4c1.8-2.3,3.1-4.3,4-6h.1c-1,2.1-2.5,3.9-4.1,6h0Z"/>
  <path class="cls-26" d="M3322.7,2296.3v-10.3c-.1,0,0-.2,0-.2v6.8c.1,1.4,0,2.6,0,3.7Z"/>
  <path class="cls-6" d="M3194.9,2422.7c-1.1,0-2.1-.1-3.2-.3h0s130.9-136.4,130.9-136.4v10.3c0,1-.2,2-.5,2.9-.2.4-.4.8-.6,1.2-.9,1.6-2.2,3.7-4,6-.3.4-.6.8-.9,1.2l-.8,1c-13.1,16.6-42.6,46-68.4,70.9-13.5,13-27.1,25.9-40.9,38.7-3.1,2.9-7.3,4.5-11.6,4.5M3308.9,2282.8c-3.2,0-6.5-1.5-8.3-4.2-2.5-3.9-1.5-9.4,2.1-12.4,1.4-1.5,3.5-2.1,5.7-2.1,3.1,0,6.5,1.4,8.4,3.6,3.1,3.8,1.3,11-2.9,13.7-1.5.9-3.2,1.4-4.9,1.4"/>
  <path class="cls-11" d="M3229.4,2352.5c-.9.4-4.6-8-14.4-12.5-9.6-4.8-18.7-2.6-18.9-3.6-.1-.4,1.9-1.6,5.8-2.1,3.8-.5,9.4,0,14.7,2.6,5.4,2.6,9.1,6.6,11,9.8,1.9,3.3,2.2,5.7,1.8,5.8M3217.6,2373.9c-.8.7-6.1-4.5-14.6-6.9-8.4-2.6-15.8-1.1-16.1-2.1-.5-.8,7.4-4.2,17.1-1.3,9.7,2.8,14.4,9.9,13.5,10.3M3251.2,2325.1c-.8.8-8.8-7.3-21.7-12.1-12.8-5-24.4-4.5-24.4-5.6-.3-.9,12-3.1,25.7,2.3,13.8,5.2,21.2,15,20.4,15.4ZM3254.1,2286.6c-.4,1-9.5-2.8-21.3-3.2-11.8-.6-21.2,2.3-21.6,1.3-.4-.8,9-5.4,21.7-4.8,12.7.5,21.7,6,21.2,6.7"/>
  <path class="cls-1" d="M3226,2283.1c-.2,0-.2-2.2.9-6,1.1-3.7,3.3-9.1,7.8-14.7,2.3-2.6,4.8-6,9.7-7.3,2.4-.6,5.7.4,7.2,2.8,1.5,2.4,1.6,5.1,1.2,7.6-2.1,10-12.7,18-24.5,17.4-11.8-.9-21.1-9.2-24-18.6-.6-2.4-.8-5.3,1-7.7,1.8-2.5,5.2-2.9,7.5-2.1,4.7,1.6,7.2,4.8,9.6,7.3,3.7,4.2,6.7,9,8.7,14.2,1.4,3.7,1.6,5.8,1.4,5.9-.6.3-2.6-8.5-12.1-18.4-2.4-2.3-5.1-5.2-8.6-6.2-1.6-.5-3.2,0-4.1,1.1-.9,1.2-.9,3.2-.4,5.1,2.5,7.8,11,15.4,21,15.9,9.9.6,19.3-6.5,21.1-14.5.4-1.9.2-4-.6-5.3-.8-1.3-2.4-1.9-4-1.6-3.4.7-6.1,3.6-8.4,6-9,10.3-10,19.4-10.7,19.1M3509.6,1144.4l1.9,20.8,50.8,91s22.7,136.7,10.7,227.8c-14.9,113-34.2,276.6-41,354.9-4,46.3-44.9,388.4-44.9,388.4l-123.9-1.2s6.5-372.1,8.1-442.1c1.2-54.9-3.2-291.5-3.2-291.5l-5.3-314.1,155.8-39.2-8.9,5.2"/>
  <path class="cls-1" d="M3328.4,2232.1l39.2-762.1,23.2-293.9-174.8-46.2-6.3,36.3s-63.9,157.5-61.7,203.7c6,129.5,22.1,461.7,22.1,461.7l40.2,398.1,118.1,2.5"/>
  <path class="cls-15" d="M3374.5,1202c-.1,0-.3,1-.5,2.9-.2,2.2-.4,5-.7,8.3-.6,7.2-1.2,17.7-1.7,30.6-1.1,25.8-1.9,61.6-2.5,101l-1.6,101-.7,30.6c0,3.3-.1,6.1-.2,8.3,0,1.9,0,2.9.2,2.9s.3-1,.5-2.9l.7-8.3c.6-7.2,1.2-17.7,1.7-30.6,1.1-25.8,1.9-61.6,2.5-101l1.6-101c.3-12.6.5-22.9.7-30.6l.2-8.3c0-1.9,0-2.9-.1-2.9M3174.8,1273.2c0,.2,1.6.8,4.6,1.8,1.5.5,3.4,1.1,5.6,1.4,2.2.4,4.7,1.1,7.6,1.3,5.7.8,12.5.9,20.1.4,8.2-.8,16.3-2.5,24.1-5,7.8-2.7,15.2-6.2,22.3-10.5,6.4-4.1,11.8-8.3,15.8-12.4,2.1-1.9,3.8-3.9,5.3-5.6,1.6-1.7,2.7-3.2,3.6-4.5,1.9-2.6,2.8-4.1,2.6-4.2-.5-.4-4.6,5.3-13,12.7-4.2,3.7-9.5,7.7-15.8,11.5-6.9,4.1-14.2,7.4-21.8,10-7.6,2.5-15.4,4.2-23.4,5.1-7.3.7-14,.8-19.6.3-11.2-.9-17.9-2.9-18.1-2.3M3494.2,1214.3c-.3.2,1.4,4.7,5.6,11.3,4.2,6.6,11.1,15,20.6,22.3,9.4,7.3,19.3,12,26.7,14.4,7.4,2.4,12.2,3,12.3,2.6.4-1-18.7-5-37.1-19.5-18.6-14.2-27.2-31.7-28-31.1M3415.5,1890.3c.2.4,6.1-2.1,15.3-6.8,9.2-4.7,21.7-11.7,34.9-20.2,13.3-8.5,24.8-17,32.9-23.4,8.1-6.4,12.8-10.8,12.6-11.1-.3-.3-5.5,3.4-13.9,9.3-10.9,7.8-22,15.3-33.2,22.6-11.3,7.2-22.7,14.2-34.3,20.8-8.9,5.2-14.4,8.3-14.2,8.7"/>
  <path class="cls-17" d="M3283.2,673.1l139.6-10.9,53.9,38.9-33.7,321.3,44.6,157.5h-249.9l-32.2-289.6,77.6-217.2"/>
  <path class="cls-29" d="M3123.8,1205.9c-35.9-25.2-97.2-74.6-103-102.4-7.6-36.7,100.9-328.5,122.2-352.9,21.4-24.5,122.4-71.7,122.4-71.7l5.6-9.2c6.1-9.9,15.3-29.9,26.9-29.9l1.7,14,2.1,30.3c2.7,15.7,14.5,88.1,27.8,125.6,12.2,34.5,18.6,70.8,19,107.4,1.1,113.2,2.9,359.9-.6,392.7-4.6,42.8-23.6,125.7-23.6,125.7,0,0-150.5-49.6-185.3-127.5-15.2-34-15.4-102-15.4-102M3709.8,1036.8s-69.7-195.8-91.3-257c-18.9-53.7-59.3-66.4-59.3-66.4l-95.2-35.7c-3.8-14.6-21.9-26.9-35.9-30.8l-9-4-10.4,13.7s21.6,19.6,24.7,39.5c1.7,11.2,8.1,55.6-1.3,84.8-9.7,30.2-15.2,61.7-16.6,93.4-2.8,65.4-5.8,173.8,2.6,212.3,12.2,56.5,49.4,330.2,49.4,330.2,0,0,85.4-56.7,106.6-85.3,25.3-34.2,16.6-99.2-7.4-165.1-1.1-3.1-.9-1.6-.4,0,.4,1.6,1,3.2.4,0,2.5,1.1,5,2,7.5,2.6,50.1,11.5,67.1,23.6,117.9-19.8,50.9-43.4,17.7-112.5,17.7-112.5"/>
  <path class="cls-11" d="M3265,722.5c.1.4-6.8,2.3-17.7,5.9-14.2,4.7-28.1,10.3-41.5,16.8-13.4,6.6-26.4,14-38.8,22.3-9.6,6.3-15.3,10.6-15.5,10.3-.1-.2,1.2-1.4,3.6-3.5,2.4-2.1,6.1-5,10.8-8.4,9.3-6.8,22.9-15.4,38.8-23.1,15.9-7.7,31-13,42.1-16.2,5.6-1.6,10.1-2.7,13.3-3.3,3.2-.6,4.9-.9,5-.7M3566.1,764.3c-.2.3-4.4-2.8-11.4-7.5-9-6.2-18.3-11.9-27.8-17.2-9.6-5.2-19.4-10-29.5-14.2-7.7-3.3-12.6-5.2-12.4-5.5.1-.3,5.2.9,13.1,3.8,8,2.8,18.7,7.5,30.1,13.7,11.3,6.2,21,12.8,27.7,18,6.7,5.2,10.5,8.8,10.2,9h0ZM3277.2,1175.8c.2,0,.1,2-.1,5.5-.1,2.2-.4,4.3-.9,6.4-.5,2.5-.9,5.4-2,8.4-.9,3.1-1.9,6.4-3.5,9.8-1.3,3.5-3.3,7-5.3,10.8-4.7,7.9-10.4,15.2-16.9,21.7-6.6,6.4-14.1,11.9-22.1,16.4-3.8,1.9-7.3,3.8-10.9,5.1-3.5,1.5-6.8,2.5-9.9,3.3-3.1,1-5.9,1.3-8.4,1.8-2.5.5-4.7.7-6.5.7-3.6.2-5.5.2-5.5,0,0-.6,7.9-.7,19.9-4.4,3-.9,6.3-2,9.6-3.5,3.4-1.3,6.9-3.3,10.5-5.2,7.7-4.5,14.9-10,21.4-16.2,6.3-6.3,11.9-13.4,16.6-21,2-3.6,4-7,5.4-10.4,1.6-3.3,2.7-6.6,3.7-9.5,3.9-11.9,4.2-19.9,4.8-19.8M3157.6,828.3c-.7.2-4.5-14.6-8.4-33-3.9-18.4-6.5-33.4-5.8-33.6.7-.2,4.5,14.6,8.4,33,3.9,18.4,6.5,33.4,5.8,33.5h0ZM3590.1,754.4c.6.6-10,11.1-18.8,27-8.9,15.8-12.4,30.4-13.2,30.1-.3,0,.1-3.8,1.8-9.6s4.6-13.7,9.1-21.8c4.5-8.1,9.7-14.8,13.8-19.2,4.1-4.5,7.1-6.8,7.3-6.5M3670.6,1038c-.1.1-2.1-1.9-5.4-5.6-2-2.3-4-4.5-6.2-6.6-2.5-2.5-5.1-5.5-8.4-8.5-6.3-6.2-14.3-13.2-23.5-20.4-10.1-7.7-20.6-14.8-31.6-21.3-11-6.3-22.4-11.9-34.2-16.8-10.9-4.4-20.9-7.8-29.4-10.2-4.2-1.3-8.2-2.2-11.6-3.1-2.9-.8-5.9-1.5-8.8-2-4.9-1-7.5-1.7-7.5-1.9,0-.2,2.8.1,7.7.9,2.5.3,5.5.8,8.9,1.6,3.5.8,7.4,1.5,11.8,2.7,8.7,2.2,18.8,5.4,29.8,9.7,11.9,4.8,23.5,10.4,34.6,16.7,11.1,6.5,21.7,13.7,31.8,21.7,9.2,7.4,17.1,14.6,23.3,21,3.2,3.1,5.8,6.2,8.2,8.8,2.1,2.2,4,4.6,5.9,7,3.1,3.9,4.7,6.1,4.6,6.2"/>
  <path class="cls-11" d="M3550.9,852.6c.7,0,4.1,23.4,7.5,52.5,3.4,29.1,5.6,52.7,4.9,52.8-.7,0-4.1-23.4-7.5-52.5s-5.6-52.7-4.9-52.8M3567.8,1166.9c-.1.2-2.4-1.2-6.4-3.7-3.9-2.7-9.7-6.6-16.1-12.1-6.5-5.6-13.9-12.7-20.5-21.9-6.7-9.2-12.5-20.3-16.9-32.7-2.1-6-4-12.1-5.5-18.2-1.4-6.1-2.1-11.9-3.3-17.4-2-10.9-6-20.3-11.8-26.3-5.7-6.1-11.9-9.3-16-11.4-4.3-1.8-6.8-2.9-6.7-3.1,0-.2,2.6.5,7.1,2.1,4.4,1.9,10.9,4.8,17,11.1,6.3,6.1,10.7,16,12.9,27.1,1.2,5.5,2,11.4,3.4,17.2,1.5,6.1,3.4,12.1,5.5,17.9,4.3,12.1,9.9,23.1,16.4,32.1,6.4,9.1,13.5,16.3,19.7,21.9,6.2,5.7,11.8,9.8,15.5,12.7,3.8,2.8,5.9,4.4,5.8,4.6"/>
  <path class="cls-18" d="M3215.1,1165.7s-55.6,23.9-37.5,53.2c12.5,20.2,38.2,38.3,38.2,38.3,26-14.9,44.3-30.5,57-59.3l-57.7-32.2h0Z"/>
  <path class="cls-11" d="M3123.8,1205.9c.1-.2,3.6,2.5,10.8,6,10.5,4.8,21.7,7.6,33.2,8.1l-.8.7c1.4-10,6.2-21.1,14.4-30.9,8.3-9.8,19.5-18.7,33.1-25.2h-.1c3.1-1.9,6-4.8,8.1-8.2,2-3.4,3.9-7.4,3.3-11.1-.8-3.9-3.2-7.5-6.1-10.8-2.9-3.3-6.2-6.3-9.8-8.9h-.1c0-.1-.1-.2-.1-.2-5.2-6.1-10.3-12.7-14.6-20-4.2-7.3-8.3-14.7-13.6-21.4-2.2-2.9-4.5-5.7-6.9-8.5-2.4-2.9-4.4-5.9-6.5-8.8-4-5.8-7.9-11.8-11.7-17.8l-.2-.3v-.3c-1-12.9-1.7-25.5-1.2-37.6l2-34.4,3.5-57.4c1.1-16,1.9-28.9,2.5-38,.3-4.3.6-7.7.8-10.2.2-2.3.4-3.5.4-3.5s0,1.2,0,3.6c0,2.5-.2,6-.4,10.2l-1.8,38.1c-.8,16.3-1.8,35.7-2.9,57.4l-1.8,34.4c-.5,11.9.3,24.4,1.3,37.3l-.2-.6c3.8,6,7.7,11.8,11.7,17.7,2.1,2.9,4.1,5.9,6.4,8.7,2.3,2.8,4.7,5.7,6.9,8.6,5.4,6.9,9.6,14.5,13.7,21.7,4.2,7.2,9.1,13.6,14.3,19.7l-.2-.2c3.8,2.8,7.2,5.9,10.3,9.3,3,3.4,5.7,7.3,6.6,12.1.3,2.3,0,4.7-.8,6.9-.8,2.1-1.7,4.1-2.9,5.9-2.4,3.7-5.3,6.7-9,9h-.1c-13.2,6.2-24.4,14.9-32.5,24.3-8.1,9.5-12.8,20.2-14.4,29.8v.7c-.1,0-.8,0-.8,0-15.1-1-26.4-5.4-33.6-9-3.6-1.8-6.2-3.5-7.9-4.8s-2.6-1.9-2.5-2"/>
  <path class="cls-11" d="M3157.5,1051c-.1.4-3.6-.3-9.4-.4-5.7-.1-13.6.7-21.8,3.8-8.1,3.1-14.6,7.7-18.8,11.6-4.2,3.9-6.3,6.8-6.7,6.5-.2-.2,1.4-3.5,5.4-7.9,4-4.4,10.7-9.5,19.2-12.7,8.5-3.2,16.9-3.8,22.8-3.2,5.9.6,9.3,2.1,9.2,2.3M3318,1264c.2.4-4.1.9-6.7,6.1-1.2,2.4-1.9,6-.5,9.2,1.3,3.2,5.2,5.3,9.4,5.1,4.1-.2,7.8-2.6,8.8-5.9,1.1-3.3.1-6.8-1.3-9.1-3.1-4.9-7.4-5-7.2-5.4,0-.1,1-.4,2.7,0,1.7.4,4.1,1.7,6.1,4.3,1.9,2.6,3.4,6.6,2.1,10.9-1.2,4.5-6.1,7.7-11.1,7.9-5,.3-10.1-2.5-11.7-6.8-1.7-4.2-.5-8.4,1.1-11.1,1.7-2.8,4-4.3,5.6-4.8,1.7-.6,2.7-.4,2.7-.3h0ZM3326.7,1190c.2.4-4.1.9-6.7,6.1-1.2,2.4-1.9,6-.5,9.2,1.3,3.2,5.2,5.3,9.4,5.1,4.1-.2,7.8-2.6,8.8-5.9,1.1-3.3.1-6.8-1.3-9.1-3.1-4.9-7.4-5-7.2-5.4,0-.1,1-.4,2.7,0,1.7.4,4.1,1.7,6.1,4.3,1.9,2.5,3.4,6.6,2.1,10.9-1.2,4.5-6.1,7.7-11.1,7.9-5,.3-10.1-2.5-11.7-6.8-1.7-4.2-.5-8.4,1.1-11.1,1.7-2.8,4-4.3,5.6-4.9,1.7-.6,2.7-.4,2.7-.3"/>
  <path class="cls-1" d="M3085.2,1082.5c-2.4,0-4.7-.7-6.3-2.4-3.9-3.9-2.4-10.5.1-15.4,6.8-13.2,19.6-23.1,34.1-26.4,3.7-.8,7.5-1.3,11.3-1.3,11,0,22.1,3.5,30.9,10.1l-2.1-1.2,4,4,.3.5c-.4,0-.7,0-1.1,0-1.4-.6-4.3-1.3-8.2-1.7-1.5-.2-2.9-.2-4.4-.2-5.3,0-11.8.9-18.4,3.4-8.5,3.2-15.2,8.4-19.2,12.7-4,4.4-5.6,7.7-5.4,7.9,0,0,0,0,0,0,.5,0,2.6-2.8,6.7-6.5,4.2-3.9,10.7-8.5,18.8-11.6,7-2.6,14.3-3.9,21.8-3.8,1.1,0,2.2,0,3.2.1-18.8,1.6-36.9,9.7-50.6,22.6-3.1,2.9-6.1,6.1-9.9,8-1.8.8-3.6,1.3-5.6,1.3h0Z"/>
  <path class="cls-20" d="M3157.5,1050.4l-.3-.5.5.5h-.2M3100.9,1072.4s0,0,0,0c-.2-.2,1.4-3.5,5.4-7.9,4-4.4,10.7-9.5,19.2-12.7,5.9-2.2,12.1-3.4,18.4-3.4,1.6,0,3.1,0,4.4.2,3.9.4,6.8,1.2,8.2,1.7-1.7,0-3.4.1-5.1.3-1.5,0-2.9-.1-4.4-.1-5.6,0-13,.9-20.6,3.8-8.1,3.1-14.6,7.7-18.8,11.6-4,3.7-6.2,6.5-6.7,6.5h0Z"/>
  <path class="cls-1" d="M3551.4,1177c-6.4,0-12.5-3.1-17.9-6.7-27.9-19-42.2-53-47-86.4-2.1-14.4-4-31.2-16.6-38.6-5.3-3.1-11.3-3.7-17.6-3.7s-4.3,0-6.4.2c-2.1,0-4.3.1-6.4.1s-1.1,0-1.6,0c-10.9-.2-23.9-11.9-24.6-22.7,8.7-.5,16.4-.8,23.4-.8,13.7,0,24.4,1.2,33,4.2l1.3.6c4.2,2.1,10.4,5.3,16,11.4,5.9,6,9.8,15.4,11.8,26.3,1.1,5.5,1.9,11.3,3.3,17.4,1.5,6.2,3.4,12.2,5.5,18.2,4.4,12.3,10.2,23.5,16.9,32.7.9,1.3,1.9,2.6,2.9,3.8,3.2,4.6,6.9,8.8,11.1,12.2,2.1,2,4.3,4,6.5,5.9,6.5,5.6,12.2,9.4,16.1,12.1,1.3.8,2.5,1.6,3.4,2.1l1.4,1.2c-1.4,6.3-8.2,10.4-14.7,10.4h-.1ZM3514.9,1106.7c-1.6-3.7-3.1-7.4-4.5-11.2-2.1-5.9-3.9-11.9-5.5-17.9-1.2-5-2-10.1-2.9-14.9,3,9.6,5.2,19.6,8.1,29.1,1.5,5,3.1,10,4.8,14.9"/>
  <path class="cls-20" d="M3564.8,1165.3c-.9-.6-2.1-1.3-3.4-2.1-3.9-2.7-9.7-6.6-16.1-12.1-2.2-1.9-4.4-3.9-6.5-5.9,1.3,1.1,2.7,2.1,4.2,3.1,7,4.6,18,13.8,21.9,17.1h0ZM3527.6,1132.9c-1-1.2-1.9-2.5-2.9-3.8-6.7-9.2-12.5-20.3-16.9-32.7-2.1-6-4-12.1-5.5-18.2-1.4-6.1-2.1-11.9-3.3-17.4-2-10.9-6-20.3-11.8-26.3-5.7-6.1-11.9-9.3-16-11.4l-1.3-.6c11.6,4.1,19.4,11.6,25.9,24.5,2.5,5,4.5,10.3,6.2,15.7.9,4.8,1.7,9.9,2.9,14.9,1.5,6.1,3.4,12.1,5.5,17.9,1.4,3.9,2.9,7.6,4.5,11.2,3.3,9.3,7.3,18.4,12.7,26.2"/>
  <path class="cls-11" d="M3420.9,1076.9c0,0,.4-1.4,1.4-3.9l4.6-10.9c2.2-4.7,4.1-10.7,6.7-17.6,2.7-6.8,5.1-14.8,7.9-23.6,11.1-35.2,22-85.2,28.8-141.2,6.4-56,7.1-107.3,2.8-143.9-1.1-9.2-1.9-17.5-3.5-24.6-1.5-7.2-2.2-13.5-3.9-18.4l-3.2-11.5c-.7-2.6-1-4-.9-4.1.1,0,.6,1.3,1.5,3.9l3.7,11.3c1.9,4.9,2.7,11.2,4.4,18.4,1.8,7.2,2.7,15.5,4,24.7,4.9,36.8,4.4,88.3-2,144.5-6.8,56.1-18.2,106.3-29.8,141.5-2.9,8.8-5.4,16.8-8.3,23.6-2.8,6.8-4.8,12.8-7.2,17.4l-5.2,10.8c-1.2,2.4-1.9,3.7-2,3.7"/>
  <path class="cls-18" d="M3492.9,957.8c-3.8-9.7-5.8-20.1-5.9-30.6,0-6.3-.2-12.8-2.3-18.7-2.1-5.9-8.8-11.5-14.9-10l-2.2,46.2,25.3,13"/>
  <path class="cls-1" d="M3472,851.5l-7.5,159.4c-.2,3.4-2.8,6.2-6.2,6.5l-80.9,8.4c-3.8.4-7.2-2.4-7.6-6.2,0-.3,0-.5,0-.8l2.8-154.1c0-3.3,2.5-6.1,5.8-6.7l85.7-13.7c3.8-.6,7.3,2,7.9,5.7,0,.5.1.9,0,1.4h0Z"/>
  <path class="cls-17" d="M3415.8,884c.7-2.1,2.5-4.7,5.8-4.2,1.3,0,4,1.4,4.4,3.6.5,2.1-.4,4.5-2.1,5.8-1.7,1.3-4.3,1.5-6.1.4-1.9-1.2-2.8-3.6-2.1-5.7h0Z"/>
  <path class="cls-18" d="M3436.8,914.7c1.9.2,46.4,14.9,46.4,14.9l25.1,19.2s9.8,11.9,6.8,33.3c-3,21.4-12.2,30.2-34.9,39.8h-45.8s-25.5-14.9-25.5-14.9c-5-3-7.8-8.7-6.9-14.4v-1c.1,0-3.1-3.9-3.1-3.9-2-2.4-2.4-5.8-1-8.7,2-3.8,6.7-5.4,10.6-3.4l28.4,14.6,17.9-.5,1.7-6.2-27.8-9.3-36.7-20.1c-4.7-2.6-6.4-8.5-3.9-13.2,2.4-4.3,7.6-6.2,12.1-4.4l33.2,13,33.9,9-7-11.8-41.6-21.7s-5-12.7,18.2-10.6"/>
  <path class="cls-9" d="M3508.2,948.8c-.4.6-11.9-7.5-25.9-18.2l.4.2c-.5-.2-1.1-.4-1.7-.5-17.5-5.7-31.5-10.9-31.3-11.6.2-.7,14.6,3.4,32.1,9.1l1.7.5h.2c0,0,.2.2.2.2,13.9,10.8,24.7,19.7,24.2,20.3M3466.8,1006.1c.1.3-3.4,1.9-9.4,3.7-5.9,1.7-15.2,3.6-24.6,0-4.6-1.7-8.6-4-12.2-5.9l-9.5-5.3c-5.4-3.1-8.6-5.2-8.5-5.5.2-.3,3.7,1.2,9.4,3.8,3.1,1.5,6.4,3.1,9.8,4.8,3.7,1.8,7.6,4,11.9,5.6,8.6,3.4,17.2,1.9,23.2.7,6-1.3,9.8-2.3,9.9-1.9"/>
  <path class="cls-1" d="M3346.6,1072.4c-.1,0-.7-1.2-1.9-3.7-1.2-2.8-2.8-6.4-4.8-10.9-4.1-9.5-9.8-23.4-16.4-40.7-13.2-34.6-29.6-83.3-42.5-138.4-6.6-27.5-11.1-54.2-14.4-78.5-1.3-12.2-2.8-23.8-3.3-34.7l-.9-15.8v-14.6c-.4-9.3.2-17.7.7-25l.6-10.2c.4-3.1.8-6,1.1-8.6l1.7-11.8c.4-2.7.7-4.1.8-4.1.1,0,0,1.5-.2,4.2-.3,3-.7,6.9-1.2,11.9l-.9,8.5-.4,10.2c-.3,7.3-.8,15.7-.4,24.9l.3,14.5,1.1,15.7c.5,10.8,2.2,22.4,3.5,34.5,3.4,24.2,7.9,50.7,14.6,78.2,12.9,54.9,29,103.5,41.6,138.3,6.3,17.4,11.7,31.4,15.4,41,1.8,4.6,3.2,8.3,4.3,11.1,1,2.6,1.4,3.9,1.3,3.9M3592.2,1278.2c.2.1-1.1,2.1-3.6,5.7-2.4,3.6-6.2,8.5-11,14.5-9.7,11.9-24.2,27.5-42.2,42.7-18,15.1-35.9,26.7-49.3,34.2-6.7,3.8-12.2,6.6-16.2,8.3-3.9,1.8-6.1,2.7-6.2,2.5,0-.2,1.9-1.4,5.6-3.5,5.3-2.9,10.5-6,15.6-9.1,17-10.3,33.2-21.9,48.5-34.6,15.2-12.8,29.4-26.8,42.5-41.7,4-4.5,7.9-9.1,11.7-13.8,2.7-3.3,4.3-5.1,4.5-4.9M3328.9,1411.3c0,.2-3.2-.8-8.8-2.7-5.6-1.8-13.7-4.9-23.5-8.9-19.6-8-46.1-20.6-73.8-37.4-27.6-16.8-51-34.6-67.1-48.4-8.1-6.9-14.4-12.6-18.6-16.8-4.3-4.1-6.5-6.5-6.4-6.6.1-.2,2.7,1.9,7.2,5.8,6.3,5.4,12.7,10.8,19.2,16,21.4,17.3,43.9,33.1,67.3,47.5,23.5,14.2,47.9,26.9,73.1,38,7.6,3.4,15.3,6.6,23,9.7,5.5,2.2,8.5,3.5,8.4,3.7M3445.6,306.4c6.5-3.8,11.1-10.7,12-18.2.9-7.6-1.7-15.2-7.1-20.6-4.2-4.1-9.7-6.8-13.6-11.2-3.2-3.6-5-8.3-7.5-12.5-8-13.4-23.2-21.9-38.8-23.1-15.6-1.2-31.3,4.4-43.7,13.9-4.9,3.8-9.6,8.3-15.6,10-5.8,1.6-11.9.4-18,.4-14.3.1-28.2,8.3-35.3,20.7-7,12.4-6.9,28.6.4,40.9-15.4,5.7-25.3,23.4-22.3,39.5,3,16.1,18.7,28.9,35.1,28.7,10.1-.1,19.6-4.6,28.9-8.7,37.6-16.7,77-29,117.4-36.7"/>
  <path class="cls-19" d="M3283.3,558.3c-19.6-21.7-31.2-50.5-32.1-79.7-.9-29.2,4-65.7,22.2-88.6-12.5-13.8-7.2-28.9,1.9-45.1,9.1-16.2,25.3-27.3,42-35.4,25-12.1,52.3-18.9,80.1-20,22.6-.8,52.7,3.2,55.6,19.5,3.1,17-8,24.5-8,24.5,0,0,22.4,6.5,41.9,25.4,28.1,27.2,38.9,54.6,35,85-3.9,30.4-10.6,54.1-29,73.3"/>
  <path class="cls-2" d="M3474.6,552.9c3-3,7.2-5.7,11.4-6.9h-.9c.8-.3,1.6-.3,2.4-.4,3.1-.6,6.1-.3,8.7,1.4h0c4.7,1.9,8.8,5.6,10.9,10.2,3.7,8.1,1.8,18.2-3.9,25-4.9,6-13.2,9.7-20.6,7.5-6.8-2-11.7-8.4-13.4-15.3-1.8-7.5-.1-16.2,5.4-21.6"/>
  <path class="cls-18" d="M3301.9,684l-18.1-260.9c0-11.8,8.9-21.7,20.6-22.8l121.1-29c38.7-3.6,63.9,44.3,65.8,83.1,2.2,43.1,3.2,95.9-2.3,128-11.1,64.5-60.2,72.1-60.2,72.1l.4,39-44.7,121.3-82.8-130.8"/>
  <path class="cls-1" d="M3468.6,508.2c.1,4.4-3.5,8.1-8.1,8.3-4.6.2-8.4-3.2-8.5-7.6-.1-4.4,3.5-8.1,8.1-8.3,4.6-.2,8.4,3.2,8.5,7.6M3479.6,481.7c-1,1.1-7.3-3.7-16.2-3.7-8.9-.2-15.5,4.3-16.5,3.2-.5-.5.6-2.4,3.5-4.5,2.8-2,7.6-4,13.2-3.9,5.6.1,10.2,2.2,12.9,4.3,2.7,2.1,3.6,4.1,3.1,4.6M3385,508.2c.1,4.4-3.5,8.1-8.1,8.3-4.6.2-8.4-3.2-8.5-7.6-.1-4.4,3.5-8.1,8.1-8.3s8.4,3.2,8.5,7.6h0ZM3391.8,482.3c-1.1,1.1-7.3-3.7-16.2-3.7-8.9-.2-15.5,4.3-16.5,3.2-.5-.5.6-2.4,3.5-4.5,2.8-2,7.6-4,13.2-3.9,5.6.1,10.2,2.2,12.9,4.3,2.7,2.1,3.6,4.1,3.1,4.6h0ZM3423.4,548.9c0-.5,5.5-1.4,14.5-2.4,2.3-.2,4.4-.6,4.8-2.2.6-1.6-.4-4.1-1.4-6.8l-6.5-17.4c-9.1-24.8-15.6-45.2-14.6-45.6,1-.4,9.2,19.5,18.2,44.3,2.2,6.1,4.3,12,6.2,17.5.8,2.6,2.3,5.6,1.1,9-.6,1.7-2.3,2.9-3.8,3.3-1.5.4-2.8.4-3.9.5-9.1.4-14.7.3-14.7-.2"/>
  <path class="cls-9" d="M3429.2,654.6s-43.6,2.3-86.4-24.2c0,0,21.6,46.2,86.4,40.9v-16.8M3421.9,570.1c-4.2-6.2-11.2-10-18-9.8-4.6.1-9.2,2.2-11.8,6.2s-2.8,10.1,0,14.4c3.2,4.9,9.4,6.5,14.4,5.4,5.1-1.2,9.3-4.6,13.2-8,1.1-.9,2.2-1.9,2.9-3.3.6-1.4.7-3.2-.3-4.5"/>
  <path class="cls-1" d="M3397.1,554.8c1.4,0,1.4,9.6,9.6,16.6,8.2,7,18.5,6,18.6,7.4.1.6-2.3,1.8-6.7,1.9-4.3,0-10.5-1.4-15.5-5.6-5-4.3-7.1-9.9-7.4-13.9-.3-4,.8-6.4,1.4-6.4M3395.7,458.2c-.9,2.4-9.8,1.2-20.3,2.3-10.5.9-19,3.9-20.4,1.7-.6-1,.9-3.3,4.3-5.6,3.4-2.3,8.8-4.5,15.1-5.1,6.3-.6,12.1.5,15.8,2.1,3.8,1.6,5.7,3.5,5.3,4.7M3476.6,455.9c-1.6,2-7.7-.2-15.1-.4-7.4-.5-13.7,1.2-15.1-1-.6-1,.4-3,3.1-4.9,2.7-1.9,7.2-3.4,12.3-3.2s9.5,2.1,12,4.2c2.6,2.1,3.4,4.2,2.7,5.2"/>
  <path class="cls-19" d="M3434,389.9s-60.7-2-107.9,65.6c-31.1,44.6-38.6,101.1-38.6,101.1l-21.4-108.3,18.5-48.9,42.4-22.9,79.7-3,29.8,15.4"/>
  <path class="cls-19" d="M3315,393.2c97.1-21.4,173.8,12,186.5,88.1l20.6-49.5-49.2-61.5-54.8-15.4-111.2,14.8,7.9,23.5"/>
  <path class="cls-2" d="M3272.8,549.3c3.2-3.2,7.7-6.1,12.3-7.4h-.9c.9-.3,1.7-.4,2.6-.4,3.3-.6,6.6-.3,9.3,1.5h0c5.1,2.1,9.4,6,11.7,11,4,8.7,1.9,19.5-4.2,26.9-5.3,6.4-14.1,10.4-22.1,8.1-7.4-2.1-12.6-9.1-14.4-16.5-2-8.1-.1-17.4,5.8-23.3"/>
  <path class="cls-15" d="M0,12413.5"/>
  <path class="cls-11" d="M3445.1,333.5c0,.2-2.6.2-7.4.2-4.7-.2-11.6,0-20.1.4-16.9.9-40.2,4.3-64.4,13.5-24.2,9.1-44.4,21.2-58.7,30.2l-16.9,10.9c-4,2.6-6.2,4-6.3,3.8-.1-.1,1.9-1.8,5.8-4.6,3.8-2.9,9.4-6.9,16.5-11.6,14.1-9.4,34.4-21.9,58.8-31.1,24.5-9.3,48.2-12.4,65.2-12.9,8.5-.1,15.4,0,20.2.5,4.8.4,7.4.7,7.4.8M3291.3,390.3l.6-.2,1.8-.7c.8-.4,1.8-.8,2.9-1.2l4.1-1.5c8.7-3,17.8-5,26.9-5.9,11.6-1.3,25.6-1.2,40.9,1,7.6,1,15.6,2.6,23.8,4.5,8.2,1.9,16.6,4,25.1,6.9,34.1,10.6,60.2,32.7,71.7,52.9,5.9,10.1,8.6,19.2,10.1,25.5.8,3.2,1.2,5.7,1.6,7.4l.4,1.9.2.6v-.7s-.3-2-.3-2c-.3-2.5-.7-5-1.3-7.4-1.4-6.4-3.9-15.7-9.8-26-11.4-20.6-37.7-43.1-72.2-53.8-8.5-2.8-17-5-25.2-6.9-8.2-1.8-16.2-3.4-23.9-4.4-15.4-2.1-29.5-2.1-41.2-.6-9.2,1-18.3,3.2-27,6.5l-4.1,1.6-2.9,1.4-1.8.9-.6.3"/>
  <path class="cls-1" d="M3417.9,392.8s-.7,0-2.1,0c-1.4,0-3.4.3-6,.7-5.2.9-12.6,2.7-21.2,6.6-17.1,7.7-38.6,23.5-55.9,46.5-8.8,11.4-15.3,23.4-21.1,34.3-5.7,11-10.3,21.1-13.7,29.9-3.4,8.7-5.4,16.1-6.6,21.2-.4,2-.8,3.9-1.1,5.9-.2,1.4-.3,2.1-.2,2.1,0,0,.2-.7.5-2,.3-1.3.7-3.3,1.4-5.8,1.9-7.1,4.2-14.1,7-20.9,3.4-8.7,8.1-18.8,13.9-29.6,5.8-10.9,12.4-22.8,21.1-34,17.1-22.7,38.3-38.5,55.1-46.4,8.4-4,15.7-6,20.8-7,2-.4,3.9-.7,5.9-1,1.4-.2,2.1-.3,2.1-.3M2495.5,1580.4c-23.2-11.7-34.8-39-36.5-64.9s4.6-51.6,7.9-77.3c3.3-25.8,3.4-53.4-9.5-75.9-12.9-22.5-42.4-37.2-65.9-26.2l-65.9,46.9c10.4,29.1,16.6,59.5,18.3,90.3,1.3,23.1.3,47.4,10.7,68.1,14.6,29.2,48.2,43.9,80.4,49.2-4.1-5.6-8.1-11.2-12.1-16.9,21.1,14,49.3,16.6,72.7,6.7"/>
  <path class="cls-1" d="M2276.5,1257.5c28.6-3,52.8,9.6,75.6,27.1,22.8,17.5,39.2,42.7,47.8,70.2,9.1,28.9,9.7,60.7-.6,89.2-10.3,28.5-31.9,53.2-59.7,65.1-38,16.3-84.6,6.7-115.9-20.4-31.3-27-47.4-69.4-46.3-110.7.8-28.5,9.5-57.1,26.9-79.6,17.4-22.5,43.9-38.5,72.3-40.8"/>
  <path class="cls-1" d="M2350.7,1358.9c-3.4-11.1-1-23.1-1.9-34.6-2-25.5-21-47.1-43.9-58.4-21.3-10.6-48.2-10.3-75.1-3.5-18.5,4.7-36.1,13.7-49.1,27.6-17.3,18.4-24.7,45.6-19.2,70.2l130.4-10.4c11.4,10.8,23.2,21.8,37.5,28.3,4.2,1.9,8.8,3.5,13.4,3,4.6-.4,9.2-3.2,10.6-7.6,1.5-4.8-1.1-9.8-2.6-14.6"/>
  <path class="cls-4" d="M2224.7,1297.8l111.2,31.3c10.9,1.4,18.8,11,18.3,21.9l-17.3,244c-1.2,16.7-7.8,32.5-18.9,45l-11.7,13.2c-26.6,30-76.1,23.6-92.5-13-1.1-2.6-1.9-4.8-2.2-6.6-.2-2.2-.7-3.7-.7-5.6-2-19.1.5-37.1.5-37.1.3-21.8.6-30.7.6-30.5,0,0-45.8-8.8-53.7-69.1-3.9-29.9-1.1-78.8,2.4-118.7,3.2-35.9,28.2-79.4,64-74.7h0Z"/>
  <path class="cls-11" d="M2174.9,1419.4c-.2,4.1,3,7.6,7.2,7.9,4.2.3,7.9-2.7,8.1-6.7.2-4.1-3-7.6-7.2-8-4.2-.3-7.9,2.7-8.1,6.7h0ZM2170.6,1398.2c.9,1,6.9-3.1,15.1-2.9,8.3.1,14.2,4.5,15.2,3.6.5-.4-.5-2.3-3.1-4.3-2.6-2-6.9-4-12.1-4.1-5.1,0-9.6,1.7-12.1,3.6-2.6,1.9-3.5,3.7-3.1,4.1h0ZM2249,1422.4c-.3,4.1,3,7.6,7.2,8s7.9-2.7,8.1-6.7c.3-4.1-3-7.6-7.2-8-4.2-.3-7.9,2.7-8.1,6.7h0ZM2249.2,1401.3c.9,1,6.9-3.1,15.1-2.9,8.3.1,14.2,4.5,15.2,3.6.4-.4-.5-2.3-3.1-4.3-2.6-2-6.9-4-12.1-4.1-5.2,0-9.6,1.7-12.1,3.6-2.6,1.9-3.5,3.7-3.1,4.1M2220.3,1462.5c0-.5-5.1-1.5-13.4-2.8-2.1-.3-4.1-.7-4.4-2.2-.5-1.5.5-3.8,1.6-6.2,2.1-5.1,4.3-10.4,6.7-15.9,9.3-22.7,16.1-41.4,15.2-41.7-.9-.4-9.2,17.7-18.5,40.4l-6.4,16c-.9,2.4-2.3,5.1-1.3,8.3.5,1.6,2.1,2.8,3.4,3.2,1.4.4,2.5.5,3.6.6,8.4.7,13.6.8,13.6.4"/>
  <path class="cls-30" d="M2212,1560.3s40.3,3.7,80.9-19.3c0,0-21.3,41-81.2,33.8l.3-14.5h0ZM2223.3,1482.6c3.1-3.9,8.4-5.9,13.5-5.2,3.6.5,7.2,2.3,9.3,5.3s2.4,7.2.4,9.9c-2.3,3.1-7,3.7-10.9,2.5-3.9-1.2-7.3-3.9-10.4-6.6-.9-.7-1.8-1.5-2.3-2.5s-.6-2.3.1-3.1"/>
  <path class="cls-11" d="M2244.5,1468.9c-1.3-.1-1.6,8.9-9.5,15.1-7.8,6.2-17.4,4.9-17.5,6.2-.1.6,2.1,1.8,6.1,2,4,.2,9.8-.9,14.6-4.7,4.8-3.8,6.9-8.9,7.4-12.6.4-3.7-.5-6-1.1-6M2251.2,1376.9c.8,2.3,9.1,1.4,18.7,2.8,9.7,1.2,17.5,4.3,18.8,2.3.6-.9-.7-3.1-3.8-5.4-3.1-2.3-8-4.5-13.9-5.3-5.8-.8-11.2,0-14.8,1.3-3.6,1.3-5.4,3.1-5.1,4.1M2174,1362.1c1.4,1.9,7.2.1,14,.2,6.9-.2,12.6,1.6,14-.3.6-.9-.3-2.8-2.8-4.7-2.4-1.8-6.6-3.4-11.3-3.4-4.7,0-8.9,1.6-11.3,3.5-2.5,1.9-3.3,3.8-2.7,4.7"/>
  <path class="cls-11" d="M2372.5,1342.9c-9.4-35.1-57.4-85.2-93.8-84.4l-59.4,32.1c2.6,19.9,17.1,37.7,35.9,44.4,10.1,3.6,22.4,5,28.1,14.1,5.8,9.3,1.6,22.2,6.9,31.7,7.4,13.2,29.4,13.6,34.7,27.8,2.4,6.2.6,13.4,3.1,19.5,3.3,8.2,23.1,19.3,31.6,17,8.5-2.3,9.2-16.6,12.3-23.9,5.3-12.6,3.6-19.3,2.4-26.5-2.9-17.1,2.6-35-1.9-51.7"/>
  <path class="cls-4" d="M2334.6,1451c.1-4.5,5.6-14.9,10-15.4,11.8-1.5,33,0,32.4,29.9-.8,40.9-41.7,31.7-41.8,30.5,0-.9-1.1-29.5-.7-44.9"/>
  <path class="cls-30" d="M2348.1,1480.7c.2-.1.7.5,1.9,1.1,1.2.6,3.2,1,5.3.2,4.4-1.5,8.1-8.3,8.5-15.7.2-3.5-.4-7-1.8-10.2-1.2-3-3.1-5.2-5.2-5.6-1.7-.5-3.5.3-4.2,1.9-.6,1.1-.3,2-.6,2-.1.1-.9-.7-.5-2.4.2-.8.7-1.8,1.7-2.5,1-.8,2.4-1.2,4-1,3.1.3,5.9,3.2,7.3,6.5,1.6,3.3,2.4,7.3,2.2,11.4-.4,8.2-4.8,15.9-10.8,17.4-2.9.7-5.3-.2-6.5-1.2-1.2-1-1.4-2-1.3-2h0Z"/>
  <path class="cls-23" d="M2406,1399.6c.3,0,1.7-4.5,2.3-12.1.7-7.6.2-18.4-2.8-29.7-3-11.4-8-20.9-12.4-27.2-4.4-6.3-7.8-9.6-8.1-9.4-.8.5,12,14.9,17.8,37.3,6.1,22.3,2.1,41.2,3.1,41.2"/>
  <path class="cls-1" d="M2231.9,1279c-4.8,16.3-31.5,36-43.4,48.2-22.8,23.3-27.5,31.2-30.9,86.3-8.7-19.7-15.2-38.9-13-60.3,2.2-21.4,11.5-42.4,27.5-56.9,16-14.5,38.7-21.8,59.8-17.3h0Z"/>
  <path class="cls-15" d="M2393.3,1343.7c0,.2-2.5.6-7.1,1.3-2.8.4-5.6.7-8.4.9-3.3.2-7,.6-11.1.6-8.3.2-18.1-.3-28.9-1.6-11.7-1.6-23.3-4.2-34.7-7.6-11.3-3.6-22.3-8.2-32.8-13.6-9.7-5.1-18-10.3-24.7-15.2-3.4-2.3-6.2-4.8-8.8-6.8-2.2-1.7-4.3-3.6-6.3-5.5-3.4-3.2-5.2-4.9-5.1-5.1.1-.1,2.1,1.4,5.7,4.3,1.8,1.5,3.9,3.3,6.6,5.2,2.6,1.9,5.5,4.3,8.9,6.5,6.7,4.7,15.1,9.7,24.7,14.6,10.5,5.2,21.4,9.6,32.5,13.2,11.2,3.4,22.7,6,34.3,7.7,10.7,1.4,20.4,2.1,28.6,2.1,4.1.2,7.8-.1,11.1-.2,3.3,0,6.1-.3,8.3-.5,4.6-.4,7.1-.5,7.1-.3M2395.6,1373.2c0,.2-1.7.5-4.8.8-3.1.4-7.6.7-13.3.8-11.2.2-26.8-1.1-43.5-5.4-16.6-4.4-30.8-11.1-40.5-16.8-4.8-2.8-8.6-5.4-11.1-7.3-2.5-1.9-3.8-3-3.8-3.1.2-.3,5.9,3.6,15.7,8.9,12.8,6.8,26.3,12.2,40.3,15.9,14,3.7,28.4,5.7,42.9,6.1,11.1.3,18-.4,18.1,0M2379.5,1478.4c-.4-.4,4.1-4.8,9-13.6,5.1-8.7,10.3-21.6,14.3-36.5,3.8-14.9,5.7-28.8,6-38.8.5-10.1-.4-16.3.1-16.4.2,0,.6,1.5,1.1,4.3.4,2.8.9,7,.9,12.1.2,10.2-1.4,24.4-5.3,39.5-4,15.1-9.7,28.2-15.4,36.8-2.1,3.4-4.6,6.7-7.4,9.6-2.1,2-3.2,3.1-3.4,2.9M2329.9,2019.8l-262.6,38.1c-98.6,27.9-202.5,36.1-311.2,26.6l395.2,184.3,158.6,2.5s48.3.1,56.8-42.1c8.6-42.9,17.8-170.4,17.8-170.4,0,0-31.4-27.2-54.6-39"/>
  <path class="cls-24" d="M2333.7,2209.9c1.2-26.6-.3-53.3-4.6-79.5h0c1.7-9.9,3-20.3,1.9-31.2-.9-6.9-3.6-13.1-5.4-19.8,0-.1,0-.2,0-.3,4.6.1,15.5.5,21.5.7,9.6.4,20.1.4,20.1.4,1.8,8.7-10.3,17.4-14.8,24.9-6.8,11.3-1.4,25.5.9,38.5,4.2,23.5-3.2,48.8-19.5,66.3"/>
  <path class="cls-4" d="M2207.5,1604.8l131.1-11.1,19,1.9-83.7,68.7-42.7,14.9-37.6-17.6-9.1-25.2,23-31.7M2052.4,1752.8l-49.4,156.5-105.8,149.4,66.9,48.2,115.7-142.7,38.7-176.8-66.1-34.6h0Z"/>
  <path class="cls-1" d="M2031,1724.8s48.1-72.5,62.7-85.4c17.5-15.6,49.3-27.6,49.3-27.6l64.5-6.9s-39.8,45.9,5.8,51.6c45.6,5.7,144.2-60.8,144.2-60.8,0,0,68.9,12.9,86,23.2,17.1,10.2,60.4,36.5,58.1,106v55.8c0,0-131.1,0-131.1,0l-27.4,209.6-66.1,39.9s-178.2,34.1-189.6,36.4c-11.4,2.3-3-289.3-3-289.3,0,0-45.6-21.7-53.6-52.4h0Z"/>
  <path class="cls-4" d="M2102.1,2008.9l243.4-36.5,25.1-191.8h121.9s-28.9,135.2-35.3,169.8c-9.2,49.8-43.3,116.2-61.5,128.7-18.2,12.5-308.2-12.6-308.2-12.6l14.6-57.5h0Z"/>
  <path class="cls-4" d="M1963.8,2031.1c1.5,3.5,4.8,5.9,8.6,5.8.7,0,1.5-.1,2.3-.3,5.4-1.4,5.6-12.2,5.6-12.2l25.7-2.5s31.7,23.5,42.5,38.4c10.8,14.9,41.6,5.4,41.6,5.4l13.9-53.5-44-45.4s2.7,2.7,0-5.4c-2.7-8.1-17.6-6.1-17.6-6.1-2-4.1-11.6-6.1-11.6-6.1l-41.4,2c-8.5.4-16.4,4.7-21.4,11.6l-19.2,26.3s-10.5,19.2-9.3,23.9c1.8,7.1,9.2,6,9.2,6,0,0,1.2,13.1,4.6,13.8,3.4.7,10.3-1.8,10.3-1.8"/>
  <path class="cls-30" d="M2053.8,1997.9c0,.4-5.5-.4-14.3-.6-8.8-.1-21,.6-33.9,4.1-6.1,1.6-12,3.7-17.8,6.2-5.2,2.5-10.5,4.4-12.3,7.9-.9,1.7-.7,3.5.1,4.9.8,1.4,1.9,2.3,2.9,2.8,2.1,1,3.5.5,3.6.8,0,0-1.3,1-4,.2-1.6-.6-2.9-1.6-3.8-3-1.3-1.9-1.5-4.4-.6-6.5,1-2.3,3.2-4.1,5.5-5.4,2.4-1.4,4.9-2.7,7.5-3.9,5.8-2.7,11.9-4.9,18.1-6.6,11.3-3,23-4.2,34.7-3.4,8.9.7,14.3,2.2,14.2,2.5"/>
  <path class="cls-30" d="M0,12413.5"/>
  <path class="cls-30" d="M2028.3,1959.5c0,.4-6.2.2-16.1.6-9.6.8-24.7.5-34.2,13-10.1,11.2-18.8,21.9-22.8,30.8-4.3,8.9-4.4,15.2-4.9,15.1-.1,0-.3-1.6,0-4.4.3-2.8,1.2-6.8,3.2-11.5,3.8-9.5,12.4-20.6,22.6-31.9,2.6-2.8,5.4-5.5,8.5-7.5,3.1-2.1,6.7-3.2,10-3.9,6.6-1.4,12.6-1.6,17.6-1.6,10,0,16.2.9,16.1,1.2"/>
  <path class="cls-30" d="M2040.2,2051c0,0-.8-.6-2.3-2l-6.5-6c-8.2-7.3-16.8-14.1-25.8-20.3l.6.2c-7.7.8-16.3,1.7-25.7,2.7l.9-1c0,2.1-.4,4.2-.9,6.2-.6,2-1.4,4.2-3.3,5.9-1,.8-2.4,1.3-3.5,1.3-1.2.2-2.4.2-3.6,0-2.4-.5-4.6-1.9-6.1-3.9-.4-.5-.7-1-1-1.6l-.2-.4v-.2c0,0-.2-.1-.2-.1h0c-.3-.2,2.8,1.2,1.4.6h0s-.8.3-.8.3c-1.1.4-2.2.7-3.4.9-1.2.3-2.3.5-3.5.6-.6,0-1.2.1-1.9,0-.8,0-1.6-.2-2.3-.6-1.4-1.1-1.8-2.3-2.3-3.5-.4-1.2-.8-2.4-1-3.6-.5-2.4-.9-4.8-1.2-7.3l1.4,1.1c-3.3.4-7.2-.7-9.3-3.9-.9-1.5-1.7-3.2-1.4-5.2.2-1.8.7-3.3,1.2-4.9,2.2-6.1,5.1-11.9,8.2-17.8h0c0,0,0-.1,0-.1l10.2-14.1c2.2-3,4.3-6,6.5-8.9,2.1-2.8,4.1-6.1,7-8.6,2.8-2.5,6.1-4.3,9.6-5.5,3.5-1.2,7.3-1.4,10.6-1.5,13.7-.6,26.8-1.2,39-1.8h.3c2.4.6,4.5,1.3,6.7,2.3,2.1,1,4.3,2.1,5.6,4.5l-1.4-.5c4.5-1.5,9.5-1.2,13.1,1.6,3.7,2.8,5.2,6.9,5.9,10.8l-.3-.6,30.4,31.1c3.4,3.6,6.1,6.4,8.2,8.6,1.8,2,2.8,3.1,2.7,3.1,0,0-1.1-.9-3.1-2.7l-8.5-8.2c-7.5-7.4-18.1-17.8-31-30.5l-.2-.2v-.4c-.7-3.4-2.2-7.2-5.2-9.4-2.9-2.3-7.3-2.5-11.1-1.2l-.9.3-.5-.9c-.8-1.4-2.7-2.6-4.6-3.4-2-.9-4.1-1.6-6.2-2h.3s-39,2.1-39,2.1c-3.5.2-6.8.3-9.9,1.4-3.2,1.1-6.2,2.8-8.7,5-2.6,2.2-4.4,5.2-6.6,8.2-2.1,2.9-4.3,5.9-6.5,8.9-3.5,4.8-7,9.6-10.2,14.1v-.2c-3,5.8-5.9,11.6-8,17.4-.5,1.4-1,2.9-1.1,4.3-.2,1.2.3,2.4,1,3.6,1.3,2.2,4.3,3,6.8,2.8h1.3c0-.1.1,1.1.1,1.1.2,2.3.6,4.7,1.1,7,.5,2.1,1.2,4.7,2.3,5.7,0,0,.5.2,1,.2.5,0,1,0,1.6,0,1.1-.1,2.2-.3,3.2-.6s2.1-.6,3.2-.9l.8-.2h0s0,0,0,0c-1.3-.6,1.8.8,1.5.6h0c0,0,0,.3,0,.3l.2.3.8,1.2c1.2,1.6,2.9,2.7,4.7,3.1.9.2,1.8.2,2.8,0,1,0,1.7-.3,2.4-.8,2.6-2.4,3.2-6.8,3.5-10.4v-.9c0,0,.9,0,.9,0,9.4-.8,18-1.6,25.7-2.3h.3s.2.2.2.2c8.9,6.4,17.4,13.5,25.4,21.1,2.1,2,4.2,4.2,6.2,6.3,1.3,1.5,2,2.3,2,2.4"/>
  <path class="cls-15" d="M2082.6,1700.1c.4,0,.4,5.2.3,13.4-.1,8.2-.2,19.7.2,32.2.4,12.6,1.2,23.9,1.8,32.2.6,8.2,1,13.3.6,13.4-.4,0-1.5-5-2.7-13.2-1.2-8.2-2.3-19.6-2.7-32.3s0-24.1.6-32.4,1.5-13.3,1.8-13.3"/>
  <path class="cls-26" d="M2499.8,1715.7c0,0-1.4.3-4.2.5l-12.1.9c-10.9.7-26,1.7-44.6,2.9-37.9,2.2-89.8,5.1-147.2,8.4-57.4,2.9-109.3,5.6-147.2,7.5-18.6.8-33.8,1.5-44.6,1.9l-12.1.4c-2.8,0-4.2,0-4.2,0s1.4-.3,4.2-.5c3.1-.2,7.1-.5,12.1-.9l44.6-2.9,147.2-8.4,147.2-7.5,44.6-1.9c5-.2,9.1-.3,12.1-.4,2.8,0,4.2,0,4.2,0M2361.7,1841.1c0,.8-62.2,4.1-139.1,7.4-76.9,3.2-139.2,5.2-139.2,4.4,0-.8,62.2-4.1,139.1-7.4,76.8-3.2,139.2-5.2,139.2-4.4h0ZM2345.1,1951.3c0,0-.9.3-2.6.5l-7.6.8-28.1,2.5c-23.7,2.1-56.4,5-92.6,8.7-30.8,3.2-61.6,6.6-92.4,10.2l-28,3.2c-3,.3-5.6.6-7.6.8-1.8.1-2.7.2-2.7,0,0,0,.9-.3,2.6-.7,2.1-.4,4.6-.8,7.6-1.3,9.3-1.5,18.6-2.9,27.9-4.2,23.6-3.3,56.2-7.4,92.4-11.1,36.1-3.7,68.9-6.3,92.7-7.8,11.9-.8,21.5-1.3,28.2-1.5,3,0,5.6-.2,7.7-.2,1.8,0,2.7,0,2.7.1M2078.6,1710c-.3.8-6.2-.6-13.2-3-7-2.4-12.5-5-12.2-5.8.3-.8,6.2.6,13.2,3,7,2.4,12.5,5,12.2,5.8h0ZM2185.8,1634c0,.8-18.8,2.1-42,2.9-23.2.8-42.1.8-42.1,0,0-.8,18.8-2.1,42-2.9,23.2-.8,42.1-.8,42.1,0M2450.8,1623.8c0,.8-30,1.3-66.9,1.1-37-.2-66.9-1-66.9-1.9s30-1.3,67-1.1c37,.2,66.9,1,66.9,1.8"/>
  <path class="cls-2" d="M2369.9,1690.3c.2,0,.2,2.4.1,6.9-.2,6.3-.5,12.7-.9,19-1,16.2-3.5,38.7-5.6,64.5l-1.6-1.6h24.5c31.8,0,60.6.1,81.5.4l24.7.5c5.8.2,9.1.4,9.1.6,0,.2-3.2.4-9,.6-6.4.1-14.6.3-24.7.5-20.8.3-49.6.4-81.4.4h-24.5s-1.7,0-1.7,0v-1.6c2.3-25.9,5.3-48.3,6.7-64.4l1.8-18.9c.4-4.4.7-6.8.9-6.8M1903.7,2102.1s-166.4-52.3-218.6-69.2c-90-29.2-148.9.3-167.4,32.5-24.1,41.8,33.7,123.2,56,141.9,66,55.4,179.1,62.9,179.1,62.9l406.6-.8-118.7-160.9-136.8-6.4h0Z"/>
  <path class="cls-8" d="M1921.3,2167c-67.4,7.9-136.8-1.5-199.6-27.1-11-4.5-21.8-9.5-33.3-12.4-11.2-2.8-22.8-3.7-34.3-2.4-9.1,1-18.7,3.7-24.2,11-8.1,10.7-3.9,25.9.6,38.5,5.3,14.8,10.8,30,21.1,41.9,12.1,13.9,29.6,21.8,47.1,27.4,34.3,10.8,70.6,13.9,106.6,15.3l123.6-6.8-7.4-85.4"/>
  <path class="cls-11" d="M1903,2251.7c-.2.2-4-2.9-8.8-9.3-4.7-6.4-10-16.3-12.8-28.2-2.7-11.9-2.4-23.1-.9-30.9,1.4-7.8,3.5-12.3,3.8-12.2.4.1-1,4.8-1.9,12.5-1,7.7-1,18.5,1.6,30.1,2.7,11.5,7.5,21.2,11.8,27.7,4.2,6.5,7.6,10.1,7.2,10.4h0ZM1682.7,2127.5c.2,0,.9,1.1,1.9,3.3,1,2.2,2.3,5.6,3.3,9.9,2.1,8.5,2.8,21.2-1.4,34.1-4.2,13-12.1,22.8-18.8,28.5-3.3,2.9-6.3,4.9-8.4,6.1-2.1,1.2-3.4,1.7-3.5,1.6-.2-.4,4.5-3.1,10.6-9.1,6.2-5.9,13.5-15.6,17.5-28,4-12.4,3.6-24.6,2.1-32.9-1.5-8.4-3.8-13.4-3.4-13.6h0Z"/>
  <path class="cls-11" d="M1901.7,2187.6c0,.7-4.3,1.5-9.7,1.7s-9.8-.1-9.8-.9c0-.7,4.3-1.5,9.7-1.8s9.8.1,9.8.9M1897.9,2221.3c.3.6-2.1,2.3-5.6,2.2-3.5,0-5.9-1.6-5.6-2.2.3-.7,2.7-.3,5.6-.4,2.9,0,5.3-.3,5.6.4Z"/>
  <path class="cls-2" d="M2328.3,2091.9c-9.6-27.4-11.3-67.6-70.8-86.9-59.6-19.3-104.6,17.7-135.2,30.6-30.6,12.9-198,104.6-198,104.6,0,0-31.5,56.2-22.5,81,9,24.8,49.7,49.4,49.7,49.4h187.1c48.3,0,138.1-1.6,138.1-1.6,16.5-25.9,32.2-61.1,32.2-61.1l1.6-8c0-6.4,27.4-80.5,17.7-107.8"/>
  <path class="cls-11" d="M2224.6,2234.1s-.1,1.1-1.4,2.6c-1.2,1.5-3.3,3.4-6.2,5.6-5.8,4.2-14.8,9.5-26.5,14.8-5.9,2.6-12.3,5.4-19.5,7.7-7.2,2.3-15.2,4-23.6,5.1-16.9,2.4-35.6,1.9-55,2.1-38.9.6-74.2,2.1-99.8,1.8-12.8,0-23.1-.6-30.3-1.4-3.6-.4-6.3-.8-8.2-1.1-1.9-.4-2.8-.6-2.8-.7,0-.3,3.9.4,11.1.8,7.1.4,17.4.7,30.2.5,25.5-.2,60.8-1.9,99.8-2.6,19.5-.3,38.1.3,54.7-1.9,8.3-1.1,16.1-2.6,23.3-4.8,7.1-2.1,13.6-4.8,19.4-7.3,11.7-5.1,20.7-10,26.6-14,3-2,5.1-3.7,6.4-5.1,1.3-1.3,1.6-2.3,1.8-2.2"/>
  <path class="cls-11" d="M1951.5,2270.6s-.9-.4-2.5-1.3c-2.4-1.4-4.7-2.8-7-4.3-6-4-14.8-10-24.6-19.6-4.8-4.8-10-10.6-13.9-18-4.2-7.5-4.3-17.2-2.7-26.6,3.3-19.1,11.7-39.6,22.6-61v-.3c.1,0,.4-.1.4-.1,34.7-19.1,69.4-38,104.2-56.7,19.2-10.3,39.3-21,60-31.7,10.4-5.3,20.9-10.8,32-15.8,11-4.7,21.5-10.8,32.5-16.4,15.5-8,31.6-15,48.4-18.2,8.3-1.8,16.8-2.3,25.2-2.3,8.4.4,16.6,1.3,24.5,3.5,15.8,4.2,30.6,10.8,42.9,20.5,5.9,4.9,11.2,10.6,15.6,16.9,4.2,6.3,7.5,13,10.1,19.8,2.6,6.8,4.5,13.6,6.4,20.3,1.7,6.7,4.4,12.9,5.4,19.8,1.4,13.6-.9,26.4-3.2,38.3-2.4,11.9-5.4,23.1-8.3,33.4l-4.4,15c-1.4,4.8-3,9.6-3.7,13.9h0c0,.1-1.6,8.2-1.6,8.2h0s0,0,0,0c-6.8,21.1-15,36.6-21.5,46.6-6.6,10-11.4,14.3-11.4,14.3,0,0,.2-.3.7-1l2.2-2.7c2.8-3.6,5.4-7.2,7.8-11.1,6.3-10,14.2-25.6,20.8-46.6h0c3-2.5,2.4-5,1.6-8v.2c.7-5,2.3-9.4,3.6-14.3l4.3-15.1c2.9-10.4,5.7-21.5,8.1-33.4,2.2-11.8,4.4-24.6,3-37.6-.8-6.3-3.6-12.8-5.4-19.5-1.9-6.7-3.8-13.5-6.4-20.1-2.6-6.6-5.8-13.2-9.9-19.3-4.3-6.1-9.4-11.6-15.1-16.3-11.9-9.4-26.5-15.8-42-19.9-7.7-2.1-15.8-3-24-3.4-8.2,0-16.4.5-24.6,2.3-16.4,3.2-32.2,10-47.7,18-10.9,5.6-21.5,11.7-32.6,16.4-10.9,4.9-21.4,10.3-31.8,15.7-20.8,10.7-40.8,21.3-60.1,31.6l-104.4,56.3.4-.4c-10.9,21.2-19.4,41.6-22.8,60.3-1.6,9.4-1.5,18.5,2.4,25.7,3.8,7.2,8.8,12.9,13.5,17.8,9.6,9.6,18.3,15.7,24.1,19.9,2.9,2,5.2,3.5,6.8,4.6,1.5,1,2.3,1.6,2.3,1.6"/>
  <path class="cls-3" d="M2256.1,2201.1s55.8,6.6,50.8,33.9c-4.9,27.3-23.2,36.4-23.2,36.4l-151.5.3s90.5-6.3,123.9-70.7Z"/>
  <path class="cls-11" d="M2261.5,2187.9c.3,0-.1,3.1-1.7,7.7-2.1,6.1-5.1,11.8-9,16.9-9.4,12.2-21.2,16.9-21.3,16.3-.5-.8,10.4-6.4,19.3-17.9,8.8-11.6,11.9-23.4,12.8-23.1"/>
  <path class="cls-11" d="M2242.2,2198.6c.7,0-.1,9.4-5.4,19.4-5.1,10.1-11.7,16.5-12.2,16.1-.6-.5,4.9-7.5,9.8-17.2,5.1-9.6,7-18.3,7.7-18.2h0ZM2313.3,2263.9c-.4-.2,3.2-7.1,7.5-18.8,4.4-11.7,9.2-28.4,11.4-47.3,2.1-18.9,1.2-36.3-.4-48.6-1.6-12.4-3.6-19.9-3.1-20,.2,0,.8,1.8,1.8,5.2,1,3.4,2.1,8.4,3.2,14.6,2.1,12.4,3.3,30,1.2,49.2-2.2,19.2-7.4,36.1-12.2,47.7-2.4,5.8-4.6,10.4-6.4,13.5-1.7,3.1-2.7,4.8-2.9,4.7h0Z"/>
  <path class="cls-24" d="M2160,2265.2c21.6-5.6,44.2-16,63.5-29.7-.2.2-.4.4-.6.7-1.3,1.3-3.4,3.1-6.3,5.1-5.9,3.9-15,8.9-26.6,14-5.8,2.5-12.3,5.2-19.4,7.3-3.4,1-6.9,1.9-10.5,2.7h0ZM2186.3,2258.9c1.5-.6,2.9-1.3,4.3-1.9,11.6-5.3,20.6-10.6,26.5-14.8,2.9-2.1,5-4.1,6.2-5.6.5-.6.9-1.2,1.1-1.6,4-2.9,7.9-5.9,11.7-9.1,2.3-1.4,4.6-3.1,6.6-4.8-15.9,18.5-36.9,30.3-56.3,37.8h0Z"/>
  <path class="cls-20" d="M2138.3,2269.5h-1.9c7.6-.7,15.5-2.1,23.5-4.2,3.5-.7,7-1.6,10.5-2.7,7.1-2.1,13.6-4.8,19.4-7.3,11.7-5.1,20.7-10,26.6-14,3-2,5.1-3.7,6.4-5.1-.2-70.5,56.8-127.8,127.3-128,70.5-.2,127.8,56.8,128,127.3.3-.2.6-.4.8-.6-.3.6-.6,1.1-1.1,1.6-1.2,1.5-3.3,3.4-6.2,5.6-5.8,4.2-14.8,9.5-26.5,14.8-1.4.6-2.9,1.3-4.3,1.9-13.7,5.3-26.6,8.5-36.3,10.4-3.9.1-7.8.2-11.6.2"/>
  <path class="cls-24" d="M2280.1,2206.7c-9-3-17.7-4.6-21.7-5.2,3.4-4.9,6.3-10.1,8.7-15.5,1.6-3.8,4.3-8.4,8.2-8.4s.7,0,1,.1c3.6.7,5.1,5.1,5.5,8.8.7,6.8,0,13.7-1.7,20.2"/>
  <path class="cls-10" d="M2150,2269.3c9.8-1.9,22.6-5.1,36.3-10.4,19.4-7.5,40.4-19.4,56.3-37.8,5.1-4.3,9.4-9.5,12.6-15.3,1.1-1.4,2.1-2.9,3.1-4.3,4,.6,12.7,2.2,21.7,5.2-3.4,12.4-10.7,23.9-20.3,32.7-14.6,13.4-33.9,20.9-53.4,24.4-15.5,2.8-37.9,4.9-56.4,5.5"/>
  <path class="cls-20" d="M2236,2225.9c7.3-6.2,13.8-13,19.3-20.1-4.6,8.2-11.2,15.1-19.3,20.1Z"/>
  <path class="cls-11" d="M1912.5,2126c-.3.6-12.3-3.9-26.8-10.2-14.5-6.3-26.1-11.9-25.8-12.6.3-.7,12.3,3.9,26.8,10.2,14.6,6.3,26.1,11.9,25.8,12.6Z"/>
  <path class="cls-22" d="M1859.4,2088.2c-10.1-3.2-21.4-6.7-33.3-10.5,19.2,3.1,38.3,6.4,57.4,9.7-8,.4-16.1.6-24.1.8"/>
  <path class="cls-5" d="M1972.7,2105.4l-7.1-.3,1.9-2.3c2,.5,4.1,1.2,5.3,2.6h0ZM1961.4,2104.8l-57.7-2.7s-18.1-5.7-44.3-13.9c8.1-.2,16.1-.4,24.1-.8,23.9,4.2,47.8,8.5,71.7,13l6.2,4.4h0Z"/>
  <path class="cls-13" d="M1965.6,2105l-4.2-.2-6.2-4.4c3.8.7,7.6,1.4,11.3,2.2.3,0,.6.1.8.2l-1.9,2.3"/>
  <path class="cls-5" d="M1821.2,2141.8c-16.8,0-33.4-1.4-49.7-5.3-31.2-7.4-61.2-25.4-76.3-53.6l54.2-17.1c25.6,3.8,51.2,7.8,76.8,11.9,11.9,3.8,23.2,7.3,33.3,10.5,26.2,8.2,44.3,13.9,44.3,13.9l57.7,2.7,4.2.2,7.1.3c.5.6.8,1.3.9,2.1.3,2.7-2.3,4.7-4.7,6.1-30.6,17.6-66.7,22.5-101.8,25.8-15.2,1.4-30.6,2.5-45.9,2.5h0ZM1860.1,2103.1c-.1,0-.2,0-.2,0-.3.7,11.3,6.3,25.8,12.6,13.6,5.9,25,10.3,26.6,10.3s.2,0,.2,0c.3-.6-11.2-6.3-25.8-12.6-13.6-5.9-25-10.3-26.6-10.3"/>
  <path class="cls-28" d="M1912.3,2126c-1.7,0-13-4.4-26.6-10.3-14.5-6.3-26.1-11.9-25.8-12.6,0,0,0,0,.2,0,1.7,0,13,4.4,26.6,10.3,14.6,6.3,26.1,11.9,25.8,12.6,0,0,0,0-.2,0"/>
  <path class="cls-8" d="M1611.3,1887.6l90.9,201.1c3.8,8.3,12,13.7,21.2,13.8l265.2,3.4,33.4-18-52.4-3.8-81.5-195.5c-2.6-6.2-8.7-10.3-15.4-10.4l-254.1-1.9c-4.4,0-8,3.5-8,7.9,0,1.2.2,2.3.7,3.3"/>
  <path class="cls-11" d="M1611.3,1887.6s-.5-.7-.8-2.4c-.3-1.6,0-4.5,2.5-6.9,1.4-1.3,3.2-2.1,5.2-2.2h6.7c4.8,0,10.4,0,16.6,0,25.2,0,61.4.2,106.4.4l73.9.4c13.3,0,27.1.2,41.3.2h10.8c3.9.4,7.7,2,10.6,4.6,3.1,2.5,4.8,6.5,6.1,9.8l4.3,10.3,76,181.9-1.3-.9c16.1,1.2,33.2,2.4,50.6,3.7.6,0,1.2,0,1.8.1l5.1.4-4.5,2.4c-11.5,6.2-22.8,12.3-33.4,18l-.3.2h-.4l-201.1-2.8c-15.4-.2-30.3-.4-44.9-.6-7.3-.2-14.3,0-21.6-.4-7.3-.8-13.9-4.9-18-11.1-11.8-24.9-21.7-47.9-31.3-69l-44.5-99.4-11.9-27c-1.3-3-2.3-5.3-3-7-.7-1.6-.9-2.4-.9-2.4,0,0,.4.8,1.2,2.3l3.3,6.9,12.4,26.8,45.3,99.1c9.6,20.9,19.9,44.3,31.5,68.5,3.7,5.6,9.6,9.2,16.3,10,6.8.3,14.1.2,21.3.4,14.5.2,29.5.3,44.9.5,61.5.8,129.4,1.6,201.1,2.5l-.7.2,33.4-18,.6,2.8h-1.8c0-.1-50.6-3.8-50.6-3.8h-.9c0,0-.3-.9-.3-.9-26.7-64.1-53.3-128.3-80-192.4-1.4-3.6-2.7-6.6-5.4-8.8-2.5-2.2-5.7-3.6-9.1-3.9-3.6,0-7.1,0-10.7-.1-14.2-.1-28-.3-41.3-.4-26.6-.3-51.4-.5-73.9-.7-45-.5-81.3-.9-106.4-1.3l-16.6-.2c-2.4,0-4.6,0-6.6,0-1.8,0-3.5.7-4.8,1.9-1.8,1.7-2.8,4.1-2.6,6.5.2,1.7.6,2.4.5,2.5"/>
  <path class="cls-11" d="M1961.8,2105.6c0,0-.5-.7-1.2-2.2-.8-1.8-1.8-3.9-3-6.5l-10.7-24.1c-11.5-26.6-22.8-53.2-33.9-80-13-31.4-24.4-59.9-32.3-80.7-3.9-10.4-7.1-18.8-9.1-24.7l-2.3-6.8c-.5-1.6-.7-2.4-.6-2.4,0,0,.5.7,1.1,2.2.8,1.8,1.7,4,2.8,6.6,3.3,8.1,6.6,16.3,9.9,24.4,8.6,20.9,20.2,49.2,33,80.4,12.9,31.2,24.5,59.4,33.2,80.3l9.9,24.4c1,2.7,1.9,4.9,2.6,6.7.6,1.5.8,2.4.7,2.4"/>
  <path class="cls-26" d="M1797.3,1985.1c0,7.2-5.8,13-13,13h0c-7.2,0-13-5.8-13-13s5.8-13,13-13,13,5.8,13,13h0Z"/>
  <path class="cls-2" d="M780.1,2072.8l-30.5,114.8s106.5,69.6,102.9,91.3l-224.8-51.2,40.2-180.8,112.2,25.9h0Z"/>
  <path class="cls-3" d="M682.3,2162.1c-4.6.2-8.7,4.4-8.7,9,0,4.6,4.2,8.9,8.9,8.7,4.6-.1,9.7-5,9.2-9.6-.5-4.6-5.8-9.3-10.2-8.1h.9"/>
  <path class="cls-11" d="M627.7,2227.8l4.8-18.1,213.8,55.8s9,6.6,6.3,13.4l-224.8-51.2h0ZM753.5,2187.3c-.3,1.1-5.9.3-12.1,2.6-6.3,2.1-10.1,6.3-11,5.6-1-.4,2.2-6.6,9.7-9.3,7.5-2.7,13.9.1,13.4,1.1h0ZM774.9,2202.4c0,1.1-5.2,1.9-10,5.7-4.9,3.7-7,8.5-8.1,8.2-1.1,0-.4-6.7,5.7-11.3,6-4.6,12.6-3.6,12.3-2.6h0ZM781.9,2233.7c-1,0-1.3-5.8,2.9-11.2,4.2-5.4,9.9-6.6,10.1-5.6.4,1.1-3.7,3.5-7,8-3.5,4.4-4.8,8.9-6,8.8h0ZM757.6,2160.4c-.7.9-5.4-1.8-11.7-2.8-6.3-1.1-11.6-.1-11.9-1.2-.5-.9,5.2-3.9,12.6-2.7,7.4,1.2,11.8,5.9,11,6.6"/>
  <path class="cls-10" d="M682.3,2179.8c-1,0-2.1-.2-3-.6l6.7-.3c-1.1.5-2.2.9-3.5.9h-.2"/>
  <path class="cls-20" d="M852.5,2279l-224.8-51.2,4.8-18.1,213.8,55.8s.7.5,1.6,1.3c3.4,4.8,5.2,8.9,4.7,12.1M730.6,2195.6c0,0-.2,0-.2,0-1-.4,2.2-6.6,9.7-9.3,2.1-.8,4.3-1.1,6.5-1.1s2.6.1,3.6.4l-.6,2.1.7.5c-2.3.2-5.5.6-8.9,1.8-5.8,2-9.5,5.7-10.8,5.7M757,2216.3s0,0,0,0c-1.1,0-.4-6.7,5.7-11.3,2.2-1.8,4.9-2.9,7.7-3.4l2.8,2c-1.9.8-5.2,2-8.2,4.5-4.8,3.5-6.8,8.2-8,8.2M781.9,2233.7h0c-1,0-1.3-5.8,2.9-11.2,2.3-2.9,5-4.6,7-5.4.7.5,1.4,1,2,1.5-1.4,1.4-3.8,3.4-6,6.3-3.4,4.3-4.8,8.8-5.9,8.8h0Z"/>
  <path class="cls-2" d="M701.6,2095.1l-2.1,118.8s120.1,42,121.8,64l-230.5,4.2-4.3-185.2,115.1-1.8"/>
  <path class="cls-3" d="M628,2205.2c-4.4,1.3-7.4,6.4-6.3,10.9,1.1,4.5,6.2,7.6,10.7,6.4s8.2-7.2,6.6-11.5-7.8-7.6-11.9-5.4"/>
  <path class="cls-1" d="M590.8,2282.1l.3-18.7,220.9,3s10.3,4.3,9.3,11.5l-230.5,4.2M703.2,2212.7c0,1.1-5.6,1.7-11.1,5.5-5.6,3.6-8.3,8.5-9.4,8.1-1-.2.5-7,7.2-11.3,6.7-4.4,13.5-3.2,13.3-2.2M727.6,2222.2c.3,1.1-4.6,3.1-8.3,7.9-3.9,4.7-4.8,9.9-5.9,9.9-1.1.2-2-6.4,2.8-12.3,4.7-5.9,11.3-6.6,11.4-5.5M741.8,2250.9c-1,.3-2.7-5.3,0-11.6,2.7-6.2,8-8.8,8.5-7.8.7.9-2.7,4.3-4.9,9.4-2.3,5.1-2.6,9.8-3.7,10M700.7,2185.5c-.5,1-5.6-.4-12,.1-6.4.4-11.3,2.6-11.9,1.7-.7-.8,4.1-5.1,11.6-5.6,7.5-.6,12.8,2.9,12.3,3.8h0ZM563.6,1095l-26.5,164.5,19.3,135.9.8,29.6,19.6,145c-1.1,27.5-6.7,142.6-10.9,166.3-5.2,29.4,9.2,447.4,9.2,447.4l133-5.9s50.3-619.8,50.1-626.6c-.2-6.8,69.1-463.7,69.1-463.7l-263.8,7.3h0Z"/>
  <path class="cls-1" d="M899.7,1120.4s21,458.7,14.1,515.3c-5.6,45.6-145.1,538.7-145.1,538.7l-121.9-20.9,48-532.1,17.4-530.5,187.6,29.5"/>
  <path class="cls-15" d="M807,1302.2c.8,0-15.8,135.1-36.9,301.5-21.1,166.4-61.2,574.4-61.9,574.3-.8,0,38.1-408.1,59.2-574.6,21.1-166.4,38.9-301.2,39.6-301.1"/>
  <path class="cls-1" d="M770.3,333c-7.1-13.9-14.2-28-18-43.1-3.8-15.1-4.1-31.7,2.4-45.9,3.8-8.3,9.7-15.6,12.7-24.2,4.1-11.9,2.4-25.9,9.8-36.1,11.5-15.9,36.1-12.2,53.9-20.5,13.8-6.5,23.5-20.5,38.1-25.2,12.7-4.1,26.6-.2,38.9,5.1,12.3,5.2,24.3,11.9,37.5,13.7,9.5,1.2,19-.1,28.5,0,9.5.2,19.6,2.3,26.3,9.1,6.7,6.8,8.1,19.3.8,25.4,16.7-2.8,32.4,13.8,32.1,30.7-.2,16.9-13,31.8-28.3,38.8-15.4,7-32.9,7.5-49.8,6.2-47.7-3.7-95.6-21.9-128.1-57"/>
  <path class="cls-4" d="M780.6,273.3l-32.5,236.2c-5.5,40.2,44.5,113.8,84.8,117.4,37.7,3.3,50.6-23.8,55.7-61.3,2.4-17.8,4.5-69.4,4.9-71.2,0,0,60.9,2.6,73.4-56.3,6.1-28.5,13.8-88.1,20.1-142.2,6.8-58-32.2-111.6-89.5-123l-5.7-1.1c-62.2-8.7-104.3,39.2-111.2,101.6"/>
  <path class="cls-30" d="M893.5,494.3s-37.7-5.2-72.4-38.1c0,0,11.3,49.5,71.3,55.9l1-17.9"/>
  <path class="cls-1" d="M960.6,346c-.7,4.5-5.1,7.6-9.8,6.9-4.7-.7-7.9-4.9-7.2-9.3.7-4.5,5.1-7.6,9.8-6.9,4.7.7,7.9,4.9,7.2,9.4h0ZM968.6,322.3c-1.3.9-6.7-5.1-15.8-6.9-9-1.9-16.6,1.4-17.4.1-.4-.6,1.1-2.4,4.4-3.9,3.3-1.5,8.6-2.6,14.2-1.5,5.7,1.2,10,4.2,12.3,6.9,2.4,2.7,2.9,4.9,2.3,5.3M875.9,331.4c-.7,4.5-5.1,7.6-9.8,6.9-4.7-.7-7.9-4.9-7.2-9.3.7-4.5,5.1-7.6,9.8-6.9,4.7.7,7.9,4.9,7.2,9.4ZM879,306.2c-1.3.9-6.7-5.1-15.8-6.9-9-1.9-16.6,1.4-17.4.1-.4-.6,1.1-2.4,4.4-3.9,3.3-1.5,8.6-2.6,14.2-1.5,5.7,1.2,10,4.2,12.3,6.9,2.4,2.7,2.9,4.9,2.3,5.3M898.5,380c0-.5,5.9-.4,15.3.3,2.4.2,4.7.2,5.3-1.3.9-1.6.4-4.3-.2-7.2-1.1-6-2.2-12.4-3.3-19-4.5-27-7.3-49.1-6.2-49.2,1.1-.2,5.6,21.6,10.1,48.6,1.1,6.6,2.1,13,3,19.1.3,2.8,1.3,6.1-.6,9.3-1,1.6-2.9,2.5-4.5,2.6-1.6.2-2.9,0-4-.2-9.3-1.3-15-2.4-15-3M870.5,381c1.5.2-.5,10.1,6.6,18.7,7,8.7,17.7,9.7,17.5,11.1,0,.6-2.7,1.5-7.2.7-4.4-.7-10.5-3.4-14.8-8.7-4.3-5.3-5.4-11.5-4.9-15.6.5-4.2,2-6.4,2.7-6.2M888.5,271.1c-1.4,2.3-10.2-.7-21.1-1.5-10.9-1.1-20.1.3-21.1-2.1-.4-1.2,1.5-3.2,5.5-4.9,3.9-1.7,9.9-2.9,16.4-2.3,6.5.6,12.2,2.8,15.8,5.1,3.6,2.4,5.2,4.7,4.6,5.8M970.5,295.4c-2,1.7-7.8-1.6-15.3-3.2-7.4-1.9-14.2-1.4-15.2-3.8-.4-1.2,1-3,4.2-4.4,3.1-1.4,8-2.1,13.2-.9,5.1,1.2,9.2,4,11.4,6.6,2.2,2.6,2.7,5,1.8,5.8"/>
  <path class="cls-4" d="M776.7,318c-.9-.6-38.2-20.1-45,20.5-6.8,40.6,35.4,39,35.7,37.9.3-1.1,9.3-58.4,9.3-58.4h0Z"/>
  <path class="cls-4" d="M0,12413.5"/>
  <path class="cls-1" d="M998.8,241c-7,15-42.8,20.8-69.1,12.9-24.2-7.3-33-22.7-48.4-36.1-6.5-5.7-15.1-9-25.7-10.1-12.9-1.3-23.2,11.5-32.9,20,5.4,32.3-9,64.3-23,93.8-1.5,3.3-3.3,6.8-6.6,8.4-5.5,2.7-12.1-1.6-15.4-6.8-5.3-8.3-5.9-18.7-5.7-28.5.4-22.4,4.4-44.9,13.5-65.4,9.1-20.5,23.6-38.9,42.5-50.9,23.7-15,53.5-19.3,80.8-13.4,27.4,5.9,52.2,21.6,70.9,42.5,8.6,9.7,16.2,20.9,19.1,33.5M916.1,339.2c.3,0,.2-3.5,1.8-9.4,2.3-8.4,7.4-15.7,14.4-20.9,8.5-6.6,22.5-10.2,36-5.2,7,2.6,13.1,7.2,17.5,13.2,4.6,6.2,7.2,14.1,7.3,22.3,0,8.2-2.7,16.1-7.3,22.3-4.4,6-10.5,10.6-17.5,13.2-13.5,5-27.5,1.4-36-5.2-7-5.2-12-12.5-14.4-20.9-1.6-5.9-1.5-9.5-1.8-9.4-.1,0-.2.9-.2,2.5,0,1.7.1,4.1.8,7.2,1.3,6.1,5.1,15.2,14.2,22.4,8.8,7.2,23.8,11.5,38.4,6.2,7.6-2.7,14.3-7.6,19.1-14.2,5.1-6.7,7.9-15.3,8-24.2,0-8.9-3-17.5-8-24.2-4.8-6.5-11.4-11.5-19-14.2-14.7-5.3-29.6-1-38.4,6.2-9.1,7.2-12.9,16.3-14.2,22.4-.7,3.1-.9,5.6-.8,7.2,0,1.7,0,2.5.2,2.5"/>
  <path class="cls-1" d="M819.7,322.4c.3,0,.2-3.5,1.8-9.5,2.3-8.4,7.4-15.7,14.4-20.9,8.5-6.6,22.5-10.2,36-5.2,7,2.6,13.1,7.2,17.5,13.2,4.6,6.2,7.2,14.1,7.3,22.3,0,8.2-2.7,16.1-7.3,22.3-4.4,6-10.5,10.6-17.5,13.2-13.5,5-27.5,1.4-36-5.2-7-5.2-12-12.5-14.4-20.9-1.6-5.9-1.5-9.5-1.8-9.4-.1,0-.2.9-.2,2.5,0,1.7.1,4.1.8,7.2,1.3,6.1,5.1,15.2,14.2,22.4,8.8,7.2,23.7,11.5,38.4,6.2,7.6-2.7,14.3-7.6,19-14.2,5.1-6.7,7.9-15.3,8-24.2,0-8.9-3-17.5-8-24.2-4.8-6.5-11.4-11.5-19-14.2-14.7-5.3-29.6-1-38.4,6.2-9.1,7.2-12.9,16.3-14.2,22.4-.7,3.1-.9,5.6-.8,7.2,0,1.7,0,2.5.2,2.5"/>
  <path class="cls-1" d="M899.1,323.8c.4.8,5.6-1.6,11.6.2,6,1.8,9,6.6,9.8,6.2.4-.2.2-1.7-1.2-3.8-1.3-2-4-4.5-7.7-5.6-3.7-1.1-7.3-.6-9.5.4-2.3,1-3.3,2.1-3,2.5M765.1,312c0,.9,13,1.5,28.9,1.2,16-.2,28.9-1.1,28.9-2,0-.9-13-1.5-29-1.2-16,.2-28.9,1.1-28.9,2"/>
  <path class="cls-4" d="M1022.1,807.7l-101.4,66.9,1.5,26.5,26.4,55.8s12.2,11.6,48.1-24.8c35.9-36.3,81.3-108.6,81.3-108.6l-56-15.9h0Z"/>
  <path class="cls-11" d="M1192.8,668.2c-1.2-2.7-3.7-4.5-6.6-4.9l-49.7-6.7c-4.4-.5-8.7.8-12.1,3.7l-142.2,122.1,6.4,6.3,53.3,12.8,151.7-131.1-1-2.2"/>
  <path class="cls-26" d="M1153.4,678.3c.8,1.2,2.7,1.3,4.2.3,1.6-1,2.2-2.8,1.5-3.9s-2.7-1.3-4.2-.3c-1.6,1-2.2,2.8-1.5,3.9h0Z"/>
  <path class="cls-15" d="M1193.8,670.5c0,.2-3.5,0-9.8-.7l-26.4-3.1-18.2-2.3c-3.1-.6-6.2.2-8.6,2.2-2.6,2.3-5.3,4.6-8.1,7-11.2,9.7-23.5,20.2-36.3,31.3-22.1,18.9-44.2,37.7-66.5,56.4l-20.4,16.8c-4.9,3.9-7.6,6-7.7,5.9-.1-.2,2.3-2.5,7-6.7l19.7-17.5c21.9-19.1,43.8-38.1,65.9-57l36.5-31.1,8.2-7c3-2.5,7.2-3.4,10.6-2.7l18.2,2.6,26.3,4c6.2,1,9.6,1.7,9.6,1.9"/>
  <path class="cls-4" d="M1142.2,696s-4.5-2.2-10.8,10.1c-6.3,12.3-25.2,47.3-25.2,47.3l-21.2-20.3-32.4-4.7s-8.6,4.4-4.5,9.2c4,4.8,22.8,13.9,22.8,13.9l8.7,25-36.1-31.9s-15-.3-13.3,9.4,22.4,44.2,22.4,44.2l-20.5-7.5-20.7-22.1s-7.7-1.8-6.7,5.5c1,7.3,20.3,38.1,20.3,38.1l27.1,24s17.5,3.5,20.6-1.1c3.1-4.6,5.5-11.6,5.5-11.6,0,0,9.8,0,12.7-3.8s3.8-11.2,3.8-11.2c0,0,13.6,6.5,17.6-1,4-7.5,6.9-23.6,7.2-30.1.3-6.5,23.8-61.3,23.7-63.2,0-1.9,9-19.5-1-18.3"/>
  <path class="cls-30" d="M1073.7,835.5c0,.4-3.4.9-8.9.2-5.5-.6-13-2.6-20.4-6.8-7.4-4.1-13.1-9.5-16.5-13.8-3.4-4.3-4.8-7.5-4.5-7.7.8-.6,8.3,10.8,22.6,18.5,14.2,8,27.8,8.4,27.7,9.4h0ZM1069.5,822.2c-.7.6-5.4-3.9-10-10.4-4.6-6.5-7.2-12.5-6.4-13,.8-.5,4.6,4.7,9.1,11.1,4.5,6.4,8,11.7,7.3,12.3h0ZM1093.6,799.8c-.7.6-5.4-3.8-9.5-10.5-4.1-6.7-5.9-12.9-5.1-13.2.9-.4,3.9,5,7.9,11.5,4,6.5,7.4,11.7,6.7,12.3M1117.1,782.8c-1,.1-2.5-6.7-5.6-14.5-3.1-7.8-6.7-13.8-5.9-14.3.7-.6,5.7,4.8,9,13.1,3.4,8.3,3.4,15.7,2.5,15.7"/>
  <path class="cls-2" d="M979.1,823.5l66.8,60s-104.5,114.1-136.8,139.4c-32.3,25.2,10.3-172.2,10.3-172.2l59.7-27.2"/>
  <path class="cls-29" d="M752.4,466.6l-27.8,38.5-108.1,40-49,367.3-39.9,328.5s75.4,13.4,94-13.9c21.8-31.9,192-3.2,203.3,5.4l22.1-74.3,17.9,86s31.5,7.1,47.9-39.9l-7-163s22.1-293.9,20.9-338.2c-1.2-44.3-31.2-167.4-31.2-167.4l-11.2,36.3-97.3-83-34.7-22.3"/>
  <path class="cls-29" d="M647.8,533.8s-71-.2-93.9,131.2c-23,131.5-56,272.5-39,325.3,17,52.8,83.7,204.7,83.7,204.7l91.5-32.9-37.5-238.6,43.4-233.5s5.4-146.5-48.1-156.1"/>
  <path class="cls-4" d="M727.5,1213.1l-37.5-51-77.7,27.9s-2.6,24.8.5,54c2.7,25.8,7.2,53.5,7.2,53.5l92-49s3.9,19.2,9,29.8c5.1,10.7,22.9-.6,22.9-.6l-16.3-64.6"/>
  <path class="cls-4" d="M0,12413.5"/>
  <path class="cls-11" d="M713.7,630.6c-.5,0-.5-6.5-3.1-16.7-2.5-10-8.3-23.6-19-35.3-10.8-11.7-23.8-18.6-33.6-22-9.8-3.5-16.4-4-16.3-4.5,0-.2,1.7-.2,4.6,0,3,.3,7.2,1,12.3,2.6,10.2,3,23.8,9.8,35,22,11.1,12.1,16.8,26.3,18.9,36.7,1.1,5.2,1.5,9.5,1.5,12.5,0,3-.1,4.6-.3,4.6"/>
  <path class="cls-1" d="M910,1022c3.6-57,6.6-114,10.2-171,0-.1,0-.2,0-.3,13.1,56.1,10,116-10,170v1.3"/>
  <path class="cls-20" d="M920.2,851c0-.1,0-.2,0-.4,0,.1,0,.2,0,.4Z"/>
  <path class="cls-1" d="M711.9,1191.8l-21-28.6.7-.2-.2-1.1c-14.1-89-27-170.3-37.7-238.1.4-2.2.8-4.7,1.3-7.5l29.9-163.2,7-38.7c-14.5,152.1,1.1,324.8,20.1,477.4M659.9,978l-7.6-46.6.2-1c2.4,15.2,4.9,31.2,7.4,47.7h0Z"/>
  <path class="cls-21" d="M712.3,1195.1l-21.5-31.8h0l21,28.6.4,3.3"/>
  <path class="cls-20" d="M690.8,1163.2l-.8-1.1-30.1-184.1c-2.6-16.5-5.1-32.4-7.4-47.7.3-1.5.6-3.8,1.1-6.6,10.7,67.9,23.6,149.1,37.7,238.1l.2,1.1-.7.2h0ZM654.9,916.3c5.9-34.7,20.4-118.8,37.2-206l-.4,4.1-7,38.7-29.9,163.2"/>
  <path class="cls-24" d="M652.1,932.9s0-.3.2-1l-.2,1ZM652.2,931.9v-.5c0,0,0,.5,0,.5Z"/>
  <path class="cls-15" d="M711.7,1249.4c.4.7-23.5,14.1-53.3,29.9-29.8,15.8-54.2,28.2-54.6,27.5-.3-.7,23.5-14.1,53.3-29.9,29.8-15.8,54.2-28.1,54.6-27.5Z"/>
  <path class="cls-26" d="M671.7,828.5c-.2.4-7.7-3.1-20-8.1-16-6.6-32.4-12.2-49-16.8-16.7-4.6-33.6-8.2-50.7-10.7-13.1-2-21.3-2.8-21.3-3.3,0-.2,2.1-.2,5.8,0,3.7.1,9.1.5,15.8,1.3,13.3,1.5,31.5,4.5,51.2,10,19.7,5.5,36.9,12.2,49.1,17.8,6.1,2.8,10.9,5.2,14.2,7,3.3,1.8,5,2.9,5,3.1M662.4,1013.6c0,.2-1.5,1-4.5,2.3-3,1.3-7.4,3-12.9,5-11,3.9-26.5,8.5-44,12-17.5,3.4-33.5,5.1-45.2,5.7-5.8.3-10.5.4-13.8.3-3.3,0-5.1-.2-5.1-.4,0-.5,7.2-.9,18.7-2,11.5-1.1,27.4-3.1,44.8-6.5,17.3-3.4,32.8-7.7,43.9-11,11.1-3.4,17.9-5.7,18.1-5.3M711,652.3c-.5.3-5.1-6.8-14.5-16.6-4.7-4.9-10.8-10.3-17.9-15.7-7.9-5.7-16.3-10.7-25.1-14.8-8.9-4-18.1-7.2-27.5-9.5-8.7-2-16.8-3.2-23.5-3.5-13.6-.9-22,.3-22.1-.3,0-.2,2.1-.6,5.9-1.1,1.9-.3,4.3-.5,7-.6,2.7,0,5.9-.3,9.3,0,6.9.1,15.1,1.1,24.1,3,9.7,2.2,19.1,5.4,28.2,9.5,9,4.2,17.5,9.4,25.5,15.3,7.2,5.6,13.3,11.2,17.8,16.4,2.4,2.5,4.2,5,6,7.2,1.7,2.1,3,4.1,4.1,5.7,2.1,3.2,3.2,5.1,3,5.2M851.8,1083.8c0,.2-2.6,0-7.2-.7-6.5-.9-13-2-19.5-3.1-16.4-2.8-39-7-63.9-12.1-24.9-5.1-47.3-10.2-63.5-14.2-8.1-2-14.6-3.6-19.1-4.8-4.5-1.2-7-2-6.9-2.2,0-.2,2.6.2,7.2,1.1,5.2,1.1,11.6,2.4,19.3,3.9,16.9,3.5,39.1,8.2,63.6,13.3l63.7,13,19.3,4c4.5,1,7,1.7,7,1.9M867.3,879.4c0,.8-45.8-1.9-102.2-6.2-56.4-4.2-102.1-8.3-102-9.1,0-.8,45.8,1.9,102.2,6.2,56.4,4.2,102.1,8.3,102,9.1M882.2,699.5c0,.2-2.6.5-7.3.9s-11.6.9-20.1,1.3c-17,.9-40.5,1.5-66.5,1.4-26-.2-49.5-1.1-66.5-2.2-6.7-.4-13.4-.9-20.1-1.5-4.8-.5-7.4-.8-7.3-1s2.7-.2,7.4-.1l20.1.6c17,.5,40.5,1.2,66.4,1.3,22.1,0,44.3,0,66.4-.5l20.2-.3c4.8,0,7.4,0,7.4.2M760.8,531.5c0,.4-5.2,1.4-13.6,3.2-11,2.3-21.8,5.2-32.4,8.6-10.6,3.5-21.1,7.5-31.3,12-7.9,3.5-12.7,5.8-12.9,5.4-.2-.3,4.3-3.3,12-7.3,7.7-4,18.7-8.8,31.3-12.9,12.6-4.1,24.4-6.5,33-7.8,8.6-1.3,14-1.5,14-1.1M875,595.9c-.1.1-2-1.5-5.3-4.5-4.5-4.3-9.1-8.6-13.7-12.9-15-14.2-30.2-28.2-45.7-41.8-15.5-13.6-31.3-27-47.3-40.1l-14.5-11.9c-3.4-2.8-5.2-4.5-5.1-4.6.1-.2,2.2,1.2,5.8,3.7,3.6,2.5,8.8,6.4,15.1,11.2,12.6,9.6,29.7,23.5,47.9,39.5,18.2,16,34,31.2,45.2,42.5,4.4,4.4,8.8,9,13,13.6,3,3.3,4.6,5.2,4.4,5.3M927.3,702.8c-.1.8-9.5-.1-21-.6-11.5-.5-20.9-.4-21-1.2,0-.8,9.4-2.3,21.1-1.8,11.7.5,21,2.8,20.8,3.6h0ZM913.8,892.9c0,.8-9.6,1.3-21.3,1-11.8-.3-21.3-1.2-21.3-2,0-.8,9.6-1.3,21.3-1,11.8.3,21.3,1.2,21.3,2h0ZM907.2,1083c.1.8-11.9,3.7-26.9,6.4-15,2.8-27.3,4.3-27.4,3.5-.2-.8,11.9-3.7,26.9-6.4,15-2.8,27.3-4.3,27.4-3.5h0ZM996.3,934.4c-.4.2-3.3-4.9-7.9-13.1-6-10.7-12.3-21.2-18.8-31.6-6.5-10.4-13.2-20.6-20.2-30.7-5.3-7.8-8.6-12.6-8.3-12.8.3-.2,4.2,4.1,10,11.6,5.8,7.5,13.3,18.1,21,30.4,7.6,12.2,13.9,23.7,18.1,32.2,4.2,8.5,6.4,13.9,6.1,14.1"/>
  <g>
    <path class="cls-27" d="M1874.2,322.9c-2.7,6.7-5.2,13.2-7.5,19.6-2.3,6.4-3.5,9.7-3.5,9.9h-3.7c0-.2-.9-2.6-2.4-7.1-1.6-4.6-3.5-10.1-5.8-16.4h0c-2,5.3-4,10.6-5.9,15.7-1.9,5.1-2.9,7.7-3,7.9h-3.7c-.1-.6-1.2-3.7-3.3-9.5-2.1-5.8-4.5-12.4-7.4-19.8l4.4-2,8.4,24.8h0l8.8-23.7h3.8l8.1,23.7h0l8.6-24.7,4.2,1.7Z"/>
    <path class="cls-27" d="M1924,322.9c-2.7,6.7-5.2,13.2-7.5,19.6-2.3,6.4-3.5,9.7-3.5,9.9h-3.7c0-.2-.9-2.6-2.4-7.1-1.6-4.6-3.5-10.1-5.8-16.4h0c-2,5.3-4,10.6-5.9,15.7-1.9,5.1-2.9,7.7-3,7.9h-3.7c-.1-.6-1.2-3.7-3.3-9.5-2.1-5.8-4.5-12.4-7.4-19.8l4.4-2,8.4,24.8h0l8.8-23.7h3.8l8.1,23.7h0l8.6-24.7,4.2,1.7Z"/>
    <path class="cls-27" d="M1973.8,322.9c-2.7,6.7-5.2,13.2-7.5,19.6-2.3,6.4-3.5,9.7-3.5,9.9h-3.7c0-.2-.9-2.6-2.4-7.1-1.6-4.6-3.5-10.1-5.8-16.4h0c-2,5.3-4,10.6-5.9,15.7-1.9,5.1-2.9,7.7-3,7.9h-3.7c-.1-.6-1.2-3.7-3.3-9.5-2.1-5.8-4.5-12.4-7.4-19.8l4.4-2,8.4,24.8h0l8.8-23.7h3.8l8.1,23.7h0l8.6-24.7,4.2,1.7Z"/>
    <path class="cls-27" d="M1986.5,352.4h-6.1v-6.4h6.1v6.4Z"/>
    <path class="cls-27" d="M2020.4,352.8c-.1,0-.5,0-1.2,0-.6,0-1.2,0-1.5,0-3.8,0-6.8-.2-9-.5-2.2-.3-4.3-1-6.3-2-2.7-1.3-4.7-3-6.1-5.1-1.4-2.1-2.1-4.5-2.1-7.1s.8-5.8,2.3-8.2c1.6-2.4,3.8-4.2,6.7-5.6,1.7-.8,3.7-1.4,5.9-1.8,2.2-.4,4.4-.6,6.5-.6v-14c0,0,4.7,0,4.7,0,0,.4,0,3.2,0,8.5,0,5.2,0,10.6,0,15.9s0,8.1,0,11.5c0,3.4,0,6.4,0,8.9ZM2015.7,331.6v-5.6c-2,0-3.9.2-5.7.5-1.8.3-3.3.8-4.6,1.4-2,.9-3.6,2.3-4.7,4-1.1,1.7-1.7,3.7-1.7,6.1s.5,3.9,1.6,5.4c1.1,1.5,2.4,2.7,4,3.5,1.4.7,3,1.3,4.7,1.7,1.7.4,3.6.6,5.5.6h.8c0-.2,0-1.7,0-4.5,0-2.8,0-7.1,0-12.9Z"/>
    <path class="cls-27" d="M2058.4,337c0,2.3-.4,4.6-1.3,6.7-.8,2.1-2,4-3.6,5.5-1.3,1.3-2.8,2.2-4.4,2.9-1.6.7-3.5,1-5.5,1s-3.8-.3-5.4-1-3.2-1.6-4.5-2.9c-1.5-1.5-2.7-3.3-3.6-5.4-.8-2.2-1.3-4.4-1.3-6.8s.4-4.5,1.1-6.4c.7-1.9,1.8-3.7,3.3-5.3,1.4-1.4,2.9-2.5,4.7-3.3,1.8-.8,3.7-1.1,5.7-1.1s4,.3,5.7,1c1.7.7,3.2,1.7,4.6,3.1,1.5,1.6,2.7,3.4,3.4,5.4.7,2,1.1,4.2,1.1,6.6ZM2053.5,337.3c0-1.9-.3-3.7-.9-5.5-.6-1.8-1.6-3.3-2.9-4.5-.8-.8-1.7-1.4-2.8-1.8-1.1-.4-2.2-.6-3.4-.6s-2.6.2-3.6.7c-1,.4-2,1.1-2.9,2.1-1.1,1.1-1.9,2.5-2.5,4.2-.6,1.7-.9,3.5-.9,5.3s.3,4,.9,5.7c.6,1.7,1.6,3.2,3,4.5.8.7,1.7,1.2,2.7,1.6,1,.4,2.1.6,3.3.6s2.5-.2,3.6-.7c1.1-.4,2.1-1.1,2.9-1.9,1.2-1.2,2-2.6,2.6-4.2.6-1.7.9-3.4.9-5.2Z"/>
    <path class="cls-27" d="M2092.5,322.9c-2.6,6-5.4,12.4-8.4,19.1-3,6.7-4.5,10.2-4.6,10.4h-3.5c-.1-.2-1.6-3.5-4.4-9.8-2.8-6.3-5.7-12.8-8.7-19.3l4.4-2,10.6,25.2h0l10.3-25.2,4.2,1.6Z"/>
    <path class="cls-27" d="M2124.7,352.4h-4.6v-3.5h0c-1.4.9-3.2,1.9-5.3,2.8-2.1,1-4.2,1.5-6.2,1.5s-5-.8-6.5-2.5c-1.6-1.7-2.4-4-2.4-7s0-3.5,0-5.8c0-2.2,0-3.8,0-4.9,0-1.8,0-4.1,0-6.8,0-2.7,0-4.2,0-4.6h4.8c0,.3,0,1.7,0,4.4,0,2.6,0,4.8,0,6.3s0,3.1,0,5.2c0,2.1,0,3.6,0,4.4,0,2.4.5,4.1,1.2,5.2.8,1.1,2.1,1.7,3.8,1.7s3.8-.5,5.9-1.5c2.2-1,3.7-1.8,4.7-2.5,0-.2,0-1.4,0-3.3,0-2,0-4.5,0-7.4s0-4.7,0-7.6c0-3,0-4.6,0-4.8h4.8c0,.3,0,1.5,0,3.4,0,1.9,0,5.2,0,9.9s0,4.9,0,6.9c0,2,0,5.5,0,10.5Z"/>
    <path class="cls-27" d="M2156,348.4l-.4,4.1h-1.7c-2.6,0-5-.2-7.3-.7-2.3-.5-4.3-1.2-6.1-2.2-2.4-1.3-4.3-3.1-5.7-5.3-1.4-2.2-2.1-4.7-2.1-7.4s.6-4.6,1.9-6.7c1.3-2,2.9-3.7,4.9-5,1.8-1.2,4-2.1,6.5-2.7,2.5-.6,5.2-.9,7.9-.9h1.2l.2,4.1h-.9c-2.2,0-4.2.1-5.7.4-1.6.3-3.1.7-4.6,1.3-2,.8-3.6,2.1-4.8,3.8-1.2,1.7-1.8,3.6-1.8,5.6s.5,4.3,1.7,5.9c1.1,1.6,2.6,2.8,4.4,3.7,1.4.7,3,1.2,4.8,1.5,1.8.3,3.7.5,5.6.5h1.9Z"/>
    <path class="cls-27" d="M2189.1,352.4h-4.8c0-.6,0-2.4,0-5.5,0-3,0-5,0-6s0-2.6,0-4.6c0-2,0-3.5,0-4.5,0-2.3-.5-4-1.3-5-.8-1-2.3-1.5-4.3-1.5s-2.6.3-4.4,1c-1.8.7-3.7,1.6-5.7,2.8v23.3c.1,0-4.7,0-4.7,0,0-.8,0-4,0-9.5,0-5.6,0-10.1,0-13.7s0-5.3,0-8.9c0-3.6,0-7.7-.1-12.3h4.8v17.2c-.1,0,0,0,0,0,2.9-1.6,5.2-2.7,7.1-3.4,1.8-.6,3.4-.9,4.7-.9,2.6,0,4.7.8,6.2,2.4,1.6,1.6,2.3,3.9,2.3,6.7s0,4.7,0,6.6c0,1.8,0,3.3,0,4.5,0,1.8,0,3.9,0,6.3,0,2.4,0,4,0,4.9Z"/>
    <path class="cls-27" d="M2220.2,348.4l-.4,4.1h-1.7c-2.6,0-5-.2-7.3-.7-2.3-.5-4.3-1.2-6.1-2.2-2.4-1.3-4.3-3.1-5.7-5.3-1.4-2.2-2.1-4.7-2.1-7.4s.6-4.6,1.9-6.7c1.3-2,2.9-3.7,4.9-5,1.8-1.2,4-2.1,6.5-2.7,2.5-.6,5.2-.9,7.9-.9h1.2l.2,4.1h-.9c-2.2,0-4.2.1-5.7.4-1.6.3-3.1.7-4.6,1.3-2,.8-3.6,2.1-4.8,3.8-1.2,1.7-1.8,3.6-1.8,5.6s.5,4.3,1.7,5.9c1.1,1.6,2.6,2.8,4.4,3.7,1.4.7,3,1.2,4.8,1.5,1.8.3,3.7.5,5.6.5h1.9Z"/>
    <path class="cls-27" d="M2253.2,352.4h-4.8c0-.6,0-2.4,0-5.5,0-3,0-5,0-6s0-2.6,0-4.6c0-2,0-3.5,0-4.5,0-2.3-.5-4-1.3-5-.8-1-2.3-1.5-4.3-1.5s-2.6.3-4.4,1c-1.8.7-3.7,1.6-5.7,2.8v23.3c.1,0-4.7,0-4.7,0,0-.8,0-4,0-9.5,0-5.6,0-10.1,0-13.7s0-5.3,0-8.9c0-3.6,0-7.7-.1-12.3h4.8v17.2c-.1,0,0,0,0,0,2.9-1.6,5.2-2.7,7.1-3.4,1.8-.6,3.4-.9,4.7-.9,2.6,0,4.7.8,6.2,2.4,1.6,1.6,2.3,3.9,2.3,6.7s0,4.7,0,6.6c0,1.8,0,3.3,0,4.5,0,1.8,0,3.9,0,6.3,0,2.4,0,4,0,4.9Z"/>
    <path class="cls-27" d="M2285.2,335.1c0,5,0,9.1,0,12.2,0,3.1,0,4.8,0,5.1-.2,0-1.1,0-2.8.2-1.7.1-3.8.2-6.5.2s-3.3-.2-5-.5c-1.7-.3-3.1-.7-4.3-1.3-1.6-.7-2.9-1.8-3.9-3.1-1-1.3-1.5-2.8-1.5-4.7s.6-3.6,1.8-5c1.2-1.4,2.8-2.5,4.9-3.4,1.3-.5,3.1-1,5.3-1.5,2.2-.4,4.7-.8,7.5-1-.1-1.6-.5-2.9-1.2-3.9-.7-1-1.6-1.8-2.9-2.3-.9-.4-1.9-.6-3-.8s-2.4-.2-3.8-.2-1.7,0-2.3,0c-.6,0-1.5,0-2.6.2l.5-4c.3,0,.9,0,1.8-.1.9,0,2.1,0,3.7,0,2.4,0,4.5.2,6.4.7,1.9.5,3.4,1.3,4.6,2.4,1.2,1,2,2.3,2.6,3.9.6,1.5.9,3.8.9,6.7ZM2280.6,342.4v-2.6c0-1,0-2.3,0-3.6-.9,0-2.4.2-4.7.5-2.2.3-4.1.8-5.6,1.3-1.1.4-2.1,1.1-3,1.9-.9.8-1.3,1.9-1.3,3.1s.4,2.5,1.1,3.3c.7.8,1.8,1.5,3.1,1.9,1,.3,2.1.6,3.3.7,1.2.2,2.5.2,3.8.2s.9,0,1.5,0c.6,0,1.2,0,1.8,0,0-.1,0-.8,0-2,0-1.2,0-2.8,0-4.8Z"/>
    <path class="cls-27" d="M2301.5,352.4h-6.1v-6.4h6.1v6.4Z"/>
    <path class="cls-27" d="M2337,352.4h-4.6v-3.5h0c-1.4.9-3.2,1.9-5.3,2.8-2.1,1-4.2,1.5-6.2,1.5s-5-.8-6.5-2.5c-1.6-1.7-2.4-4-2.4-7s0-3.5,0-5.8c0-2.2,0-3.8,0-4.9,0-1.8,0-4.1,0-6.8,0-2.7,0-4.2,0-4.6h4.8c0,.3,0,1.7,0,4.4,0,2.6,0,4.8,0,6.3s0,3.1,0,5.2c0,2.1,0,3.6,0,4.4,0,2.4.5,4.1,1.2,5.2.8,1.1,2.1,1.7,3.8,1.7s3.8-.5,5.9-1.5c2.2-1,3.7-1.8,4.7-2.5,0-.2,0-1.4,0-3.3,0-2,0-4.5,0-7.4s0-4.7,0-7.6c0-3,0-4.6,0-4.8h4.8c0,.3,0,1.5,0,3.4,0,1.9,0,5.2,0,9.9s0,4.9,0,6.9c0,2,0,5.5,0,10.5Z"/>
    <path class="cls-27" d="M2370.2,352.2c-.1,0-1.8,0-5.1,0-3.3,0-5.7,0-7.3,0s-4.5,0-7.3,0c-2.9,0-4.4,0-4.5,0l-1-2.8c2-2.6,4.7-6,8-10.3,3.3-4.3,6.7-8.7,10.2-13.2h0c-.9,0-1.8,0-2.6,0-.9,0-1.8,0-2.6,0-1.9,0-4.4,0-7.4,0s-4.6,0-4.7,0v-3.8c.2,0,1.8,0,4.9,0,3.1,0,5,0,5.7,0,1.4,0,3.6,0,6.6,0,3,0,4.6,0,4.9,0l1.5,2.8c-3.5,4.3-7.2,9.1-11.1,14.3-4,5.2-6.3,8.3-7,9.1h0c.8,0,1.8,0,3,0,1.2,0,2.6,0,4,0,4.1,0,7,0,8.9,0s2.8,0,3,0v3.9Z"/>
  </g>
  <path class="cls-14" d="M1195.9,1065.4c2.7-26.7,19.4-76.9,104.2-96.5,18-4.2,36.8-3.4,54.2,2.7,25.7,8.9,57.5,28.7,53,71.3s-.2,3.5-.2,4.3c-.1,9.4-2.8,69.6-53.5,96-32.3,16.8-79,27.5-113.7,17.2-38.1-11.3-52.3-58-27.7-89.2,17.4-22.1,49.8-49.9,107.2-62.9.9-.2,1.8-.1,2.7.2,6,2.2,31.1,10.2,30.4-8.1-.2-5.4-2.6-10.5-6.5-14.2s-13-8.6-24-1.2c0,0-.2.1-.3.2-.9.5-7.2,4.5-7.4,13s-1.6,4.2-3.7,4.7c-15.6,3.7-73.3,19.9-106,66.1-2.8,4-9.2,1.6-8.7-3.3Z"/>
  <path class="cls-14" d="M1311,1059.5l6.8,12.7s10.6-5.7,16.8,5.2c3.2,5.7,1,10.7-1.2,13.4-2.6,3.2-6.6,4.8-10.7,4.6-4.7-.2-10.5-3.2-13.5-12.6l-28.6,15.4,6.7,12.5,16.7-9s14,15.1,33.4,4.7c18.5-10,13.9-28.9,10.1-36-2.9-5.4-14.2-23.2-36.4-11"/>
  <polyline class="cls-14" points="1262.8 1107.8 1274.7 1101.4 1281.5 1114.1 1269.6 1120.5"/>
  <path class="cls-14" d="M2896.4,356.6c-29.9-5.7-85-29.6-98.4-127.8-2.8-20.3.1-41.1,8.6-59.8,12.6-28,38-61.8,85.4-52.5s3.9.5,4.8.6c10.5,1.1,78,10.1,102.6,69.8,25.8,62.4,29,167.4-52.9,175-5.9.5-11.8-.8-16.9-3.8-20.3-12-72.7-51.5-85.4-146.2-.1-1,0-2.1.5-3,3-6.5,14.6-34-6-35-6.1-.3-12.2,1.8-16.7,5.9s-10.9,13.7-3.7,26.8c0,.1.1.2.2.3.5,1.1,4.3,8.6,14,9.7,2.5.3,4.4,2.2,4.7,4.7,2.6,18,15.1,84.4,63.8,125.8,4.2,3.6,1,10.5-4.5,9.4Z"/>
  <path class="cls-14" d="M2897.3,222.6l16.2-5.6s-4.7-13.6,9.3-18.7c7.3-2.7,12.7.8,15.5,4,3.3,3.6,4.4,8.7,3.4,13.5-1.2,5.5-5.8,11.6-17.3,13.5l12.6,36.4,16-5.5-7.4-21.3s20.4-13.5,11.9-38.2c-8.2-23.6-31.3-21.8-40.3-18.6-6.9,2.4-30,12.2-19.8,40.6"/>
  <polyline class="cls-14" points="2944.8 288.3 2939.6 273.2 2955.8 267.6 2961 282.7"/>
  <line class="cls-14" x1="2961" y1="282.7" x2="2944.8" y2="288.3"/>
  <path class="cls-8" d="M1311.5,1787.8l-23.1,31s26.1,19.4,6.3,46.9c-10.2,14.3-24.9,14.7-34.2,12.4-10.7-2.7-19.3-10.7-23.5-20.9-4.7-11.7-4-29.2,15.2-47.3l-70-52.2-22.9,30.7,41,30.5s-21,51.4,26.5,86.7c45.4,33.8,86.3,1,99.3-16.5,9.9-13.3,40.5-61.1-14.7-101.4M1115.5,1756.3l23.2-31.2,29.1,21.7-23.2,31.2-29.1-21.7"/>
</svg>