<?xml version="1.0" encoding="UTF-8"?>
<svg id="Layer_1" data-name="Layer 1" xmlns="http://www.w3.org/2000/svg" version="1.1" viewBox="0 0 2167 2052">
  <defs>
    <style>
      .cls-1 {
        fill: #002c00;
      }

      .cls-1, .cls-2, .cls-3, .cls-4, .cls-5, .cls-6, .cls-7, .cls-8, .cls-9, .cls-10, .cls-11, .cls-12, .cls-13, .cls-14, .cls-15, .cls-16, .cls-17, .cls-18, .cls-19, .cls-20, .cls-21, .cls-22 {
        stroke-width: 0px;
      }

      .cls-2 {
        fill: #1b1b43;
      }

      .cls-3 {
        fill: #aed98b;
      }

      .cls-4 {
        fill: #d28572;
      }

      .cls-5 {
        fill: #fcf3e9;
      }

      .cls-6 {
        fill: #7fc246;
      }

      .cls-7 {
        fill: #487a37;
      }

      .cls-8 {
        fill: #ffa988;
      }

      .cls-9 {
        fill: #6dab37;
      }

      .cls-10 {
        fill: #c5c5ff;
      }

      .cls-11 {
        fill: #b58f64;
      }

      .cls-12 {
        fill: #ffbc96;
      }

      .cls-13 {
        fill: #fff6e9;
      }

      .cls-14 {
        fill: #4f8420;
      }

      .cls-15 {
        fill: #e5f5d7;
      }

      .cls-16 {
        fill: #e8efb8;
      }

      .cls-17 {
        fill: #8b5e3c;
      }

      .cls-18 {
        fill: #ffc77a;
      }

      .cls-19 {
        fill-rule: evenodd;
      }

      .cls-19, .cls-22 {
        fill: #fff;
      }

      .cls-20 {
        fill: #ffa121;
      }

      .cls-21 {
        fill: #d1d1ff;
      }
    </style>
  </defs>
  <g id="b">
    <path id="a" class="cls-19" d="M1069,1123c0,42.6,34.5,77.1,77.1,77.1h856.8c42.6,0,77.1-34.5,77.1-77.1v-521.3h-1011v521.3"/>
  </g>
  <path class="cls-9" d="M1153,754.6l-1.5-3,18-8.7,1.5,3-18,8.7M1117,772.1l-1.5-3,18-8.7,1.5,3-18,8.7M1081,789.5l-1.5-3,18-8.7,1.5,3-18,8.7M1045,807l-1.5-3,18-8.7,1.5,3-18,8.7M1009.1,824.5l-1.4-3,18-8.7,1.5,3-18,8.7M972.2,840.4l-1.2-3.1c6.2-2.4,12.3-4.9,18.4-7.5l1.3,3.1c-6.1,2.6-12.3,5.2-18.6,7.6M934.4,853.7l-1-3.2c6.4-2,12.8-4.1,18.9-6.3l1.1,3.1c-6.3,2.2-12.7,4.3-19,6.3M895.8,864.6l-.8-3.2c6.5-1.7,13-3.4,19.3-5.2l.9,3.2c-6.4,1.8-12.9,3.6-19.3,5.2M858.2,876.9l-1.5-3c6.1-3,12.4-5.5,18.8-7.5l1,3.2c-6.3,1.9-12.4,4.4-18.3,7.3M826.7,900.1l-2.4-2.3c1-1,2-2.1,3-3.1,3.7-3.7,7.8-7.2,12.2-10.4l2,2.7c-4.2,3.1-8.1,6.4-11.8,10.1-1,1-1.9,2-2.9,3M806.3,933.4l-3.1-1.1c2.3-6.4,5.3-12.5,8.8-18.3l2.8,1.7c-3.4,5.6-6.3,11.5-8.5,17.7M834.8,936.8c-6.3-1.2-12.9-1.9-19.6-2.1v-3.3c7,.2,13.7.9,20.2,2.1l-.6,3.3M776.1,939.6l-.9-3.2c6.5-1.8,13.1-3.1,19.8-3.9l.4,3.3c-6.5.8-13,2.1-19.4,3.8M870.7,951.7c-4.9-3.7-10.6-6.9-17-9.5l1.2-3.1c6.7,2.7,12.7,6.1,17.8,9.9l-2,2.7M739.9,955.2l-1.8-2.8c5.7-3.5,11.7-6.7,17.9-9.3l1.3,3.1c-6.1,2.6-11.9,5.6-17.5,9.1M798.3,972.4c-.4-3.2-.6-6.4-.6-9.7s.2-7.1.7-10.7l3.3.4c-.4,3.4-.7,6.9-.7,10.3s.2,6.2.5,9.3l-3.3.4M710.2,980.9l-2.6-2.1c4.3-5.2,9.1-10,14.2-14.4l2.2,2.5c-5,4.3-9.6,9-13.8,14.1M891.4,984.4h-3.3v-1c0-5-1-9.9-2.9-14.2-.5-1.1-1.1-2.2-1.7-3.3l2.9-1.6c.6,1.1,1.2,2.3,1.8,3.5,2.1,4.7,3.2,10.1,3.2,15.5v1M814.4,1009.5c-4.5-4.8-8.2-10.6-11-17.3l3.1-1.3c2.6,6.3,6.1,11.8,10.3,16.3l-2.4,2.3M688.4,1014.1l-2.8-1.8c3.5-5.7,7-11.3,10.4-17.1l2.9,1.7c-3.4,5.7-6.9,11.4-10.4,17.1M871.4,1018.9l-1.7-2.9c5.5-3.2,10.1-7.8,13.3-13.4l2.9,1.6c-3.5,6.1-8.5,11.2-14.5,14.7M849.3,1024.6c-6.2,0-12.4-1.2-18-3.4l1.2-3.1c5.2,2.1,11,3.2,16.7,3.2h2.1l.2,3.3h-2.3M666.6,1047.7l-2.8-1.9c3.7-5.5,7.4-11.1,11-16.6l2.8,1.8c-3.6,5.6-7.3,11.2-11.1,16.7M643.4,1080.4l-2.7-2c4-5.3,7.9-10.7,11.7-16.1l2.7,1.9c-3.9,5.4-7.8,10.9-11.8,16.2M618.8,1112l-2.6-2.1c4.2-5.1,8.4-10.3,12.5-15.6l2.6,2.1c-4.1,5.3-8.3,10.5-12.5,15.6M592.6,1142.3l-2.5-2.2c4.4-4.9,8.9-9.9,13.2-14.9l2.5,2.2c-4.4,5.1-8.8,10.1-13.3,15M564.8,1171.2l-2.3-2.4c4.7-4.6,9.4-9.4,14-14.2l2.4,2.3c-4.6,4.8-9.3,9.6-14.1,14.3M535.9,1198.9l-2.3-2.4,14.5-13.8,2.3,2.4-14.5,13.8"/>
  <path class="cls-3" d="M1091.5,134.7v2h438.4c-1.1-36.1-32.6-65.1-71.2-65.1s-24,3-34.1,8.2c.5-28.1-13-55.1-37.9-69.5-37.4-21.7-86.2-7-109.1,32.8-6.9,12-10.7,24.9-11.5,37.7-18.2-8.3-40.8-13.3-65.3-13.3-60.4,0-109.3,30.1-109.3,67.1"/>
  <path class="cls-9" d="M3.3,1156.6h356.6v-.4c0-29.6-39.6-53.8-88.3-53.8s-37.6,3.7-53,10.8l-1.6.7v-1.8c-.8-10.7-3.9-20.9-9.4-30.4-9.3-16.1-24-27.6-41.4-32.3-15.9-4.3-32.4-2.2-46.3,5.8-19.2,11.1-30.9,32.5-30.4,55.8v2.1l-1.8-.9c-8.4-4.3-17.8-6.6-27.4-6.6-30.6,0-55.4,22.2-57,50.8M362.2,1159.1H.7v-1.3c1-30.6,27.2-54.5,59.6-54.5s18.4,2,26.7,5.9c.2-23.4,12.2-44.7,31.7-56,14.5-8.4,31.6-10.5,48.2-6.1,18.1,4.8,33.3,16.7,42.9,33.5,5.3,9.3,8.5,19.3,9.5,29.7,15.4-6.7,33.5-10.3,52.4-10.3,50.1,0,90.8,25.2,90.8,56.3s0,1.2,0,1.8v1.1"/>
  <path class="cls-21" d="M1069,707.1"/>
  <path class="cls-3" d="M1067.9,665.8c1.1-37.8-2.6,2,38.3-1.1s82.5,20,100.4,55.7c21.7-.2,43.2,11.9,53.7,30.2,10.6,18.4,9.8,42.3-1.9,60,25.9,4.5,49.1,21.5,60.6,44.4s10.8,51-1.6,73.4c28.5-14.5,64.9-13.2,92.3,3.3,27.3,16.5,44.6,47.6,43.6,78.7,17.7-27.8,51.8-45.2,85.6-43.6,33.8,1.5,66.1,21.9,81.1,51.2,15.9-47.5,58.2-85.9,108.3-98.1,50.1-12.3,106.3,2,143.8,36.4,56.4,8.8,97.5,70.1,82.8,123.3.6.5,1.3,1.1,1.9,1.6,45.2,39.1,19.6,113.1-40,117.8-2.9.2-5.9.6-9,1.2l-826.4-38.4"/>
  <path class="cls-15" d="M1907.9,1200.2h-384.4c20-19.4,39.7-40.4,58.9-62.7.5,1,1.1,2,1.5,3,.9-2.8,1.9-5.5,2.9-8.2,18.3-21.5,36.3-44.2,53.8-67.7,14.5-10.2,30.8-17.9,48-22.3,11.6-2.9,23.5-4.4,35.4-4.4,38,0,76,14.5,103.5,40.7,53.9,8.7,93.3,68.7,80.3,121.7M1069,972.9v-181.9c6.1-1.8,12.4-3,18.8-3.5,2.4-.2,4.8-.3,7.1-.3,37.1,0,73.6,22.4,89.8,55.9h.6c20.8,0,41.2,12,51.3,30.2,10.2,18.4,9.4,42.3-1.9,60,3.4.6,6.7,1.4,10,2.5-57.4,17.3-115.3,28.9-175.8,37.1"/>
  <path class="cls-13" d="M1620,1018c-15.1-29.3-47.3-49.7-81.1-51.2h-4.2c-32.4,0-64.4,17-81.4,43.7,1-31.1-16.3-62.2-43.6-78.7-14.7-8.9-32-13.3-49.3-13.3s-29.8,3.3-42.9,10c3.7-6.6,6.3-13.6,7.9-20.9,130.2-52.7,262.5-140.2,420.7-289l23.7,21.2c-45.1,47.8-107.6,95.6-179.9,157.7l110.8-45.2c-13.6,22.5-33.4,54-44.5,67.5,25.5-11.8,66.6-37.7,80.2-51.5,0,19.2-23.1,51.3-33.2,68.8,52.2-44.7,100.2-98,122.7-147.2l23.2,20.7c-32.5,68.1-69.8,138.8-110.9,207.2-3.3.6-6.6,1.3-9.9,2.1-50.1,12.3-92.4,50.6-108.3,98.1"/>
  <path class="cls-16" d="M1582.4,1137.5c-15.1-27.7-45.2-46.7-76.8-48.2h-4c-31.3,0-62.3,17.1-78.8,43.8.9-31.1-15.7-62.2-42.1-78.7-14.2-8.9-30.9-13.3-47.6-13.3s-28.8,3.3-41.6,10.1c12.1-22.4,12.7-50.5,1.6-73.4-9.6-19.8-27.6-35.2-48.5-41.9,27.3-8.2,54.1-17.7,80.5-28.3-1.6,7.3-4.2,14.3-7.9,20.9,13.2-6.7,28.1-10,42.9-10s34.6,4.5,49.3,13.3c27.3,16.5,44.6,47.6,43.6,78.7,17-26.7,49-43.7,81.4-43.7s2.8,0,4.2,0c33.8,1.5,66.1,21.9,81.1,51.2,15.9-47.5,58.2-85.9,108.3-98.1,3.3-.8,6.6-1.5,9.9-2.1-30.6,50.9-63.3,100.5-97.6,146.7-23.9,16.8-43.1,40.5-53.8,67.7-1.5,1.8-3,3.5-4.5,5.3"/>
  <path class="cls-5" d="M1523.5,1200.2h-377.3c-42.6,0-77.1-34.5-77.1-77.1v-150.2c60.5-8.1,118.4-19.8,175.8-37.1,20.9,6.7,38.9,22.1,48.5,41.9,11,22.9,10.4,51-1.6,73.4,12.8-6.7,27.2-10.1,41.6-10.1s33.4,4.5,47.6,13.3c26.4,16.5,43,47.5,42.1,78.7,16.5-26.7,47.4-43.8,78.8-43.8s2.6,0,4,0c31.6,1.5,61.7,20.5,76.8,48.2-19.2,22.3-38.9,43.3-58.9,62.7M1586.9,1132.2c10.7-27.2,29.9-50.9,53.8-67.7-17.5,23.6-35.4,46.2-53.8,67.7"/>
  <path class="cls-20" d="M1785.5,621.9c-45.7,54-114.5,105.7-195.7,175.5l110.8-45.2c-13.6,22.5-33.4,54-44.5,67.5,25.5-11.8,66.6-37.7,80.2-51.5,0,19.2-23.1,51.3-33.2,68.8,59.1-50.6,112.9-112.3,130.2-166.6l-47.9-48.6"/>
  <path class="cls-22" d="M1824.1,661l-30.1-30.6c1.5-1.9,3-3.9,4.5-5.8l27.3,31.3c-.5,1.7-1.1,3.4-1.6,5.1"/>
  <path class="cls-18" d="M1748.6,766.2c6-11.6,19.7-32.8,19.9-45.4-8,9.1-32.1,26.5-47,34.5,6.6-8.9,18.4-29.8,26.5-44.6l-64.7,30.7c45.2-44,83.8-77.2,110.7-111l30.1,30.6c-12,34.4-42.4,73.1-75.5,105.2"/>
  <path class="cls-3" d="M1379.2,808.1c.4,8.4,0,22.5-8.3,27.3-13.9,8.1-24.9-11.5-30-21.3-6.1-11.8-4.5-26.3,9.3-31.6,18.2-6.9,28.4,10.1,29.1,25.6M2039.3,1061.6c.4,8.3,0,22.4-8.3,27.3-13.9,8.1-24.9-11.5-30-21.4-6.1-11.7-4.5-26.3,9.3-31.6,18.2-6.9,28.4,10.1,29.1,25.6M1316.9,713.6c0,6.5-5.2,11.7-11.7,11.7s-11.7-5.2-11.7-11.7,5.2-11.7,11.7-11.7,11.7,5.2,11.7,11.7M1916.3,924.2c0,9.8-7.9,17.8-17.8,17.8s-17.8-7.9-17.8-17.8,7.9-17.8,17.8-17.8,17.8,7.9,17.8,17.8"/>
  <path class="cls-9" d="M1070.7,603.4v519.6c0,41.6,33.8,75.5,75.5,75.5h856.8c41.6,0,75.5-33.9,75.5-75.5v-519.6h-1007.8ZM2002.9,1201.9h-856.8c-43.4,0-78.8-35.4-78.8-78.8v-522.9h1014.4v522.9c0,43.4-35.3,78.8-78.8,78.8"/>
  <path class="cls-22" d="M2002.9,399.8h-856.8c-42.6,0-77.1,34.5-77.1,77.1v124.8h1011v-124.8c0-42.6-34.5-77.1-77.1-77.1"/>
  <path class="cls-9" d="M1070.7,600.1h1007.7v-123.2c0-41.6-33.9-75.5-75.5-75.5h-856.8c-41.6,0-75.5,33.9-75.5,75.5v123.2h.1ZM2081.7,603.4h-1014.4v-126.5c0-43.5,35.4-78.8,78.8-78.8h856.8c43.5,0,78.8,35.3,78.8,78.8v126.5"/>
  <path class="cls-3" d="M1213.2,500.8c0,23.4-18.9,42.3-42.3,42.3s-42.3-18.9-42.3-42.3,18.9-42.3,42.3-42.3,42.3,18.9,42.3,42.3"/>
  <path class="cls-22" d="M1337.7,500.8c0,23.4-18.9,42.3-42.3,42.3s-42.3-18.9-42.3-42.3,18.9-42.3,42.3-42.3,42.3,18.9,42.3,42.3"/>
  <path class="cls-9" d="M1295.5,460.2c-22.4,0-40.6,18.2-40.6,40.6s18.2,40.6,40.6,40.6,40.6-18.2,40.6-40.6-18.2-40.6-40.6-40.6h0ZM1295.5,544.7c-24.2,0-44-19.7-44-44s19.7-43.9,44-43.9,43.9,19.7,43.9,43.9-19.7,44-43.9,44"/>
  <path class="cls-22" d="M1617.4,541.2h-168.4c-22.3,0-40.4-18.1-40.4-40.4s18.1-40.4,40.4-40.4h168.4c22.3,0,40.4,18.1,40.4,40.4s-18.1,40.4-40.4,40.4"/>
  <path class="cls-6" d="M1449,462.1c-21.3,0-38.7,17.4-38.7,38.7s17.4,38.7,38.7,38.7h168.4c21.3,0,38.7-17.4,38.7-38.7s-17.4-38.7-38.7-38.7h-168.4ZM1617.4,542.8h-168.4c-23.2,0-42-18.9-42-42s18.9-42,42-42h168.4c23.2,0,42,18.9,42,42s-18.9,42-42,42"/>
  <path class="cls-14" d="M1961,307.8c-67.5,59.1-184,18.4-220.2,65.6l103.4,81.9,116.8-147.4"/>
  <path class="cls-3" d="M1740.8,373.4c-5.2,13.8-2.4,29.3,7.3,40.3l73.3,83.9,22.8-42.4-103.4-81.9"/>
  <path class="cls-14" d="M2114,429c-42.1,79.3,24.3,183.3-13.4,229.3l-103.4-81.9,116.8-147.4"/>
  <path class="cls-3" d="M2100.7,658.3c-12.2,8.2-27.9,9-40.9,2.1l-98.5-52.1,36-31.9,103.4,81.9"/>
  <path class="cls-1" d="M2166.6,206.2l-92.1,33.8,80.3,63.6,11.8-97.3h0Z"/>
  <path class="cls-6" d="M2154.8,303.6c-12.9,145.7-120.5,281.6-251.2,357.1l-119.1-94.2c50-157.3,143.1-269.8,290.1-326.4l80.3,63.6"/>
  <path class="cls-14" d="M1784.4,566.4l-51.7,35.8,147.8,117,23-58.6-119.1-94.2"/>
  <path class="cls-22" d="M2083.3,400.4c-19,23.9-53.7,28-77.7,9-23.9-19-28-53.7-9-77.7s53.7-28,77.7-9c23.9,19,28,53.7,9,77.7"/>
  <path class="cls-9" d="M2028.1,332l-1.1-3.1c3.3-1.1,6.7-1.8,10.2-2.1l.2,3.3c-3.2.2-6.3.9-9.3,1.9h0ZM2056,333.8c-2.9-1.4-5.9-2.5-9-3.1l.6-3.3c3.4.7,6.7,1.8,9.9,3.4l-1.5,3ZM2012.5,342.7l-2.5-2.2c2.3-2.7,4.9-5,7.7-7l1.9,2.8c-2.6,1.8-5,3.9-7.1,6.4h0ZM2070.1,346.3c-1.8-2.7-3.9-5.1-6.2-7.2l2.2-2.5c2.6,2.3,4.9,5,6.8,7.9l-2.8,1.8h0ZM2004.4,359.8l-3.3-.6c.6-3.4,1.7-6.8,3.2-9.9l3,1.4c-1.4,2.9-2.3,5.9-2.9,9.1h0ZM2076,364.3c-.2-3.2-.7-6.3-1.7-9.4l3.2-1c1.1,3.3,1.7,6.8,1.9,10.2l-3.3.2h0ZM2003,379.7c-1.2-3.3-2-6.7-2.3-10.2l3.3-.3c.3,3.2,1,6.3,2.1,9.3l-3.1,1.2ZM2074.9,384.3l-2.9-1.5c1.5-2.8,2.6-5.8,3.2-9l3.3.7c-.7,3.4-1.9,6.7-3.5,9.8h-.1ZM2014.9,396.5c-2.7-2.2-5.1-4.8-7.1-7.6l2.7-1.9c1.8,2.6,4,4.9,6.5,7l-2.1,2.6h0ZM2063.4,397.8l-2-2.7c2.6-1.9,4.9-4.1,6.8-6.6l2.6,2.1c-2.2,2.7-4.7,5.2-7.5,7.2h0ZM2033.7,405c-3.4-.5-6.8-1.5-10-3l1.4-3c2.9,1.3,6,2.2,9.1,2.7l-.5,3.3ZM2044.1,405.3l-.3-3.3c3.2-.3,6.3-1.1,9.3-2.2l1.2,3.1c-3.3,1.3-6.7,2.1-10.1,2.5"/>
  <path class="cls-1" d="M1767.5,712.9l-2.6-2.1c-3.9-3.1-4.5-8.7-1.5-12.6l103.7-130.9c3.1-3.9,8.7-4.5,12.6-1.5l2.6,2.1c3.9,3.1,4.5,8.7,1.5,12.6l-103.7,130.9c-3.1,3.9-8.7,4.5-12.6,1.5"/>
  <path class="cls-2" d="M0,0"/>
  <path class="cls-6" d="M1914.7,1796.5h-425.5c-27.2,0-49.2-22-49.2-49.2v-272.1c0-27.2,22-49.2,49.2-49.2h425.5c27.2,0,49.2,22,49.2,49.2v272.1c0,27.2-22,49.2-49.2,49.2"/>
  <path class="cls-22" d="M1587.8,1757.7h-56.7v-115.2h56.7v115.2M1682.8,1757.7h-56.7v-111.5h56.7v111.5M1777.8,1757.7h-56.7v-169.8h56.7v169.8M1872.8,1757.7h-56.7v-219.6h56.7v219.6M1854.1,1491.5h-304.4v-13.3h304.4v13.3"/>
  <path class="cls-11" d="M622.8,1064.3c-9.6-33.4-30.1-62.8-58.1-83.4l-11.3-8.3,9.5,197.6,73.9-57.1-14.1-48.8"/>
  <path class="cls-12" d="M860.2,1303.2l-16.4-32.1c-4.2-8.1-11.5-14.2-20.3-16.6l-48.3-13.4-124.2-79.3-14-48.7-73.9,57.1.7,13.9c1.3,27.9,18.4,52.5,44,63.5l120.6,52,57.3,1.3c18.5,6.4,24.8,22.3,36.3,16.6,4.3-2.1-12.4-29.6-12.4-29.6l27.7,30.6,22.9-15.3"/>
  <path class="cls-4" d="M636.2,1182.2l-2.9-2.5,16.2-19.1,2.9,2.5-16.2,19.1"/>
  <path class="cls-7" d="M644.2,1383.3l90.4-8c58.8-5.2,110,42.3,112.9,104.8l20.4,445.1-124.7,3.9-99-545.8"/>
  <path class="cls-1" d="M753.2,1924.6l3.8,122.9h184.7l-91.1-75.8-5.7-59.2-91.7,12.1"/>
  <path class="cls-22" d="M814.1,2004.7l-4.7-6.1,38.9-29.9,4.7,6.1-38.9,29.9"/>
  <path class="cls-3" d="M711.2,1924.6l3.8,122.9h184.7l-91.1-75.8-5.7-59.2-91.7,12.1"/>
  <path class="cls-22" d="M772.1,2004.7l-4.7-6.1,38.9-29.9,4.7,6.1-38.9,29.9"/>
  <path class="cls-6" d="M848.7,1936.7h-152.9l-109-335.3-15.2-46.9-217.9-1c-13.5-.2-26.3-6.4-37.3-15.6-23.2-19.5-33.8-50.2-29.6-80.2l19.1-136.3,323.6,42.1c61.4,8,111,53.9,123.6,114.5l95.5,458.7"/>
  <path class="cls-1" d="M616.6,1554.5l-29.7,46.9-15.2-46.9h44.9Z"/>
  <path class="cls-11" d="M576.5,1296.7c-1.6,6.3-3.2,12.7-4.9,19l-11.5,46.8-151-6.3-108.7-4.5c-28.8-1.2-49.7-27.9-43.8-56.2l50.7-243.9c6.5-41.5,40.2-73.4,81.9-77.7l124-12.8,40.1,11.5c39.2,21,39.2,59.1,41.1,84.1,8.2,109.2-1.9,175.4-18,240"/>
  <path class="cls-17" d="M317.5,1362.5h246.7v-241.1h-246.7v241.1Z"/>
  <path class="cls-1" d="M444.2,1031.7c6.6,7.1,14.1,13.3,22.6,17.9,8.4,4.6,17.5,8,27,9.1,9.4,1.2,19.2.4,27.4-4,8.4-4.2,13.7-13,14.7-22.5h1.5c0,5.1-1.3,10.1-3.8,14.6s-6.3,8.2-10.8,10.8c-9,5.2-19.6,6.1-29.6,4.9-10-1.4-19.6-4.9-28.1-10.1-8.6-5.1-16.1-11.9-22.1-19.7l1.1-1M597.9,1180.7l-2.9-.2c2.7-38.5,0-85.7-8.3-140.5l2.8-.4c8.3,55,11.1,102.4,8.3,141.1M854.5,1344.3h-142v-28h142v28"/>
  <path class="cls-9" d="M1100.4,1344.3h-268.7c-7.6,0-12.5-8.1-9-14.8l120.7-230.8c1.7-3.3,5.2-5.4,9-5.4h262.6c7.6,0,12.5,8.1,9,14.8l-123.5,236.2"/>
  <path class="cls-1" d="M475.6,760.5c-33.4-33-96.5-19.1-95.6,36.3-68.8,18.1-72.6,93.6-44.9,132.3l23.9,1.9,5.3-28.2,13.9,28.7,66.9,4.3,30.6-175.3"/>
  <path class="cls-12" d="M531.5,883.8v105.3c0,1,0,1.9,0,2.8-1.6,21.7-22.6,37-44.1,31.5-31.6-8.2-53.6-36.8-53.3-69.4l.5-70.1h97"/>
  <path class="cls-1" d="M531.5,929.3v59.8c0,1,0,1.9,0,2.8-28.2-4.6-60.7-37.2-68.7-72.7l68.8,10.2"/>
  <path class="cls-12" d="M588.5,891.6c-1.5,8.4-3.4,16.9-6,25.1-8.4,26.7-23.5,48.9-50.5,45-63.5-9.1-98.9-74.5-98.9-74.5l43.5-49.7,29.2-39.2,87.4,37.8s.5,26.7-4.6,55.6"/>
  <path class="cls-1" d="M451.9,870.4c27.9-.9,49.4-15.1,58.6-55.4,0,0,65,56.1,96.8,26.1,26.7-25.1-18.6-82.7-93.5-89.6-27.3-2.5-54.5,6-75.9,23.1-36.3,29.1-39.8,96.7-5.8,120.1l19.7-24.4"/>
  <path class="cls-11" d="M419.2,799.7c-1.8-6.6-.5-13.9,2.5-20.2s7.6-11.8,13.1-16.1,11.9-7.3,18.7-8.8c6.8-1.4,13.9-1.2,20.2,1.5-6.4,2.1-12,4.3-17.3,7-5.1,2.6-10,5.7-14.6,9.3-4.5,3.5-8.7,7.4-12.5,11.8-3.8,4.4-7.1,9.3-10.1,15.4"/>
  <path class="cls-12" d="M463.7,866.8c5.4,13.5.7,28-10.4,32.5s-24.5-2.8-29.9-16.3-.7-28,10.4-32.5,24.6,2.8,29.9,16.3"/>
  <path class="cls-1" d="M443.5,889.3c.5-4.7.5-9.1-.8-13.1-1.3-4.1-3.9-7.6-6.9-11.3l.9-1.2c4.3,2.3,8,6.3,9.6,11.3s.9,10.4-1.3,14.7l-1.4-.4M547.9,875.2c0,3.9-2.9,7.1-6.5,7.1s-6.5-3.2-6.5-7.1,2.9-7.1,6.5-7.1,6.5,3.2,6.5,7.1M581.8,880.8c-.4,3.5-3.3,6-6.5,5.6s-5.4-3.5-4.9-7c.4-3.5,3.3-6,6.5-5.6s5.4,3.5,4.9,7M547.6,857.3c.3,3.3-5.1,3.7-13,3.9s-13.3,2.7-13.4.5c0-2.1,5.8-7.5,13.5-8.8,8-1.4,12.5.4,12.8,4.4M572.7,860.5c-.6,3.3,3.3,4.1,9.2,5.2,5.8,1,9.6,4,9.9,1.9.3-2.1-3.4-8.1-9-10.1-5.8-2.1-9.3-.8-10,3.1M563.4,886.7c1.5,1.8,3.2,3.4,4.8,5l2.6,2.4c.9.8,1.9,1.7,2.7,3,.4.7.8,1.6.8,2.5s-.2,2-.6,2.7c-.9,1.5-1.9,2.3-3.1,3.1-2.3,1.5-4.8,2.1-7.1,2.6l-.6-1.4c2.1-1.3,4.1-2.5,5.7-3.9.8-.7,1.5-1.5,1.8-2.1s.2-.8,0-1.6c-.8-1.4-3-3.3-4.4-5.2-1.5-1.9-2.9-4.1-3.8-6.5l1.3-.7M531,910.3c3.9,4.5,8,8.6,12.9,11.2,4.9,2.7,10.4,3.5,16.2,2.8l.4,1.4c-2.8,1.3-6,1.9-9.2,1.7-3.2,0-6.4-1.1-9.2-2.7-5.6-3.1-9.8-8.2-12.3-13.7l1.3-.8"/>
  <path class="cls-8" d="M508.1,906.2c-8.7,0-15.8-7.1-15.8-15.8s7.1-15.8,15.8-15.8,15.8,7.1,15.8,15.8-7.1,15.8-15.8,15.8M582.5,916.6c-2.5-2.9-3.9-6.6-3.9-10.4,0-6.7,4.1-12.3,9.9-14.6-1.5,8.4-3.4,16.9-6,25.1"/>
  <path class="cls-11" d="M408.6,1078l-91.1,43.3,28.6,67.7,95.5-44-33-67"/>
  <path class="cls-10" d="M746,1312.9c-2.5-1.3-4.1-2.1-4.1-2.1l.9-1.8s1.7.8,4.1,2.1l-.9,1.8"/>
  <path class="cls-12" d="M783.8,1322.3c-2.9,5.8-25.5-4.5-36-9.6,8.1,4.5,22.2,13.4,15.9,18.2-5,3.9-16.1-4.4-52.4-19.4,5.5,2.6,38,18,29.8,23.9-8.9,6.3-47.1-7.6-47.1-7.6l-33.1,17.8h-38.2l-137.5.9c-8.6,0-17.2-1.1-25.5-3.2-16.3-4.2-31.7-12.3-44.7-23.2-8.2-6.9-15.3-14.9-21.2-23.8-4.4-6.7-8.2-13.8-11.4-21.3l-36.3-85.9,95.5-44.1,49.8,101.2,164.3,35.7,45.9-11.5c9.9-2.5,23.8,1.7,32.5,7,21.2,13,52.4,39.4,49.7,44.9"/>
  <path class="cls-8" d="M459.6,1343.2c-16.3-4.2-31.7-12.3-44.7-23.2-8.2-6.9-15.3-14.9-21.2-23.8,7.5-6,16.8-9.3,26.4-9.3,23.2,0,42,18.8,42,42s-.9,9.8-2.5,14.2"/>
  <path class="cls-4" d="M655.5,1281.2c11.4-3.8,22.9-7.1,34.7-9.5,5.9-1.2,11.9-2.2,17.9-2.5,3-.2,6.1,0,9.2.2,1.5.3,3.1.7,4.6,1.1,1.5.5,2.9,1.1,4.3,1.7,11.2,5.1,20.9,12.3,30.3,19.8,9.4,7.5,18.3,15.6,27,24l.4.4v.5c.4,1.8.2,3.5-.8,5.2-.6.7-1.2,1.5-2.1,1.8-.8.5-1.6.7-2.4.8-3.2.5-5.9,0-8.6-.8-5.3-1.5-10.1-3.9-14.8-6.2-4.7-2.5-9.3-5.1-13.8-7.9-4.5-2.7-8.9-5.7-13.3-8.6l2-3.2c7.8,4.6,15.4,9.5,22.7,15,3.6,2.8,7.2,5.7,10.3,9.4.7,1,1.5,2,2,3.4.3.6.4,1.5.5,2.3,0,.9-.4,1.9-1,2.6-1.2,1.4-2.7,1.9-3.9,2.2-1.3.3-2.5.4-3.7.5h-.8c0,0-41.5-17.5-41.5-17.5l1.2-2.9c6.5,3,12.9,6.3,19,10.2,3,2.1,6.1,4,8.2,7.7.5.9.9,2.3.3,3.7-.5,1.3-1.5,2.1-2.5,2.5-1.9,1-3.8,1.2-5.7,1.3-7.4.2-14.4-1.6-21.4-3.3-6.9-1.8-13.7-4-20.4-6.4l.5-1.4c6.7,2.2,13.5,4.2,20.4,5.9,6.8,1.5,13.9,3.1,20.7,2.7,3.2,0,7.1-1.6,5.5-3.7-1.5-2.5-4.6-4.6-7.4-6.5-5.9-3.7-12.3-6.9-18.7-9.7l1.2-2.9,41.6,17h-.8c1-.2,2.1-.3,3-.6.9-.2,1.7-.6,2-.9.6-.2-.2-2.3-1.5-3.8-2.6-3.2-6.1-6.1-9.6-8.7-7.1-5.3-14.7-10.1-22.4-14.7l2-3.2c4.4,2.8,8.7,5.9,13.1,8.5,4.4,2.8,8.9,5.4,13.5,7.8,4.6,2.3,9.3,4.7,14.1,6,2.4.7,4.9,1.1,6.9.8h.7c.2-.2.4-.3.6-.4.4,0,.6-.5.9-.7.4-.6.5-1.6.4-2.4l.5.9c-8.5-8.4-17.3-16.3-26.5-23.9-9.2-7.5-18.8-14.7-29.4-19.7l-4-1.6c-1.4-.3-2.7-.7-4.1-1-2.9-.4-5.8-.5-8.7-.3-5.9.2-11.8,1.1-17.6,2.1-11.7,2.2-23.3,5.2-34.7,8.7l-.5-1.4"/>
  <path class="cls-1" d="M346.6,1190.4l-1.2-2.6,94.2-43.5-39.3-91.9,2.6-1.1,40.4,94.4-96.8,44.7M360.1,2023.4h-5v-430.6h5v430.6"/>
  <path class="cls-3" d="M478,1611.9h-240.8c-16.4,0-29.6-13.3-29.6-29.6s13.3-29.6,29.6-29.6h240.8c16.4,0,29.6,13.3,29.6,29.6s-13.3,29.6-29.6,29.6M458.9,2051.4h-202.6v-4.9c0-24.6,19.9-44.5,44.5-44.5h113.5c24.6,0,44.5,19.9,44.5,44.5v4.9"/>
  <path class="cls-1" d="M1071.5,2049.8l-426.8-676.5,4.2-2.7,426.8,676.5-4.2,2.7"/>
  <path class="cls-1" d="M648.9,2049.8l-4.2-2.7,426.8-676.5,4.2,2.7-426.8,676.5"/>
  <path class="cls-3" d="M1234.1,1400.7H486.3v-56.4h747.8v56.4"/>
  <path class="cls-9" d="M549,135.9c-84.3,0-153,68.6-153,152.9s68.6,153,153,153,153-68.6,153-153-68.6-152.9-153-152.9h0ZM549,445.1c-86.2,0-156.3-70.1-156.3-156.3s70.1-156.3,156.3-156.3,156.3,70.1,156.3,156.3-70.1,156.3-156.3,156.3"/>
  <path class="cls-3" d="M824.7,227.6c0,93.9-76.1,170-170,170s-170-76.1-170-170,76.1-170.1,170-170.1,170,76.1,170,170.1"/>
  <path class="cls-1" d="M654.7,230.8l-94.3-73.9,3.1-3.9,91.1,71.4,50.8-43,3.2,3.8-53.9,45.6"/>
  <path class="cls-22" d="M213.4,594.3h-86.3c-13.9,0-25.2,11.3-25.2,25.2v86.3c0,13.9,11.3,25.2,25.2,25.2h61.6l26.6,36.7v-36.8c13-.9,23.3-11.8,23.3-25.1v-86.3c0-13.9-11.3-25.2-25.2-25.2"/>
  <path class="cls-9" d="M127,596c-13,0-23.5,10.5-23.5,23.5v86.3c0,13,10.5,23.5,23.5,23.5h62.5l24,33.2v-33.2h1.5c12.2-1,21.8-11.3,21.8-23.5v-86.3c0-13-10.5-23.5-23.5-23.5h-86.3ZM216.9,772.8l-29.1-40.1h-60.8c-14.8,0-26.8-12-26.8-26.8v-86.3c0-14.8,12-26.8,26.8-26.8h86.3c14.8,0,26.8,12,26.8,26.8v86.3c0,13.5-10.1,24.8-23.3,26.6v40.4"/>
  <path class="cls-9" d="M168.5,707.1l-34.6-49.9,8.2-5.7,25.4,36.7,38.3-68.6,8.7,4.9-46.1,82.6"/>
  <path class="cls-1" d="M2116.6,2051.4H68v-5h2048.6v5"/>
</svg>