<?xml version="1.0" encoding="UTF-8"?>
<svg id="Layer_1" data-name="Layer 1" xmlns="http://www.w3.org/2000/svg" version="1.1" viewBox="0 0 609 502">
  <defs>
    <style>
      .cls-1 {
        fill: #f49477;
      }

      .cls-1, .cls-2, .cls-3, .cls-4, .cls-5, .cls-6, .cls-7, .cls-8, .cls-9, .cls-10, .cls-11, .cls-12, .cls-13, .cls-14, .cls-15, .cls-16, .cls-17, .cls-18, .cls-19, .cls-20, .cls-21, .cls-22, .cls-23 {
        stroke-width: 0px;
      }

      .cls-2 {
        fill: #aed98b;
      }

      .cls-3 {
        fill: #f7941d;
      }

      .cls-4 {
        fill: #7fc246;
      }

      .cls-5 {
        fill: #5d992f;
      }

      .cls-6 {
        fill: #3f77c4;
      }

      .cls-7 {
        fill: #7cc142;
      }

      .cls-8 {
        fill: #6dab37;
      }

      .cls-9 {
        fill: #96cd68;
      }

      .cls-10 {
        fill: #1c1a2c;
      }

      .cls-11 {
        fill: #042f01;
      }

      .cls-12 {
        fill: #356229;
      }

      .cls-13 {
        fill: #a97c50;
      }

      .cls-14 {
        fill: #4f8420;
      }

      .cls-15 {
        fill: #e5f5d7;
      }

      .cls-16 {
        fill: #f36156;
      }

      .cls-17 {
        fill: #8b5e3c;
      }

      .cls-18 {
        fill: #cfe6f4;
      }

      .cls-19 {
        fill: #dbe020;
      }

      .cls-20 {
        fill: #c49a6c;
      }

      .cls-21 {
        fill: #000f00;
      }

      .cls-22 {
        fill: #252334;
      }

      .cls-23 {
        fill: #fff;
      }
    </style>
  </defs>
  <path class="cls-15" d="M541.9,479.2c-30.3-23-82.1-80.1-13.9-169.8,84.4-110.9-16.7-156.4-113.5-151.6-77.9,3.8-165.6-94.1-253.1-76.6-116.1,23.2-40.7,123.2-119.5,177.1-67.1,45.9-38.3,185.9,49.1,220.9h450.9,0Z"/>
  <path class="cls-15" d="M596.6,275.8c-.5-16.4-15.8-22.8-26-10.9-5.9,6.8-11.5,16.6-12.5,29.7-2.3,29.3,23.3,20.8,32.9,5.1,4.1-6.7,5.9-15.6,5.6-23.9M314.4,75.3c-16.2-3.1-25.7,10.5-16.2,23.1,5.4,7.2,13.8,14.7,26.4,18.6,28.1,8.6,25.3-18.3,12-31-5.7-5.4-14-9.1-22.2-10.6ZM47.3,226c6.5-15.1-4.8-27.3-19-20.8-8.2,3.7-17.4,10.3-23.8,21.7-14.4,25.6,12.4,28.7,27.7,18.4,6.5-4.4,11.9-11.7,15.1-19.4ZM581.8,483.7c0,10.1-124,18.2-277,18.2s-277-8.2-277-18.2,124-18.2,277-18.2,277,8.2,277,18.2"/>
  <path class="cls-8" d="M574.4,334c-17,17,2,18.4-10.5,31.2-11.3,11.7-28.1.3-27,28.8.2,6.2-4.3,10.9-10.7,13.2-10.5,3.9-20.7.3-27-6.9-.5-.6-1-1.2-1.5-1.8-4.8-6.5-6.5-15.4-3-24.2,2.9-7.1,8-14.1,17-16.9,21.2-6.6,9.4-34.6,27.4-35.9,21.6-1.5,22.4-9.4,37.7-20.1,16.3-11.3,20.5,9.5-2.5,32.5"/>
  <path class="cls-14" d="M566.8,324.8c-.5.5-39.8,41-67.5,75.6-.5-.6-1-1.2-1.5-1.8,27.8-34.6,66.9-74.9,67.4-75.4.4-.4,1.2-.5,1.6,0,.4.4.5,1.2,0,1.6h0Z"/>
  <path class="cls-4" d="M578.7,390.6c-26.6,15.6-3.5,23.5-23.1,35.5-17.9,10.9-35.1-8.7-42.8,27.2-1.7,7.8-8.8,12.1-17.5,13-14.3,1.5-25.9-6.3-31.4-17.3-.5-.9-.9-1.8-1.2-2.7-3.9-9.7-3.2-21.3,4.1-31.1,5.9-7.9,14.5-15,26.6-15.6,28.5-1.3,22.9-40.1,45.6-35.8,27.4,5.1,30.9-4.5,53.4-12.9,23.9-8.9,22.4,18.5-13.6,39.7"/>
  <path class="cls-8" d="M572.2,376.7c-.7.5-62.8,38.3-108.4,72.4-.5-.9-.9-1.8-1.2-2.7,45.8-34.1,107.4-71.7,108.2-72.2.7-.4,1.6-.2,2,.6.4.7.2,1.5-.5,1.9M60.5,140.4c9.1,22.2-8.9,16.2-2.3,32.8,6,15.1,25.8,11.1,13.8,37-2.6,5.7-.2,11.7,4.7,16.3,8.2,7.6,19,8.3,27.6,4.1.7-.3,1.4-.7,2-1.1,6.9-4.2,12-11.7,12.1-21.2,0-7.7-1.9-16.1-9.2-22.2-17-14.2,4.6-35.6-11.4-43.6-19.4-9.7-17-17.3-27.1-33.1-10.6-16.7-22.6.9-10.2,31"/>
  <path class="cls-14" d="M71.1,134.7c.2.6,20.9,53.2,33.2,95.8.7-.3,1.4-.7,2-1.1-12.3-42.7-32.9-94.9-33.1-95.5-.3-.6-.9-.8-1.5-.6-.5.2-.8.9-.6,1.4h0Z"/>
  <path class="cls-4" d="M34.5,198.3c19.2,24.1-5.1,23.2,8.9,41.4,12.8,16.5,35.8,4.4,30.3,40.7-1.2,7.9,3.9,14.5,11.7,18.4,12.8,6.5,26.4,3.4,35.5-4.9.7-.7,1.4-1.4,2.1-2.1,7.1-7.7,10.6-18.7,7.3-30.5-2.7-9.5-8.2-19.2-19.3-24.1-26.2-11.4-7.1-45.6-29.8-49.8-27.4-5-27.3-15.3-45.3-31.1-19.1-16.8-27.5,9.2-1.5,41.9"/>
  <path class="cls-14" d="M45.6,187.6c.5.7,44.9,58.2,75.4,106.4.7-.7,1.4-1.4,2.1-2.1-30.6-48.2-74.7-105.4-75.2-106-.5-.7-1.4-.8-2-.3-.7.5-.8,1.4-.3,2,0,0,0,0,0,0h0Z"/>
  <path class="cls-4" d="M164.2,177.3c7.7-5.3,27.1,7.8,37.3,23.7l-9-25.2c-3.3-2.8-9-6.8-17.9-9.9-13.9-4.9-27.7-12.6-20-17.9,7.3-5,24.8,6.2,35.3,20.8l-11.6-32.4c-2.1-1.7-5.4-3.7-10.1-5.3-8.7-3.1-17.5-7.9-12.6-11.3,4.2-2.9,14,2.9,20.7,11.1l-3.7-10.5c-1.7-3-4.1-7.4-8-11.4-8.9-9.2-15.6-19.6-8.8-21.1,6.9-1.5,18.1,16.5,19.9,32.8l1.9,5.4c-1.5-11.9,2.8-26.2,8.7-26.7,5.9-.5,2.2,8.8-2.6,16.7-3.7,6-4.7,10.8-4.9,13.3l9.1,25.5c-2.3-18.8,4.4-41.4,13.8-42.2,9.4-.8,3.5,13.9-4.1,26.5-5.8,9.5-7.4,17.1-7.8,21l10.9,30.6c-1.9-18.6,4.7-41.1,14-41.2,7.1,0,5,10-3.6,24.2-5.8,9.7-7.6,18.3-8.2,22.9l5.1,14.4c-.9.6-1.8.9-2.6.9l-2-5.7c-2.9-2.8-8.9-7.5-19.3-11.2-13.9-4.9-27.7-12.6-20-17.9M96.1,391c-7.9,5-3.7,28,6.9,43.6l-19.6-18.3c-1.3-4.1-2.7-10.9-2-20.4,1-14.7-.5-30.5-8.5-25.5-7.5,4.7-4.1,25.3,5,40.7l-25.1-23.5c-.7-2.6-1.2-6.4-.9-11.4.6-9.2-.3-19.2-5.4-16-4.4,2.7-2.9,14.1,1.9,23.4l-8.1-7.6c-2.1-2.8-5.1-6.8-7.3-11.9-4.9-11.8-11.7-22.1-15.8-16.4-4.1,5.7,8,23.2,22.2,31.3l4.2,3.9c-10.3-6.1-25.1-7.9-28-2.6-2.8,5.2,7.2,5.5,16.4,4.3,7-1,11.8,0,14.2.8l19.8,18.5c-16.3-9.6-39.8-12.4-44.2-4.1-4.5,8.3,11.4,8.7,26,6.8,11-1.5,18.6,0,22.4,1.2l23.7,22.2c-16.3-9.2-39.6-12-43.3-3.5-2.9,6.5,7.2,8.5,23.7,6.4,11.2-1.5,19.9.3,24.3,1.6l11.2,10.4c.9-.5,1.5-1.2,1.9-2.1l-4.4-4.2c-1.4-3.8-3.4-11.2-2.6-22.1,1-14.7-.5-30.5-8.5-25.5"/>
  <path class="cls-9" d="M497.1,184.9v293H73V184.9h424.1Z"/>
  <path class="cls-5" d="M497.1,184.9v18.8l-212,187.9L73,203.6v-18.8l212,188.6,212.1-188.6h0Z"/>
  <path class="cls-5" d="M244.2,336.5l-158.9,141.4h-12.3v-7.5l162.1-144.2,9.1,10.3M497.1,471.4v6.5h-13.4l-158.9-141.4,9.1-10.3,163.2,145.1"/>
  <path class="cls-2" d="M73,184.9l212.1,188.6,212.1-188.6H73Z"/>
  <path class="cls-1" d="M380.1,158.5l5.4,11.6-11.4.2-4.4-10.5,10.4-1.2"/>
  <path class="cls-4" d="M381.9,169.3s2.3-3.2,4.2-3c1.9.1,16.3,11.6,21.2,12.5,4.9.9,4.5,6,2.4,6-5.9,0-38.7,0-38.7,0,0,0-1-11.7.3-15.2,1.3-3.5,6.8.5,10.7-.3"/>
  <path class="cls-23" d="M389.9,177.3c-.4.1-.8-.1-.9-.5,0-.2,0-.4,0-.5,0-.1,1.6-2.7,3.6-3.7,2.7-1.4,4.8.2,4.9.2.3.2.4.6.2,1-.2.3-.6.4-1,.2,0,0,0,0,0,0,0,0-1.5-1.1-3.4-.1-1.7.8-3,3.2-3,3.2,0,.2-.2.3-.4.3"/>
  <path class="cls-23" d="M387.8,175.4c-.4.1-.8,0-.9-.5,0-.2,0-.4,0-.5,0-.1,1.6-2.7,3.6-3.7,2.7-1.4,4.8.2,4.9.2.3.2.4.7.1,1-.2.3-.7.4-1,.1,0,0-1.5-1.1-3.4-.1-1.7.8-3,3.2-3,3.2,0,.2-.2.3-.4.3M392.7,178.9c-.4.1-.8-.1-.9-.5,0-.2,0-.4,0-.5,0-.1,1.6-2.7,3.6-3.7,2.7-1.4,4.8.2,4.9.2.3.2.4.7.1,1-.2.3-.7.4-1,.1,0,0,0,0,0,0,0,0-1.5-1.1-3.4-.1-1.7.8-3,3.2-3,3.2,0,.2-.2.3-.4.3h0Z"/>
  <path class="cls-11" d="M383.4,162.2l-5.1,1.7-2.8.2-4.8.3c-6.4-5.1-23.7-20.3-27-29.3,0,0-22.2,51.6-52.9,51.6s3.3-25.7,8.3-31c0,0,28.3-52.7,46.6-47.1,8.2,2.5,16.5,14.5,37.7,53.7"/>
  <path class="cls-21" d="M378.3,163.9l-2.8.2c-18.8-14.3-27.6-26.3-31.6-34.1-.1-.3-.4-.4-.5-.4-.1,0-.2,0-.3.2-9,21.2-19.8,34-27.3,40.9-8.2,7.6-14.1,10.1-14.4,10.2l-.3-.8-.3-.8c0,0,6-2.5,13.9-9.9,7.3-6.8,17.9-19.3,26.8-40.2.3-.8,1-1.3,1.9-1.3.9,0,1.8.5,2.2,1.3,4,7.8,13,20.1,32.8,34.7"/>
  <path class="cls-14" d="M365.6,160.9c.8,1.5,2.2,3.6,3.5,4.7,0,0,10.8-.5,16.1-3.2l-2.4-5.5s-8.6,3.2-17.3,4"/>
  <path class="cls-8" d="M379.8,86.9c-15.4,6.3-27.8,9.4-38.2,10.7h0c-.1,0-2.6.2-3.6.2-2.8,0-6.7-.7-10.5-2.5-2.8-1.3-6.7-4.6-10.8-8.6-5.1-4.9-10.5-10.8-14.2-15.1-2.9-3.3-4.8-5.5-4.8-5.5,2.6-3.8,8.3-7.3,13.2-9.2,0,0,10.3,17.2,26,25.7.9.5,1.7.9,2.6,1.3,3.6-.6,13.2-1,17.4-1.3,11.4-.8,20.6-2.8,20.6-2.8l2.3,7.1"/>
  <path class="cls-1" d="M377.1,79.2s2.1-5.4,5.1-7c2.9-1.5,11.2-7,13-5.4,1.8,1.6,1.4,9.5-6,16-4.7,4.2-9.5,4-9.5,4l-2.5-7.7"/>
  <path class="cls-11" d="M395.7,71.8l-12.3,11.5c-.5.4-1.3.6-1.9.3l-7.5-3.6c-.2-.1-.4-.3-.5-.5h0c0,0-.4-1.3-.4-1.3l2-.8,19.3-7.3,1-.4.4,1.3h0c0,0,0,.1,0,.1,0,.2,0,.5-.3.7"/>
  <path class="cls-22" d="M394.5,70l-19.3,7.3,10.9-10.2c.5-.4,1.3-.6,1.9-.3l6.5,3.2"/>
  <path class="cls-12" d="M381.2,82.3l-7.5-3.6c-.6-.3-.7-.8-.2-1.3l12.3-11.5c.5-.4,1.3-.6,1.9-.3l7.5,3.6c.6.3.7.8.2,1.3l-12.3,11.5c-.5.4-1.3.6-1.9.3"/>
  <path class="cls-11" d="M382.8,80.4c-.2,0-.5,0-.7-.1l-5.8-2.8c-.6-.3-.7-.8-.2-1.3l9.5-8.9c.3-.3.7-.4,1.2-.4s.5,0,.7.1l5.8,2.8c.6.3.7.8.2,1.3l-9.5,8.9c-.3.3-.7.4-1.2.4h0Z"/>
  <path class="cls-22" d="M396,71.1h0s0,0,0,0h0Z"/>
  <path class="cls-1" d="M381.9,69.4s1.7.3,1.9,1.8c.2,1.5-1.4.9-2.5.6-1-.3-2,0-2.1.2-.5.5-.4-3,2.7-2.5M389.7,77.6s2.7-4.5,4.8-7c1.4-1.6,2.1.7,1.2,2.4-1,1.7-2.9,5-6,4.6"/>
  <path class="cls-4" d="M261.9,158.9l-6.1-39.2-.4-2.3v-1.8s1.4-55.5,1.4-55.5l15.4-5.2.8-.3,3.5-1.2,2.7-.9,16.3,2.2,2.6.4h.9c0,.1,11.6,1.7,11.6,1.7.1,36.8-3.4,44.8,3.4,74.7,3.4,11.3-9.1,51.3-52.2,27.3"/>
  <path class="cls-6" d="M0,0"/>
  <path class="cls-1" d="M369.7,260.3l4.3,9.5-8.7,3.8-5.1-9.8,9.6-3.4"/>
  <path class="cls-4" d="M372.1,269.6s.9-3.8,2.7-4.5c1.8-.6,19.5,4.1,24.4,3,4.9-1.1,5.5,2.6,5.4,4.7,0,2.1-36.4,15.1-36.4,15.1,0,0-5.5-10.1-5.8-13.8-.2-3.7,6.5-2.2,9.7-4.5"/>
  <path class="cls-6" d="M0,0"/>
  <path class="cls-6" d="M0,0"/>
  <path class="cls-11" d="M371.9,262.2c-.9,1-3.7,2.6-6.7,4-.6.2-1.1.5-1.7.7-1,.4-2,.8-2.9,1.1,0,0-20.7-38.2-28.7-65.9,0,0-70.1-8.7-72.6-33.2,0-.8,0-1.7,0-2.5.2-2.3,1-4.8,2.5-7.4,1.6-2.8,25.6,0,38.6,3.6,0,0,35.2,13.7,48.1,27.8,6.6,7.1,23.3,71.9,23.3,71.9"/>
  <path class="cls-21" d="M365.2,266.1c-.6.2-1.1.5-1.7.7-10.5-17.3-25-57.9-28.3-67.6-.2-.7-.8-1.2-1.5-1.3-34.1-6.4-53.7-15.3-64.2-21.7-4.6-2.8-7.9-5.4-10.2-7.4,0-.8,0-1.7,0-2.5,2.2,2.2,5.8,5.2,11.4,8.5,10.3,6.2,29.7,15,63.4,21.4,1.3.3,2.4,1.2,2.9,2.5,3.2,9.7,17.8,50.4,28.2,67.4"/>
  <path class="cls-14" d="M356.9,263.9l3.3,5.3s8.2-1.4,13.8-7.1l-2.1-4.7s-10,4.9-15.1,6.5Z"/>
  <path class="cls-1" d="M245.3,173.4s4.8,6.5,4.4,9.8c-.4,3.3-4.7,9.7-8.2,10-3.5.3,4-8.1,2.2-7.8-2.1.3-16.4,12.1-19.5,12.1s3.6-5.5,6.1-6.8c0,0-6.8,3-8.3,4.6-1.6,1.6-2.7-1.8,5.2-6.6,0,0-7.2,4.1-7.7,4.2-1.6.2,3-5.2,6.9-7.1,0,0-5.8,2.8-6.4,2.8-.8,0,.9-1.9,5.2-4.3,3.9-2.1,10.2-12,10.2-12l9.8,1.2"/>
  <path class="cls-8" d="M256.9,60.1s-16.1,30.9-19.7,63.1l-1.7,49s1.7,3.5,9.8,1.2l7.9-49,6.1-22.4s2.8-27.6-2.4-41.9h0Z"/>
  <path class="cls-11" d="M306.2,26.7c-1.7,9.7-10.9,16.1-20.6,14.4-9.7-1.7-16.1-10.9-14.4-20.6,1.7-9.7,10.9-16.1,20.6-14.4,9.7,1.7,16.1,10.9,14.4,20.6Z"/>
  <path class="cls-11" d="M306.5,23.5s5.2-.5,5.4-5.4c.2-4.2-5.1-2.4-4.1-5.5,1-3.1,2.4-5.9-1.6-7.4-3.5-1.3-4,1.1-8.1-3.3-4.9-5.2-10.9,3.8-16,3.2-7.5-.9-9.1,3.1-10.4,6.4-1.3,3.2,1.1,6.1,1.1,6.1l33.7,6"/>
  <path class="cls-16" d="M302.4,31.1s3.4-3.2,4.9.2-3,11.9-7.6,8.8l2.7-9h0Z"/>
  <path class="cls-16" d="M0,0"/>
  <path class="cls-16" d="M0,0"/>
  <path class="cls-1" d="M279.3,44.4l-1.6,9s3,4.6,6.5,5.6c3.6,1,6.5-2.9,6.5-2.9l1.5-8.6-13-2.9"/>
  <path class="cls-16" d="M279.3,44.4l-.7,4c1.9,3.1,6.1,4.6,12.7,4.7l1-5.8-13-2.9"/>
  <path class="cls-1" d="M274,19.7c-.5,3.5-.9,7.9-.8,11.5,0,.9,0,1.8.1,2.5.7,6.9,3.4,19.1,17.5,16.7,6.2-1,10.1-7.1,12.4-13.5,1.6-4.3,2.5-8.9,3-12.1.5-3.3-.7-6.7-3.3-8.8-7-5.8-15.5-5.6-21.3-4.5-4,.8-7.1,4-7.6,8.1"/>
  <path class="cls-11" d="M295.6,31.1c-.2,1,.2,1.8.8,1.9.6.1,1.2-.6,1.4-1.5.2-1-.2-1.8-.8-1.9-.6-.1-1.2.6-1.4,1.5ZM282.7,28.8c-.2,1,.2,1.8.8,1.9.6.1,1.2-.6,1.4-1.5.2-1-.2-1.8-.8-1.9s-1.2.6-1.4,1.5ZM301.2,26.6s-4.3-2.6-8.1-1.7v1.7s4-.2,7.5,1.9c.4-.7.8-1,.6-1.9ZM280.2,22.9s4.9-1,8.2,1.1l-.6,1.6s-3.7-1.5-7.7-.8c-.1-.8-.4-1.2,0-1.9M0,0"/>
  <path class="cls-23" d="M293.1,40.4c-.7,1.7-2.4,4.7-6.3,4-3.9-.7-4.5-3.8-4.5-5.9l10.8,1.9Z"/>
  <path class="cls-23" d="M0,0"/>
  <path class="cls-11" d="M302.3,34c.6-1.7,1.4-3.9,1.3-5.1,0-2.1-1.5-3.6-.6-5.5.9-1.9-.8-4.4-2.3-5-1.5-.6-5.2-.5-8.5-2.8-3.1-2.2-9.2-2.1-10.5,0-1.6,2.4,0,3-3.8,5.2-1.5.9-.5,4.1-.6,6.1,0,.9-.1,1.3-.3,2.3v.5c0,0-3.9-.7-3.9-.7.1-3,.4-6.4.8-9.1.5-4.1,3.6-7.3,7.6-8.1,5.8-1.1,14.3-1.3,21.3,4.5,2.6,2.1,3.9,5.5,3.3,8.8-.4,2.6-1.1,6-2.1,9.4l-1.7-.3"/>
  <path class="cls-1" d="M274.6,30.8c.2-1,.3-2,.3-3,0-1.4-.2-2.7-1.4-3.5-1-.6-2.2-.9-3.2.2-2.6,2.7-2,12.6,3.4,11.3l1-5.1"/>
  <path class="cls-1" d="M0,0"/>
  <path class="cls-1" d="M0,0"/>
  <path class="cls-1" d="M474.9,235.7s-5.8,11.1-12.7,19.9c-2,2.6-4.1,5-6.2,6.8-3.4,3-6.7,4.6-9.4,3.2-10-4.9-32.2-44.1-32.2-44.1l5.5-6.4s9.9,11.2,17.1,17.9c3.9,3.6,7.8,7.2,11.8,10.8,1-1.5,2-3,2.9-4.5,1.1-1.8,2.3-3.5,3.4-5.3,8.3-13.4,18.3-28,18.3-28l1.5,29.7h0Z"/>
  <path class="cls-1" d="M421.3,219.1s2.3-3.7,1.4-7c-.9-3.3-1.7-10.8-5.3-10.6-1.3,0,.6,3.2-.3,6.1,0,0-3.9-1.9-6.5-3.8-2.3-1.7-7-4.4-9.2-5.7-.6-.3-1.3.3-1,.9.6,1,1.9,2.4,5.1,4.4,0,0-7.9-4.4-9.2-3.5-1.3,1,8.7,6.3,8.7,6.3,0,0-8.1-3.3-8.7-2.1-.4.7,7.5,5.4,7.5,5.4,0,0-7.9-2.4-6.4-.6.4.5,15.4,7.3,18.5,15.2,0,0,4.4-2.4,5.4-5.1"/>
  <path class="cls-16" d="M462.2,255.6c-2,2.6-4.1,5-6.2,6.8l-4.2-23c1.1-1.8,2.3-3.5,3.4-5.3l7.1,21.5"/>
  <path class="cls-8" d="M473.7,205l-21.1,30.4,6.7,27.1,16.5-26.4s3.1-17.6-2.2-31.1"/>
  <path class="cls-1" d="M484.5,464.8v9.6h8.9c0-.1.6-10.3.6-10.3l-9.5.7h0Z"/>
  <path class="cls-11" d="M507.2,324.8c0,1.1-.4,6.6-.8,14.2-1.3,21-3.6,58.2-5,66.6-1.4,8.6-.8,36.7-.3,51.5,0,2.5-.9,4.8-2.5,6.5-.6.6-1.3,1.2-2.1,1.6-1.4.8-2.9,1.2-4.5,1.2h-6.8c-5.1,0-9.3-4.2-9.1-9.2.4-12.5.9-35.2,0-52.7-.9-16.7.4-46.3,1.3-64.7h0c.4-7.4.7-12.9.9-15.2l29,.4h0Z"/>
  <path class="cls-21" d="M478.2,324.4l29,.4c0,1.1-.4,6.6-.8,14.2-9.9,1.2-20.1,1.7-29.1.6.4-7.4.7-12.9.9-15.2Z"/>
  <path class="cls-21" d="M498.4,430.7c.3,9.4.5,19.2.3,27,0,2.2-.1,4.1-.2,5.7-.6.6-1.3,1.2-2.1,1.6.2-1.9.3-4.3.4-7.3.2-7.8,0-17.5-.3-26.9-.3-11.5-.6-22.3,0-27,1.4-10.1,4.5-64.9,5.3-79.5h2c-.8,14.7-3.9,69.6-5.3,79.8-.6,4.5-.3,15.2,0,26.7Z"/>
  <path class="cls-4" d="M486.8,474.1s-1.9-2.6-3.4-2.5c-1.5,0-13.4,8.9-17.4,9.6-4,.7-3.3,3.6-2.6,5.1.7,1.5,32,.1,32,.1,0,0,1.1-9.1.1-11.9-1-2.8-5.5.3-8.7-.4Z"/>
  <path class="cls-6" d="M0,0"/>
  <path class="cls-6" d="M0,0"/>
  <path class="cls-1" d="M528.1,464.8l1,9.6h8c0-.1.6-10.3.6-10.3l-9.5.7h0Z"/>
  <path class="cls-11" d="M544.5,404.3c-.9,17.6-.4,40.3,0,52.7.1,5-4,9.2-9.1,9.2h-6.8c-1.5,0-2.9-.3-4.2-1-.8-.4-1.5-.9-2.1-1.5-1.8-1.7-2.9-4.1-2.9-6.8.5-14.7,1.1-42.9-.3-51.5-1.4-8.5-3.8-46.9-5.1-67.6-.4-6.9-.7-11.9-.8-13.1l29.1.4c0,1.5.2,3.8.4,6.6.9,16.6,2.8,53.1,1.8,72.4"/>
  <path class="cls-21" d="M542.8,331.8c-5.5,1.5-16.3,4.2-28.7,6.1-.4-6.9-.7-11.9-.8-13.1l29.1.4c0,1.5.2,3.8.4,6.6"/>
  <path class="cls-21" d="M524,457.7c0,3.2.2,5.6.4,7.5-.8-.4-1.5-.9-2.1-1.4-.1-2-.2-4-.3-6-.2-7.9,0-17.6.3-27,.3-11.4.6-22.2,0-26.7-1.4-10.2-4.5-65.1-5.3-79.7h2c.8,14.5,3.9,69.3,5.3,79.5.6,4.6.3,15.5,0,27-.3,9.4-.5,19.1-.3,26.9"/>
  <path class="cls-4" d="M532.2,472.9s4.1-1.1,5.2-1c1.1,0,8.7,8.3,11.2,8.8,4.6.9,4.6,7.9,1.8,8.3-8.1,1-22-2.3-22-2.3,0,0-1.3-9-.7-11.9s2.2-1,4.5-1.8"/>
  <path class="cls-23" d="M538.9,480.6c-.1,0-.3,0-.4,0-.3-.2-.3-.5-.2-.8,0,0,0,0,0,0,0,0,1.4-2.1,3.1-2.8,2.3-.9,3.9.4,3.9.5.2.2.3.5,0,.8-.2.2-.6.3-.8,0,0,0-1.2-.9-2.8-.3-1.4.6-2.6,2.3-2.6,2.4,0,.1-.2.2-.3.2"/>
  <path class="cls-23" d="M0,0"/>
  <path class="cls-4" d="M549,327.7c-26.3,6.5-52.5,6.5-78.7,0-.1-9.6-.3-48,.5-79.5,0-.6,0-1.2,0-1.8,0-.3,0-.6,0-.9h0c0-.4,0-.8,0-1.2.6-20.8,1.5-37.7,3.2-40h0c3.9-5.3,23.6-13.7,29-17.4.5.7,3.1,4.7,6.6,5,3.8.3,7.3-4.1,7.3-4.1v-.8c5.5,3.8,23.3,11.5,27.2,16.8,4.3,5.8,5,107.7,4.8,124"/>
  <path class="cls-6" d="M0,0"/>
  <path class="cls-6" d="M0,0"/>
  <path class="cls-1" d="M568.3,326.6c-.4,5.2-3.6,9.1-3.6,12.5,0,3.4-4.1,1.2-2.2-5.6,1.9-6.8-.9-13.4-2.4-13.3-1.5,0,.5,7.6-1.1,10.2-1.6,2.5-2.7-2.8-4.1-6-1.4-3.4-.6-10.4.7-15.4,1.3-5-5-36.4-4.2-45.3l-2.3-11.5-1.3-6.7-.2-7,12.2-4.7c.5,2.3.9,4.6,1.4,6.9.2,1,.4,2.1.6,3.1,1.6,8.4,3.1,16.6,3.7,21.9,1.6,14.7-1.1,44.5-1.1,44.5,0,0,4.3,11.5,4,16.4"/>
  <path class="cls-16" d="M561.7,243.8c-2.7,3.1-7.1,7-12.6,8.4l-1.3-6.7-.2-7,12.2-4.7c.5,2.3.9,4.6,1.4,6.9.2,1,.4,2.1.6,3.1"/>
  <path class="cls-8" d="M565.1,237.1s-1.5,1.7-4,3.5c-3.1,2.3-7.7,4.8-13.3,4.8-.7-19.4-1.7-35.8-3.1-40.6,2.6,3.1,14.9,18.4,20.4,32.3Z"/>
  <path class="cls-14" d="M539.4,231.5c2.3,3,5.5,9.8,7,12.9l.5,1.1c.2.4.3.6.3.6,0,.2.3.4.6.4h0c0-.3,0-.6,0-.9.2,0,.4,0,.5,0,0-.2-.3-.6-.6-1.2-.4-.8-.8-1.8-1.4-3-1.7-3.4-4.1-8.1-5.9-10.5-.2-.3-.6-.3-.9-.1-.3.2-.3.6-.1.8,0,0,0,0,0,0"/>
  <path class="cls-11" d="M528.4,155.7c0,10.5-6.6,17.8-17.3,17.8s-18.2-7.8-18.2-18.3,6.4-18.5,17.1-18.5,18.5,8.5,18.5,19h0Z"/>
  <path class="cls-16" d="M526,160.2s3-3.9,5.2-.7c2.2,3.2-.9,12.7-6.3,10.4l1.1-9.7Z"/>
  <path class="cls-16" d="M0,0"/>
  <path class="cls-16" d="M0,0"/>
  <path class="cls-16" d="M495.3,160.2s-3-3.9-5.2-.7c-2.2,3.2.9,12.7,6.3,10.4l-1.1-9.7Z"/>
  <path class="cls-16" d="M0,0"/>
  <path class="cls-16" d="M0,0"/>
  <path class="cls-1" d="M503.3,178v9.5s2.9,4.8,6.8,5.1c3.9.3,7.3-4.1,7.3-4.1v-9.8l-14.1-.7"/>
  <path class="cls-16" d="M503.3,178v4.2c2.6,2.8,7.3,3.6,14.1,2.6v-6.1l-14.1-.7"/>
  <path class="cls-1" d="M527.6,159.9c-.1,2-.4,4.1-.8,6.2-1.3,7-4.2,13.8-10.5,16-14.2,5-19.3-7-21.4-14-.2-.8-.4-1.7-.6-2.6-.3-1.7-.6-3.5-.8-5.4-.2-2.2-.4-4.4-.5-6.6-.2-4.2,2.4-8.1,6.4-9.7,5.8-2.2,14.7-3.9,23.1.7,3.1,1.7,5,4.9,5.1,8.4,0,2.2,0,4.5-.2,6.7h0Z"/>
  <path class="cls-11" d="M518.2,175h0s0,0,0,0c-.6.6-1.3,1.1-1.9,1.4-3.6,1.9-4,1.6-5.4,1.7-1.5,0-3.4-.4-5.5-1.5-.6-.3-1.6-1-2.6-1.9,0,0-1.5-4.9,7.8-3.7,9.3-1.6,7.7,3,7.6,4h0ZM525.8,160.3c-.5.9-3.1,8.9-3.9,10-1.7-3.6-9.8-1-9.8-1-.5.2-1,.2-1.6.2s-1,0-1.5-.2h0s-8.2-2.5-9.8,1.3c-.8-1.1-3.1-9-3.5-10.3h-2.1c.2,1.9.4,3.7.8,5.4.2.9.4,1.8.6,2.6,2,7,7.1,18.9,21.4,14,6.3-2.2,9.2-9.1,10.5-16,.4-2.1.6-4.2.8-6.2l-1.8.4"/>
  <path class="cls-11" d="M516.8,161.4c0,1,.5,1.8,1.2,1.8s1.2-.8,1.2-1.8-.5-1.8-1.2-1.8-1.2.8-1.2,1.8M502.8,161.4c0,1,.5,1.8,1.2,1.8s1.2-.8,1.2-1.8-.5-1.8-1.2-1.8-1.2.8-1.2,1.8ZM522.6,156.3s-4.5-1.8-8-.3l.3,1.9s5.1-.4,7.7.6c.2-.7.3-1.5,0-2.2ZM500,156.3s4.5-1.8,8-.3l-.4,1.9s-5.1-.4-7.7.6c-.2-.7-.3-1.5,0-2.2M0,0"/>
  <path class="cls-23" d="M516.8,171.8c-.4,1.8-1.6,5.2-5.8,5.2s-5.4-3.1-5.8-5.2h11.6Z"/>
  <path class="cls-11" d="M493.6,160.3h2.1c-.2-2-.6-5.6,1.2-6.2,5.4-1.6-1.6-5.4.8-7.3,2.4-1.9,8.5-1.1,12.8-1.2,4.3-.1,11.1,0,12.8.3,1.7.4.8,3.1.1,5.2-.6,2.1,2,4.4,2.5,6.6.1.6.1,1.5,0,2.6h1.7c.2-2.6.2-5.1.2-7.1,0-3.5-2-6.7-5.1-8.4-8.4-4.7-17.3-2.9-23.1-.7-4.1,1.5-6.6,5.4-6.4,9.7,0,2,.2,4.3.5,6.6"/>
  <path class="cls-23" d="M188.7,390.6h-105.6c1.7-10.6,10.1-18.3,19.9-18.3h32.8c0,0,32.8,0,32.8,0,9.8,0,18.2,7.7,19.9,18.3h0Z"/>
  <path class="cls-23" d="M97.2,487.4h-5.8v-98.4h5.8v98.4M180.4,487.4h-5.8v-98.4h5.8v98.4Z"/>
  <path class="cls-18" d="M174.7,422.2h-77.4v-5.5h77.4v5.5Z"/>
  <path class="cls-8" d="M110.1,258.1s-17.6,23.5-20,44c-1.7,14.5,20,36.1,20,36.1l7.5-3.7-7.4-16.7c-2.6-8.2-5.9-11.4-3.5-19.6l5.4-11.6-1.9-28.5M165.6,257.7s17.4,25.1,18.8,45.7c1.2,17.7-20.1,34.8-20.1,34.8l-6.2-3.1,8.5-16.9c2.6-8.2,3.9-13.1.3-21.9l-4.6-9.7,3.1-28.8Z"/>
  <path class="cls-4" d="M113.7,311.6l-11.7,37.2s50.6,6.5,66.1,2.3l-7.9-40.5,5.4-52.9c-7.6-3.2-15.6-5.2-23.8-5.8-12-.9-19.5,1.1-31.8,6.2l3.6,53.5"/>
  <path class="cls-14" d="M126.3,269.3c11.2-1.3,21.5-9,22-9.3.3-.2.3-.6,0-.9-.2-.3-.6-.3-.8-.1-.1,0-12.3,9.1-24.1,9.3-.3,0-.6.3-.6.6,0,0,0,0,0,0,0,.3.3.6.6.6.9,0,1.9,0,2.8-.2"/>
  <path class="cls-1" d="M135.3,468.4l.9,8.2,8.7.2.7-6.8-10.4-1.6Z"/>
  <path class="cls-21" d="M133.9,338.3s-22.6-1.2-30.3,5c-7.7,6.3-6.1,24.2,1.7,29.1,7.8,4.9,21.1,14.6,21.1,14.6l8.5,84.1,11.2.4s10.3-84.5,5.1-100.8c-5.2-16.4-17.2-32.4-17.2-32.4"/>
  <path class="cls-14" d="M147.1,467.3c.6,2,.3,3.9-.3,5.8l-12.9-.3c-.4-1.8-.5-3.8-.2-5.6l13.4.2"/>
  <path class="cls-23" d="M165.9,337.7h-59.3l-5.5-32.1c-.4-2.5,1.2-4.8,3.7-5.2.3,0,.5,0,.8,0h61.3c2.5,0,4.5,2,4.5,4.5,0,.3,0,.5,0,.8l-5.5,32.1Z"/>
  <path class="cls-15" d="M161.2,344.6h-49.7c-2.7,0-4.8-2.2-4.8-4.8h0v-2.1h59.4v2.1c0,2.7-2.2,4.8-4.8,4.8h0ZM141.6,320.3c0,2.8-2.3,5.2-5.2,5.2-2.8,0-5.2-2.3-5.2-5.2h0c0-2.8,2.3-5.2,5.2-5.2,2.8,0,5.2,2.3,5.2,5.2Z"/>
  <path class="cls-1" d="M98.2,445.3l-1.9,8.1,7.8,1.5,3.2-7.3-9.1-2.4"/>
  <path class="cls-11" d="M145.4,336.9s-15.1-5.2-24,5.7c-8.9,11-23.7,103.5-23.7,103.5l10.2,4.2,32.7-82.2s26.7,15.2,29.9-6.4c2.6-17.1-25.1-24.8-25.1-24.8"/>
  <path class="cls-14" d="M110.2,446.1c0,2.1-.9,3.9-2.1,5.6l-12.5-4.4c.2-2,.7-3.8,1.6-5.6l13.1,4.5"/>
  <path class="cls-4" d="M102.3,452.1s-4.7-2.4-6.1-2.7c-1.4-.3-12.9,7.9-16.2,7.8-5.9-.1-7.8,8.6-4.5,9.7,9.7,3.4,27.8,3,27.8,3,0,0,4-10.8,4.1-14.5,0-3.7-2.5-1.8-5.1-3.4"/>
  <path class="cls-6" d="M0,0"/>
  <path class="cls-6" d="M0,0"/>
  <path class="cls-4" d="M139.6,476.3s4.9-1.5,6.2-1.5c1.4,0,10.8,9.6,13.9,10,5.6.8,5.9,9.3,2.6,9.9-9.7,1.6-26.6-1.8-26.6-1.8,0,0-2-10.8-1.4-14.3.5-3.4,2.6-1.3,5.3-2.4"/>
  <path class="cls-23" d="M148.1,485.3c-.2,0-.4,0-.5,0-.3-.2-.4-.6-.2-.9,0,0,0,0,0,0,0-.1,1.6-2.6,3.7-3.5,2.7-1.2,4.7.3,4.8.4.3.2.3.6.1.9-.2.3-.7.3-1,.1,0,0-1.5-1.1-3.4-.2-1.6.7-3.1,3-3.1,3,0,.1-.2.3-.4.3"/>
  <path class="cls-23" d="M146.1,483.4c-.2,0-.4,0-.5,0-.3-.2-.4-.6-.2-.9,0,0,0,0,0,0,0-.1,1.6-2.6,3.7-3.5,2.7-1.2,4.7.3,4.8.4.3.2.3.6.1.9-.2.3-.7.3-1,.1,0,0-1.5-1.1-3.4-.2-1.7.7-3.1,2.9-3.1,3,0,.1-.2.3-.4.3h0ZM150.7,486.9c-.2,0-.4,0-.5,0-.3-.2-.4-.6-.2-.9,0,0,0,0,0,0,0-.1,1.6-2.6,3.7-3.5,2.7-1.2,4.7.3,4.8.4.3.2.3.6.1.9-.2.3-.7.3-1,.1,0,0-1.5-1.1-3.4-.2-1.7.7-3.1,3-3.1,3,0,.1-.2.3-.4.3"/>
  <path class="cls-11" d="M152.8,205.1s7.2,11.1,6.4,22.8c-.8,11.6,1.1,25-9.3,24.4-10.4-.6-28.9,4.2-34.8-4.9-5.9-9,37.7-42.3,37.7-42.3"/>
  <path class="cls-10" d="M155.5,225.5s1.9,16.8-6.1,21.5c-8,4.6-13.8-.5-13.8-.5,0,0,16.8-23.4,19.9-20.9h0Z"/>
  <path class="cls-16" d="M122.3,225.5s-2.9-3.8-5-.7c-2.1,3.2.9,12.5,6.1,10.2l-1.1-9.6Z"/>
  <path class="cls-16" d="M0,0"/>
  <path class="cls-16" d="M0,0"/>
  <path class="cls-16" d="M151.8,225.5s2.9-3.8,5-.7c2.1,3.2-.9,12.5-6.1,10.2l1.1-9.6Z"/>
  <path class="cls-16" d="M0,0"/>
  <path class="cls-16" d="M0,0"/>
  <path class="cls-1" d="M144.1,242.9v9.3s-2.8,4.7-6.5,5.1c-3.7.3-7.1-4.1-7.1-4.1v-9.6l13.6-.7"/>
  <path class="cls-16" d="M144.1,242.9v4.1c-2.5,2.8-7,3.8-13.6,2.8v-6.3s13.6-.7,13.6-.7h0Z"/>
  <path class="cls-1" d="M153.9,219.1c-.2,3.6-.5,8.1-1.2,11.7-.2.9-.4,1.7-.6,2.5-2,6.8-6.8,18.6-20.5,13.7-6-2.2-8.8-8.9-10.1-15.7-.8-4.6-1-9.3-.9-12.7,0-3.4,1.9-6.6,4.9-8.2,8.1-4.6,16.6-2.9,22.2-.7,3.9,1.5,6.4,5.3,6.2,9.5"/>
  <path class="cls-1" d="M0,0"/>
  <path class="cls-1" d="M0,0"/>
  <path class="cls-23" d="M131.6,237c.3,1.7,1.4,4.8,5.2,4.8s4.8-2.8,5.2-4.8h-10.3Z"/>
  <path class="cls-23" d="M0,0"/>
  <path class="cls-11" d="M155.7,218.4c-.1.4-.5.7-1.1.8,0,1,0,2.1-.2,3.3-.5,6.4-2.2,7.5-2.5,5.9-.2-1-.2-7.1-.1-9-1.3,0-2.3-.3-2.3-.3l-1.5-6.2-.5,6.1c-2.2.8-7.4-.5-7.4-.5l-1.7-6.1-1.1,5.9c-3.3,1.6-7.5.5-7.5.5l-1-6.3-2.2,6.3s-7.1,2.5-7.2,0c0-1.5,1-5.7,2-8.9,1-3.5,3.3-6.5,6.4-8.2,8.8-4.7,18.1-2.2,21.3-.3,6.8,4,6.5,16.9,6.5,16.9"/>
  <path class="cls-11" d="M123.4,205.5s-5.8,6.9-7.8,19.4c-1.9,12.4-4.6,21.6,2.9,25.7,8.1,4.4,7.4-4.7,7.3-7.1-.1-2.5-7-9.2-2.4-28.3,1.5-6.1,0-9.6,0-9.6Z"/>
  <path class="cls-10" d="M122,231.2h0c0,.1,0,.6,0,1.4,0,.5,0,1.1,0,1.7.3,4.2,1.1,11.4,3.5,13.9.9,1,2.8,1.5,4.9,1.7v-3.3c-2.3-1.1-4-2.8-5.4-5-.8-1.8-2.3-4.7-3-9.2l-.2-1.2"/>
  <path class="cls-23" d="M154,235.2c0,.6-.5,1-1,1s-1-.5-1-1h0c0-.6.5-1,1-1,.6,0,1,.5,1,1Z"/>
  <path class="cls-3" d="M0,0"/>
  <path class="cls-14" d="M576.7,169.1c2.7,0,5-2.2,5-5,0-2.7-2.2-5-5-5-2.7,0-5,2.2-5,5,0,2.7,2.2,5,5,5ZM576.7,156.9c4,0,7.2,3.2,7.2,7.2s-3.2,7.2-7.2,7.2-7.2-3.2-7.2-7.2,3.2-7.2,7.2-7.2Z"/>
  <path class="cls-9" d="M550.7,143.7c2.7,0,5-2.2,5-5,0-2.7-2.2-5-5-5-2.7,0-5,2.2-5,5,0,2.7,2.2,5,5,5ZM550.7,131.6c4,0,7.2,3.2,7.2,7.2s-3.2,7.2-7.2,7.2-7.2-3.2-7.2-7.2,3.2-7.2,7.2-7.2Z"/>
  <path class="cls-14" d="M541.7,108.1c.6,0,1.1.5,1.1,1.1v5c0,.6-.5,1.1-1.1,1.2-.6,0-1.1-.5-1.2-1.1,0,0,0,0,0,0v-5c0-.6.5-1.1,1.1-1.1ZM541.7,99.3c.6,0,1.1.5,1.1,1.1v5c0,.6-.5,1.1-1.1,1.1s-1.1-.5-1.1-1.1v-5c0-.6.5-1.1,1.1-1.1ZM534.7,106.2h4.5c.6,0,1.1.5,1.1,1.1s-.5,1.1-1.1,1.1h-4.5c-.6,0-1.1-.5-1.1-1.1,0-.6.5-1.1,1.1-1.1ZM544.3,106.2h4.5c.6,0,1.1.5,1.1,1.1,0,.6-.5,1.1-1.1,1.1h-4.5c-.6,0-1.1-.5-1.1-1.1,0-.6.5-1.1,1.1-1.1Z"/>
  <path class="cls-9" d="M581.6,136.1c.6,0,1.1.5,1.1,1.1v5c0,.6-.6,1.1-1.2,1.1-.6,0-1.1-.5-1.1-1.1v-5c0-.6.5-1.1,1.1-1.1ZM581.6,127.3c.6,0,1.1.5,1.1,1.1v5c0,.6-.5,1.2-1.1,1.2-.6,0-1.2-.5-1.2-1.1,0,0,0,0,0,0v-5c0-.6.5-1.1,1.1-1.1ZM574.6,134.2h4.5c.6,0,1.1.5,1.1,1.1s-.5,1.1-1.1,1.1h-4.5c-.6,0-1.1-.5-1.1-1.1s.5-1.1,1.1-1.1ZM584.2,134.2h4.5c.6,0,1.2.5,1.2,1.1,0,.6-.5,1.2-1.1,1.2,0,0,0,0,0,0h-4.5c-.6,0-1.1-.5-1.1-1.1s.5-1.1,1.1-1.1Z"/>
  <path class="cls-14" d="M128.9,66.9c-2.7,0-5,2.2-5,5,0,2.7,2.2,5,5,5,2.7,0,5-2.2,5-5,0-2.7-2.2-5-5-5ZM128.9,64.6c4,0,7.2,3.2,7.2,7.2s-3.2,7.2-7.2,7.2-7.2-3.2-7.2-7.2,3.2-7.2,7.2-7.2Z"/>
  <path class="cls-9" d="M102.6,43c-2.7,0-5,2.2-5,5,0,2.7,2.2,5,5,5,2.7,0,5-2.2,5-5,0-2.7-2.2-5-5-5h0ZM102.6,40.7c4,0,7.2,3.2,7.2,7.2s-3.2,7.2-7.2,7.2-7.2-3.2-7.2-7.2,3.2-7.2,7.2-7.2Z"/>
  <path class="cls-14" d="M93.1,82c0,.6.5,1.1,1.1,1.1h5c.6,0,1.1-.5,1.1-1.1,0-.6-.5-1.1-1.1-1.1h-5c-.6,0-1.1.5-1.1,1.1ZM84.3,82c0,.6.5,1.1,1.1,1.1h5c.6,0,1.1-.5,1.1-1.1,0-.6-.5-1.1-1.1-1.1h-5c-.6,0-1.1.5-1.1,1.1h0ZM91.2,75v4.5c0,.6.5,1.1,1.1,1.1s1.1-.5,1.1-1.1v-4.5c0-.6-.5-1.1-1.1-1.1-.6,0-1.1.5-1.1,1.1h0ZM91.2,84.6v4.5c0,.6.5,1.1,1.1,1.1s1.1-.5,1.1-1.1v-4.5c0-.6-.5-1.1-1.1-1.1-.6,0-1.1.5-1.1,1.1h0Z"/>
  <path class="cls-9" d="M146,43c0,.6.5,1.1,1.1,1.1h5c.6,0,1.1-.5,1.1-1.1s-.5-1.1-1.1-1.1h-5c-.6,0-1.1.5-1.1,1.1ZM137.3,43c0,.6.5,1.1,1.1,1.1h5c.6,0,1.1-.5,1.1-1.1s-.5-1.1-1.1-1.1h-5c-.6,0-1.1.5-1.1,1.1ZM144.2,36v4.5c0,.6.5,1.1,1.1,1.1s1.1-.5,1.1-1.1h0v-4.5c0-.6-.6-1.1-1.2-1.1-.6,0-1.1.5-1.1,1.1ZM144.2,45.5v4.5c0,.6.5,1.1,1.1,1.1s1.1-.5,1.1-1.1v-4.5c0-.6-.5-1.1-1.1-1.1s-1.1.5-1.1,1.1h0ZM0,0"/>
  <path class="cls-4" d="M448.5,71.8l-1.9-15,50.7,7.3-48.8,7.7h0Z"/>
  <path class="cls-14" d="M497.2,64.1l-46.8,11.5h-.1s-2.4,2.7-2.4,2.7l.5-6.5,48.8-7.7"/>
  <path class="cls-11" d="M447.9,78.3h4.2c0,0-1.9-2.7-1.9-2.7l-2.4,2.7Z"/>
  <path class="cls-4" d="M456.2,74.2l-5.9,1.4,9.6,13.7,37.4-25.2-41.1,10.1Z"/>
  <path class="cls-7" d="M417.8,145.3c.6-4.2,3.6-12.1,17.3-14.7,2.8-.5,5.8-.3,8.5.8,4,1.6,8.9,4.9,8,11.7,0,.1,0,.5,0,.7,0,1.5-.9,11-9.1,14.9-8.6,4-23.3,5.2-25-6.3-.1-.8,0-1.7.4-2.4,1.5-2.9,6.7-10.6,20-13,.1,0,.3,0,.4,0,.9.4,4.9,1.8,4.9-1.1,0-.9-.3-1.7-.9-2.3-.7-.7-2-1.4-3.8-.3,0,0,0,0,0,0-.1,0-1.2.7-1.3,2,0,.3-.3.6-.6.7-2.5.5-11.8,2.7-17.3,9.8-.5.6-1.5.2-1.4-.6h0Z"/>
  <path class="cls-17" d="M437.9,135.8s3.5,2.3,4.7.3l.4-4-4.4-.5s-1,.7-.7,4.1h0Z"/>
  <path class="cls-13" d="M438.5,131.7s2.3,1.9,4.4.5c0,0-2.5-1.7-4.4-.5h0Z"/>
  <path class="cls-20" d="M439.1,131.8s1.7,1.4,3.2.4c0,0-1.8-1.3-3.2-.4Z"/>
  <path class="cls-19" d="M449.2,142.7c-.5,5-1.9,18.7-23.6,16.3-.3,0-.3-.4,0-.5,6.4-.3,20-2.5,22.9-15.9,0-.4.7-.3.6,0h0Z"/>
  <path class="cls-7" d="M39,314.8c-4.2-.7-12-4-14.1-17.8-.4-2.9,0-5.8,1.1-8.4,1.7-4,5.2-8.8,11.9-7.5.1,0,.5,0,.7,0,1.5.1,11,1.3,14.6,9.6,3.7,8.7,4.4,23.5-7.1,24.7-.8,0-1.7,0-2.4-.5-2.9-1.6-10.3-7.1-12.3-20.4,0-.1,0-.3,0-.4.4-.9,2-4.8-.9-4.9-.9,0-1.7.3-2.3.9-.8.7-1.5,2-.5,3.8,0,0,0,0,0,0,0,.2.6,1.2,2,1.3.3,0,.6.3.7.6.4,2.5,2.3,11.9,9.2,17.6.6.5.2,1.5-.6,1.3h0Z"/>
  <path class="cls-17" d="M30.2,294.4s2.4-3.4.5-4.7l-3.9-.5-.7,4.4s.7,1,4.1.8h0Z"/>
  <path class="cls-13" d="M26.1,293.5s2-2.2.7-4.4c0,0-1.8,2.4-.7,4.4h0Z"/>
  <path class="cls-20" d="M26.2,293s1.4-1.6.5-3.2c0,0-1.3,1.7-.5,3.2Z"/>
  <path class="cls-19" d="M37.5,283.3c5,.7,18.6,2.5,15.5,24.2,0,.3-.4.2-.5,0,0-6.4-1.8-20-15.1-23.5-.4,0-.3-.7,0-.6h0Z"/>
</svg>